<svg xmlns="http://www.w3.org/2000/svg" viewBox="0 0 71.5 78.5"><path fill="#E5E5E5" d="M1 35h58v32H1z"/><path fill="#007DBC" stroke="#444" stroke-width="2" stroke-linecap="round" stroke-linejoin="round" stroke-miterlimit="10" d="M51.5 24h-43L1 31h58z"/><g stroke-width="2" stroke-linejoin="round" stroke-miterlimit="10"><g stroke="#444" stroke-linecap="round"><path fill="#FFF" d="M18 42.2V1h20.2l9.8 9.8v31.4z"/><path fill="#E5E5E5" d="M38 10h9.8L38 1z"/></g><path fill="#FFF" stroke="#444" stroke-linecap="round" d="M13 46.9V5h20.2l9.8 9.7v32.2z"/><path fill="#E5E5E5" stroke="#444" stroke-linecap="round" d="M33 14h9.2L33 5z"/><g fill="#FFF" stroke-linecap="square"><path stroke="#999" d="M18 19h20M18 13h10M18 25h20"/><path stroke="#444" d="M17.5 35h19.9"/></g></g><path fill="#AAD4E5" stroke="#444" stroke-width="2" stroke-linecap="round" stroke-linejoin="round" stroke-miterlimit="10" d="M1 31h58v32H1z"/><path fill="#999" stroke="#444" stroke-width="2" stroke-linecap="round" stroke-linejoin="round" stroke-miterlimit="10" d="M21 38h18v4H21z"/><g><circle fill="#E5E5E5" cx="57" cy="65" r="13.5"/><circle fill="#FFF" stroke="#444" stroke-width="2" stroke-linecap="round" stroke-linejoin="round" stroke-miterlimit="10" cx="57" cy="61" r="13.5"/><path fill="#007DBC" stroke="#444" stroke-width="2" stroke-miterlimit="10" d="M64 58h-4v-4h-6v4h-4v6h4v4h6v-4h4z"/></g></svg>