<svg xmlns="http://www.w3.org/2000/svg" viewBox="0 0 171 174.8"><path fill="#A0CEC7" d="M6 7.3l23.5 12.1 20.3-16L64 15.6 5.6 171.4"/><path d="M53 174.8H3c-1.7 0-3-1.7-3-3.4V3.4C0 2.3.6 1.3 1.5.8s2.1-.5 3 0l24.7 14.9L47.9 1c1.1-.9 2.8-.9 3.8.1l16.4 14.5L90.7.5c1-.7 2.4-.7 3.4 0l21.4 15.1L135.2 1c.9-.7 2.1-.8 3.1-.3s1.7 1.5 1.7 2.7v97c0 1.7-1.3 3-3 3s-3-1.3-3-3v-91l-16.7 12.4c-1 .8-2.5.8-3.5 0L92.3 6.6 69.5 21.9c-1.1.8-2.6.7-3.7-.2L49.6 7.3 31.4 21.7c-1 .8-2.3.9-3.4.2L6 8.7v160.1h47c1.7 0 3 1.3 3 3s-1.3 3-3 3z"/><path d="M114 54.8H31c-1.7 0-3-1.3-3-3s1.3-3 3-3h83c1.7 0 3 1.3 3 3s-1.3 3-3 3zM114 83.8H31c-1.7 0-3-1.3-3-3s1.3-3 3-3h83c1.7 0 3 1.3 3 3s-1.3 3-3 3z"/><path fill="#A0CEC7" d="M86.8 174.8l.5-93.1 35.6 40.1.2 53"/><path d="M158 174.4c-1.7 0-3-1.3-3-3v-95c0-1.7 1.3-3 3-3s3 1.3 3 3v95c0 1.6-1.3 3-3 3zM53 174.4c-1.7 0-3-1.3-3-3v-41c0-1.7 1.3-3 3-3s3 1.3 3 3v41c0 1.6-1.3 3-3 3z"/><circle fill="#FFF" cx="52.6" cy="130.8" r="6"/><circle fill="#FFF" cx="87.3" cy="81.5" r="6"/><circle fill="#FFF" cx="122.9" cy="121.5" r="6"/><circle fill="#FFF" cx="158.9" cy="69.5" r="6"/><path fill="#A0CEC7" d="M155.3 75.9s2.1-11.1 8.6-11.6c0 0-6-6-11.6-.4-5.6 6 3 12 3 12zM84.1 87.6s2.1-11.1 8.6-11.6c0 0-6-6-11.6-.4-5.6 6 3 12 3 12z"/><path d="M52.6 136.8c-3.3 0-6-2.7-6-6s2.7-6 6-6 6 2.7 6 6-2.7 6-6 6zm28.7-55.3c0-3.3 2.7-6 6-6s6 2.7 6 6-2.7 6-6 6-6-2.7-6-6zm41.6 46c-3.3 0-6-2.7-6-6s2.7-6 6-6 6 2.7 6 6-2.7 6-6 6zm35.5-52.4c-3.3 0-6-2.7-6-6s2.7-6 6-6 6 2.7 6 6c0 3.4-2.6 6-6 6zm0-18.5c-6.9 0-12.6 5.6-12.6 12.6 0 3.2 1.2 6.1 3.1 8.3l-22 32.2c-1.3-.5-2.7-.7-4.1-.7-2 0-3.9.5-5.6 1.3L97.9 88.4c1.3-2 2.1-4.3 2.1-6.9 0-6.9-5.6-12.6-12.6-12.6-6.9 0-12.6 5.6-12.6 12.6 0 2.9 1 5.7 2.7 7.8l-20.6 29.6c-1.3-.5-2.7-.7-4.2-.7-6.9 0-12.6 5.6-12.6 12.6 0 6.9 5.6 12.6 12.6 12.6s12.6-5.6 12.6-12.6c0-3.1-1.1-5.9-2.9-8.1l20.5-29.5c1.4.6 2.9.9 4.5.9 2 0 3.9-.5 5.6-1.3l19.4 21.8c-1.3 2-2.1 4.3-2.1 6.9 0 6.9 5.6 12.6 12.6 12.6 6.9 0 12.6-5.6 12.6-12.6 0-3.1-1.1-6-3-8.2l22-32.2c1.2.4 2.6.6 3.9.6 6.9 0 12.6-5.6 12.6-12.6 0-6.9-5.6-12.5-12.6-12.5z"/></svg>