<svg xmlns="http://www.w3.org/2000/svg" viewBox="0 0 40 40" preserveAspectRatio="xMinYMid"><path fill="#A0CEC7" d="M5.2 26.1L34 5.3H5.2"/><path fill="none" stroke="#111" stroke-width="1.108" stroke-miterlimit="10" d="M17.4 33.4c0 .6-.5 1.1-1.1 1.2-6 .3-10.7 1.4-10.7 2.7v.2c0 .6.5 1.2 1.2 1.2h26.4c.6 0 1.2-.5 1.2-1.2v-.2c0-1.3-4.7-2.4-10.7-2.7-.6 0-1.1-.5-1.1-1.2v-2.7c0-.6.5-1.2 1.2-1.2h14c.6 0 1.2-.5 1.2-1.2V2.5c0-.6-.5-1.2-1.2-1.2H2.2c-.7 0-1.2.6-1.2 1.2v25.8c0 .6.5 1.2 1.2 1.2h14c.6 0 1.2.5 1.2 1.2v2.7zM4.9 24.7V6.1C4.9 5.5 5.4 5 6 5h28c.6 0 1.1.5 1.1 1.1v18.6c0 .6-.5 1.1-1.1 1.1H6c-.6.1-1.1-.4-1.1-1.1z"/></svg>