<svg version="1.1" id="Layer_1" xmlns="http://www.w3.org/2000/svg" xmlns:xlink="http://www.w3.org/1999/xlink" x="0px" y="0px" viewBox="0 0 152.9 127.1" enable-background="new 0 0 152.9 127.1" xml:space="preserve"><g><g><g><g><path fill="#979797" d="M126.8,30.5c0.3-1,0.4-2.1,0.4-3.2c0-6.9-5.7-12.5-12.6-12.5c-1.3,0-2.6,0.2-3.8,0.6 C108.1,6.5,99.8-0.1,90,0C79.3,0.1,70.5,8,69,18.4c-15.1,0.6-27.1,13.7-27,28.9C42,62.8,54.7,75.9,70.3,75.8l53.4-0.3 c12.2-0.1,22-10.6,21.9-22.8C145.5,41.7,137.4,32,126.8,30.5z"></path></g></g></g><g><g><path fill="#979797" d="M67,94.2c0,3.4-11.6,7.9-30,7.9S7,97.6,7,94.2V77.1c0-3.4,1.6-4.1,4.5-4.1h50.1c2.9,0,5.4,0.7,5.4,4.1 V94.2z"></path></g><g><path fill="#FFFFFF" d="M62.1,72c2.9,0,4.9,1.7,4.9,5.1v17.1c0,3.4-11.6,7.9-30,7.9S7,97.6,7,94.2V77.1c0-3.4,1.6-4.1,4.5-4.1H62 M61.6,68.1H11.5C5.6,68.1,0,70.7,0,77.1v17.1c0,2,1.2,5,5.1,7.5c1.9,1.2,4.6,2.3,7.7,3.2c6.3,1.9,14.8,2.9,23.6,2.9 s17.2-1,23.5-2.9c3.1-0.9,5.5-2,7.4-3.2c3.9-2.5,4.7-5.5,4.7-7.5V77.1c0-6.5-4.7-9.1-10.6-9.1H61.6z"></path></g><g><path fill="#979797" d="M61.6,51.1H11.5c-2.9,0-4.5,3.2-4.5,6.5v17.1c0,3.4,11.6,7.9,30,7.9s30-4.5,30-7.9V57.6 C67,54.2,64.5,51.1,61.6,51.1z"></path></g><g><path fill="#FFFFFF" d="M62.1,51.4c2.9,0,4.9,2.9,4.9,6.2v17.1c0,3.4-11.6,7.9-30,7.9S7,78,7,74.7V57.6c0-3.4,1.6-6.5,4.5-6.5H62 M61.6,47.1H11.5C5.6,47.1,0,51.2,0,57.6v17.1c0,2,1.2,5,5.1,7.5c1.9,1.2,4.6,2.3,7.7,3.2c6.3,1.9,14.8,2.9,23.6,2.9 s17.2-1,23.5-2.9c3.1-0.9,5.5-2,7.4-3.2c3.9-2.5,4.7-5.5,4.7-7.5V57.6c0-6.5-4.7-10.5-10.6-10.5H61.6z"></path></g><g><path fill="#979797" d="M37,38.4c-18.4,0-30,4.3-30,7.5v9.6C7,58.7,18.6,63,37,63s30-4.3,30-7.5v-9.6C67,42.7,55.4,38.4,37,38.4z "></path></g><g><path fill="#FFFFFF" d="M37,38.4c18.4,0,30,4.3,30,7.5v9.6c0,3.2-11.6,7.5-30,7.5S7,58.7,7,55.5v-9.6C7,42.7,18.6,38.4,37,38.4 M36.5,32.8c-8.8,0-17.1,1-23.4,2.7c-3.1,0.9-5.9,1.9-7.8,3c-4,2.4-5.2,5.4-5.2,7.4v9.6c0,2,1.2,5,5.2,7.4c1.9,1.1,4.6,2.1,7.6,3 c6.3,1.8,14.7,2.7,23.5,2.7s17.1-1,23.5-2.7c3.1-0.9,5.5-1.9,7.4-3c4-2.4,4.8-5.4,4.8-7.4v-9.6c0-2-0.7-5-4.8-7.4 c-1.9-1.1-4.3-2.1-7.4-3C53.5,33.7,45.3,32.8,36.5,32.8L36.5,32.8z"></path></g></g><g><g><path fill="#676767" d="M89,119.2c0,3.4-11.6,7.9-30,7.9s-30-4.5-30-7.9v-17.1c0-3.4,1.6-4.1,4.5-4.1h50.1c2.9,0,5.4,0.7,5.4,4.1 V119.2z"></path></g><g><path fill="#676767" d="M83.6,76.1H33.5c-2.9,0-4.5,3.2-4.5,6.5v17.1c0,3.4,11.6,7.9,30,7.9s30-4.5,30-7.9V82.6 C89,79.2,86.5,76.1,83.6,76.1z"></path></g><g><path fill="#FFFFFF" d="M84.1,76.4c2.9,0,4.9,2.9,4.9,6.2v17.1c0,3.4-11.6,7.9-30,7.9s-30-4.5-30-7.9V82.6c0-3.4,1.6-6.5,4.5-6.5 H84 M83.6,72.1H33.5c-5.9,0-11.5,4.1-11.5,10.5v17.1c0,2,1.2,5,5.1,7.5c1.9,1.2,4.6,2.3,7.7,3.2c6.3,1.9,14.8,2.9,23.6,2.9 s17.2-1,23.5-2.9c3.1-0.9,5.5-2,7.4-3.2c3.9-2.5,4.7-5.5,4.7-7.5V82.6c0-6.5-4.7-10.5-10.6-10.5H83.6z"></path></g><g><path fill="#676767" d="M59,63.4c-18.4,0-30,4.3-30,7.5v9.6c0,3.2,11.6,7.5,30,7.5s30-4.3,30-7.5v-9.6C89,67.7,77.4,63.4,59,63.4 z"></path></g><g><path fill="#FFFFFF" d="M59,63.4c18.4,0,30,4.3,30,7.5v9.6c0,3.2-11.6,7.5-30,7.5s-30-4.3-30-7.5v-9.6C29,67.7,40.6,63.4,59,63.4 M58.5,57.8c-8.8,0-17.1,1-23.4,2.7c-3.1,0.9-5.9,1.9-7.8,3c-4,2.4-5.2,5.4-5.2,7.4v9.6c0,2,1.2,5,5.2,7.4c1.9,1.1,4.6,2.1,7.6,3 c6.3,1.8,14.7,2.7,23.5,2.7s17.1-1,23.5-2.7c3.1-0.9,5.5-1.9,7.4-3c4-2.4,4.8-5.4,4.8-7.4v-9.6c0-2-0.7-5-4.8-7.4 c-1.9-1.1-4.3-2.1-7.4-3C75.5,58.7,67.3,57.8,58.5,57.8L58.5,57.8z"></path></g></g><g><g><circle fill="#F69820" cx="120.4" cy="91.2" r="27.1"></circle><path fill="#FFFFFF" d="M120.4,58.7c-17.9,0-32.5,14.6-32.5,32.5c0,17.9,14.6,32.5,32.5,32.5c17.9,0,32.5-14.6,32.5-32.5 C152.9,73.3,138.3,58.7,120.4,58.7z M120.4,118.4c-15,0-27.1-12.2-27.1-27.1c0-15,12.2-27.1,27.1-27.1c15,0,27.1,12.2,27.1,27.1 C147.6,106.2,135.4,118.4,120.4,118.4z"></path></g><g><polygon fill="#FFFFFF" points="136,86.1 126,86.1 126,76.1 115,76.1 115,86.1 105,86.1 105,96.1 115,96.1 115,106.1 126,106.1 126,96.1 136,96.1 "></polygon></g></g></g></svg>
