<svg xmlns="http://www.w3.org/2000/svg" viewBox="0 0 74 52"><path fill="#FFF" stroke="#3C3C3C" stroke-width="2" stroke-linecap="round" stroke-linejoin="round" stroke-miterlimit="10" d="M67 43H6.9V3c0-1.1.9-2 2-2H65c1.1 0 2 .9 2 2v40z"/><path fill="#AAD4E5" stroke="#444" stroke-width="2" stroke-linejoin="round" stroke-miterlimit="10" d="M38 12h25v27H38z"/><path fill="#FFF" stroke="#444" stroke-width="2" stroke-linejoin="round" stroke-miterlimit="10" d="M11 12h27v27H11z"/><path fill="#007DBC" stroke="#444" stroke-width="2" stroke-miterlimit="10" d="M10.9 5H63v7H10.9z"/><path fill="#FFF" stroke="#3C3C3C" stroke-width="2" stroke-linecap="round" stroke-linejoin="round" stroke-miterlimit="10" d="M1 43h72v4H1z"/><path fill="#007DBC" stroke="#444" stroke-width="2" stroke-linejoin="round" stroke-miterlimit="10" d="M67 51H7l-6-4h72z"/><path fill="#FFF" stroke="#444" stroke-width="2" stroke-linejoin="round" stroke-miterlimit="10" d="M38 24h25"/><path fill="#444" d="M14 7h3v3h-3zM19 7h3v3h-3zM24 7h3v3h-3z"/><g fill="#999"><path d="M22.2 33l-5.9-1.5c-.2-.1-.3-.2-.3-.4v-8.6c0-.3.3-.5.6-.4l5.9 1.5c.2.1.3.2.3.4v8.6c.1.3-.3.5-.6.4zM25.8 32.7l5.9-1.4c.2-.1.3-.2.3-.4v-8.2c0-.3-.3-.5-.6-.4l-5.9 1.4c-.2.1-.3.2-.3.4v8.2c-.1.3.3.5.6.4zM30.7 20.4L24.2 22h-.3l-6.5-1.6c-.4-.1-.4-.6 0-.8l6.5-1.6h.3l6.5 1.6c.4.2.4.7 0 .8z"/></g></svg>