<svg version="1.1" id="Layer_1" xmlns="http://www.w3.org/2000/svg" xmlns:xlink="http://www.w3.org/1999/xlink" x="0px" y="0px" viewBox="0 0 160 128" enable-background="new 0 0 160 128" xml:space="preserve"><g><g><g><path fill="#979797" d="M134.3,28.3c0.2-0.9,0.4-1.9,0.3-2.9c0-6.2-5.1-11.3-11.4-11.2c-1.2,0-2.3,0.2-3.4,0.5 c-2.4-8.1-9.8-13.9-18.6-13.9c-9.7,0.1-17.6,7.2-19,16.5c-13.6,0.5-24.4,12.3-24.4,26c0.1,14,11.5,25.8,25.5,25.7l48.1-0.3 c11-0.1,19.8-9.6,19.7-20.5C151.2,38.4,143.9,29.7,134.3,28.3z"></path></g></g></g><path fill="#FFFFFF" d="M109,80H7c-2.8,0-5-2.2-5-5V32c0-2.8,2.2-5,5-5h102c2.8,0,5,2.2,5,5v43C114,77.8,111.8,80,109,80z"></path><g><path fill="#666666" d="M65,115.9V108h26.6c-1.2-3-2.1-5-2.7-8H15V40h86v27.1c2-1.7,5-3.2,8-4.2V32H7v76h44v7.9 c-18,0.7-31,3.7-31,7.4v4.7h30.3h7.9h7.2H95v-4.7C95,119.6,83,116.6,65,115.9z"></path></g><g><g><path fill="#979797" d="M81,87.6c0,2.3-9.7,5.3-23,5.3s-23-3-23-5.3V76c0-2.3,2.7-2,4.8-2h36.4c2.1,0,4.8-0.2,4.8,2V87.6z"></path></g><g><path fill="#FFFFFF" d="M77.2,72.9c2.1,0,3.8,0.8,3.8,3.1v11.5c0,2.3-9.7,5.3-23,5.3s-23-3-23-5.3V76c0-2.3,2.7-2,4.8-2H77 M76.2,69H39.8c-4.3,0-7.8,2.7-7.8,7v11.5c0,1.4,0.6,3.4,3.5,5.1c1.4,0.8,3.2,1.5,5.4,2.1c4.6,1.3,10.7,1.9,17.1,1.9 S70.4,96,75,94.8c2.2-0.6,4.1-1.3,5.5-2.1C83.3,91,84,89,84,87.6V76C84,71.6,80.5,69,76.2,69L76.2,69z"></path></g><g><path fill="#979797" d="M76.2,60H39.8c-2.1,0-4.8,0.6-4.8,2.8v11.5c0,2.3,9.7,5.3,23,5.3s23-3,23-5.3V62.8 C81,60.6,78.3,60,76.2,60z"></path></g><g><path fill="#FFFFFF" d="M77.2,59.4c2.1,0,3.8,1.1,3.8,3.4v11.5c0,2.3-9.7,5.3-23,5.3s-23-3-23-5.3V62.8c0-2.3,2.7-2.8,4.8-2.8H77 M76.2,55H39.8c-4.3,0-7.8,3.5-7.8,7.8v11.5c0,1.4,0.6,3.4,3.5,5.1c1.4,0.8,3.2,1.5,5.4,2.1c4.6,1.3,10.7,1.9,17.1,1.9 s12.5-0.7,17.1-1.9c2.2-0.6,4.1-1.3,5.5-2.1c2.9-1.7,3.5-3.7,3.5-5.1V62.8C84,58.4,80.5,55,76.2,55L76.2,55z"></path></g><g><path fill="#979797" d="M58,49.9c-13.3,0-23,2.9-23,5.1v6.5c0,2.2,9.7,5.1,23,5.1s23-2.9,23-5.1V55C81,52.8,71.3,49.9,58,49.9z"></path></g><g><path fill="#FFFFFF" d="M58,49.9c13.3,0,23,2.9,23,5.1v6.5c0,2.2-9.7,5.1-23,5.1s-23-2.9-23-5.1V55C35,52.8,44.7,49.9,58,49.9 M57.9,46.1c-6.4,0-12.4,0.7-17,1.8c-2.2,0.6-4,1.3-5.4,2c-2.9,1.6-3.5,3.6-3.5,5v6.5c0,1.4,0.6,3.4,3.5,5c1.4,0.8,3.2,1.4,5.4,2 c4.6,1.2,10.6,1.8,17,1.8s12.4-0.7,17-1.8c2.2-0.6,4.1-1.3,5.5-2c2.9-1.6,3.6-3.6,3.6-5V55c0-1.4-0.7-3.4-3.6-5 c-1.4-0.8-3.2-1.4-5.4-2C70.4,46.7,64.3,46.1,57.9,46.1L57.9,46.1z"></path></g></g><g><g><g><g><path fill="#FFFFFF" d="M118.7,66c15.2,0,27.5,12.3,27.5,27.5c0,15.2-12.3,27.5-27.5,27.5c-15.2,0-27.5-12.3-27.5-27.5 C91.2,78.3,103.5,66,118.7,66 M118.7,60.6c-18.2,0-32.9,14.8-32.9,32.9c0,18.2,14.8,32.9,32.9,32.9c18.2,0,32.9-14.8,32.9-32.9 C151.6,75.4,136.8,60.6,118.7,60.6L118.7,60.6z"></path></g></g></g><g><g><path fill="#FFFFFF" d="M118.7,66c15.2,0,27.5,12.3,27.5,27.5c0,15.2-12.3,27.5-27.5,27.5c-15.2,0-27.5-12.3-27.5-27.5 C91.2,78.3,103.5,66,118.7,66 M118.7,60.6c-18.2,0-32.9,14.8-32.9,32.9c0,18.2,14.8,32.9,32.9,32.9c18.2,0,32.9-14.8,32.9-32.9 C151.6,75.4,136.8,60.6,118.7,60.6L118.7,60.6z"></path></g></g><g><path fill="#FF9900" d="M91.2,93.7c0,15.2,12.3,27.5,27.5,27.5c15.2,0,27.5-12.3,27.5-27.5s-12.3-27.5-27.5-27.5 S91.2,78.5,91.2,93.7z M104.1,103L99,95.8h5V81.4h10.1v14.5h5.2l-5.1,7.1l-5.1,7.1L104.1,103z M132.5,85.8l5.1,7.1h-5v14.5h-10.1 V92.9h-5.2l5.1-7.1l5.1-7.1L132.5,85.8z"></path></g></g></svg>
