<svg xmlns="http://www.w3.org/2000/svg" xmlns:xlink="http://www.w3.org/1999/xlink" viewBox="0 0 74.1 70"><g fill="#E5E5E5"><path d="M16 30H6c-1.1 0-2-.9-2-2V18c0-1.1.9-2 2-2h10c1.1 0 2 .9 2 2v10c0 1.1-.9 2-2 2zM35.8 32.8h-3.2c-.6 0-1-.4-1-1v-3.2c0-.6.4-1 1-1h3.2c.6 0 1 .4 1 1v3.2c0 .5-.5 1-1 1zM17 11h-4c-.6 0-1-.4-1-1V6c0-.6.4-1 1-1h4c.6 0 1 .4 1 1v4c0 .6-.4 1-1 1zM6 41H2c-.6 0-1-.4-1-1v-4c0-.6.4-1 1-1h4c.6 0 1 .4 1 1v4c0 .6-.4 1-1 1zM33 55h-4c-.6 0-1-.4-1-1v-4c0-.6.4-1 1-1h4c.6 0 1 .4 1 1v4c0 .6-.4 1-1 1zM22 46h-9c-.6 0-1-.4-1-1v-9c0-.6.4-1 1-1h9c.6 0 1 .4 1 1v9c0 .6-.4 1-1 1zM28 22h-4c-.6 0-1-.4-1-1v-4c0-.6.4-1 1-1h4c.6 0 1 .4 1 1v4c0 .6-.4 1-1 1zM38 13h-4c-.6 0-1-.4-1-1V8c0-.6.4-1 1-1h4c.6 0 1 .4 1 1v4c0 .6-.4 1-1 1zM47 22h-4c-.6 0-1-.4-1-1v-4c0-.6.4-1 1-1h4c.6 0 1 .4 1 1v4c0 .6-.4 1-1 1zM2 8h4v4H2zM4 46h4v4H4zM22 26h4v4h-4zM27 34h4v4h-4zM43 8h4v4h-4zM24 8h4v4h-4zM34.1 18.4h3v3h-3z"/></g><path fill="#E5E5E5" d="M60.6 51.9c-.7 1.1-1.5 2.2-2.5 3.2s-2.1 1.8-3.2 2.5l11.2 11.2c1.6 1.6 4.2 1.6 5.7.1 1.6-1.6 1.5-4.1-.1-5.7L60.6 51.9z"/><path fill="#E5E5E5" d="M58.3 51.4c-6.6 6.6-17.4 6.6-24 0-2.9-2.9-4.5-6.5-4.9-10.3-.5 4.9 1.1 10 4.9 13.8 6.6 6.6 17.4 6.6 24 0 3.8-3.8 5.4-8.9 4.9-13.8-.4 3.8-2 7.4-4.9 10.3z"/><path fill="#007DBC" stroke="#444" stroke-width="2" stroke-linejoin="round" stroke-miterlimit="10" d="M16 26H6c-1.1 0-2-.9-2-2V14c0-1.1.9-2 2-2h10c1.1 0 2 .9 2 2v10c0 1.1-.9 2-2 2z"/><path fill="#999" stroke="#444" stroke-width="2" stroke-linejoin="round" stroke-miterlimit="10" d="M35.8 28.8h-3.2c-.6 0-1-.4-1-1v-3.2c0-.6.4-1 1-1h3.2c.6 0 1 .4 1 1v3.2c0 .5-.5 1-1 1z"/><path fill="#AAD4E5" stroke="#444" stroke-width="2" stroke-linejoin="round" stroke-miterlimit="10" d="M17 7h-4c-.6 0-1-.4-1-1V2c0-.6.4-1 1-1h4c.6 0 1 .4 1 1v4c0 .6-.4 1-1 1z"/><path fill="#999" stroke="#444" stroke-width="2" stroke-linejoin="round" stroke-miterlimit="10" d="M6 37H2c-.6 0-1-.4-1-1v-4c0-.6.4-1 1-1h4c.6 0 1 .4 1 1v4c0 .6-.4 1-1 1zM33 51h-4c-.6 0-1-.4-1-1v-4c0-.6.4-1 1-1h4c.6 0 1 .4 1 1v4c0 .6-.4 1-1 1z"/><path fill="#AAD4E5" stroke="#444" stroke-width="2" stroke-linejoin="round" stroke-miterlimit="10" d="M22 42h-9c-.6 0-1-.4-1-1v-9c0-.6.4-1 1-1h9c.6 0 1 .4 1 1v9c0 .6-.4 1-1 1z"/><path fill="#E5E5E5" stroke="#444" stroke-width="2" stroke-linejoin="round" stroke-miterlimit="10" d="M28 18h-4c-.6 0-1-.4-1-1v-4c0-.6.4-1 1-1h4c.6 0 1 .4 1 1v4c0 .6-.4 1-1 1zM38 9h-4c-.6 0-1-.4-1-1V4c0-.6.4-1 1-1h4c.6 0 1 .4 1 1v4c0 .6-.4 1-1 1z"/><path fill="#007DBC" stroke="#444" stroke-width="2" stroke-linejoin="round" stroke-miterlimit="10" d="M47 18h-4c-.6 0-1-.4-1-1v-4c0-.6.4-1 1-1h4c.6 0 1 .4 1 1v4c0 .6-.4 1-1 1z"/><path fill="#444" d="M2 4h4v4H2zM4 42h4v4H4zM22 22h4v4h-4zM27 30h4v4h-4zM43 4h4v4h-4zM24 4h4v4h-4z"/><path fill="#444" stroke="#444" stroke-linejoin="round" stroke-miterlimit="10" d="M34.1 14.4h3v3h-3z"/><defs><circle id="a" cx="46.3" cy="39.3" r="17"/></defs><clipPath id="b"><use xlink:href="#a" overflow="visible"/></clipPath><path clip-path="url(#b)" fill="#999" stroke="#444" stroke-width="2" stroke-miterlimit="10" d="M38 48h-8c-1.1 0-2-.9-2-2v-8c0-1.1.9-2 2-2h8c1.1 0 2 .9 2 2v8c0 1.1-.9 2-2 2z"/><path clip-path="url(#b)" fill="#FFF" stroke="#444" stroke-width="2" stroke-miterlimit="10" d="M37 31h-4c-1.1 0-2-.9-2-2v-4c0-1.1.9-2 2-2h4c1.1 0 2 .9 2 2v4c0 1.1-.9 2-2 2z"/><path clip-path="url(#b)" fill="#AAD4E5" stroke="#444" stroke-width="2" stroke-miterlimit="10" d="M64 52H46c-.6 0-1-.4-1-1V33c0-.6.4-1 1-1h18c.6 0 1 .4 1 1v18c0 .6-.4 1-1 1z"/><path clip-path="url(#b)" fill="#E5E5E5" stroke="#444" stroke-width="2" stroke-linejoin="round" stroke-miterlimit="10" d="M54 26h-8c-.6 0-1-.4-1-1v-8c0-.6.4-1 1-1h8c.6 0 1 .4 1 1v8c0 .6-.4 1-1 1z"/><circle fill="none" stroke="#444" stroke-width="2" stroke-miterlimit="10" cx="46" cy="39" r="17"/><path fill="#007DBC" stroke="#444" stroke-width="2" stroke-miterlimit="10" d="M60.6 48c-.7 1.1-1.5 2.2-2.5 3.2S56 53 54.9 53.7l11.2 11.2c1.6 1.6 4.2 1.6 5.7.1 1.6-1.6 1.5-4.1-.1-5.7L60.6 48z"/></svg>