<svg xmlns="http://www.w3.org/2000/svg" viewBox="0 0 25 25" preserveAspectRatio="xMinYMid"><path fill="#A0CEC7" d="M12.5 12.5v6.6l-5.7-3.3V9.2l5.7 3.3"/><path fill="#A0CEC7" d="M12.5 5.9l5.7 3.3-5.7 3.3-5.7-3.3"/><path fill="#A0CEC7" d="M18.2 15.8V9.2l-5.7 3.3v6.6"/><path fill="none" stroke="#020202" stroke-width=".7812" stroke-linejoin="round" stroke-miterlimit="10" d="M12.5 24.5l-10.4-6v-12l10.4-6 10.4 6v12z"/><path fill="none" stroke="#020202" stroke-width=".4688" stroke-miterlimit="10" d="M18.2 15.8l4.7 2.7M12.5 12.5l10.4-6M12.5 5.9V.5M12.5 12.5l-10.4-6M6.8 15.8l-4.7 2.7M12.5 12.5v12M6.8 9.2l5.7-3.3 5.7 3.3v6.6l-5.7 3.3-5.7-3.3z"/></svg>