<svg xmlns="http://www.w3.org/2000/svg" viewBox="0 0 62 67"><path fill="#E5E5E5" d="M2 6h58v61H2z"/><path fill="#AAD4E5" stroke="#444" stroke-width="2" stroke-linecap="round" stroke-linejoin="round" stroke-miterlimit="10" d="M1 1h30v62H1z"/><path fill="#E5E5E5" stroke="#444" stroke-width="2" stroke-linejoin="round" stroke-miterlimit="10" d="M6 6h20v6H6z"/><path fill="#444" d="M9 8h2v2H9z"/><path fill="#E5E5E5" stroke="#444" stroke-width="2" stroke-linejoin="round" stroke-miterlimit="10" d="M6 16h20v6H6z"/><path fill="#444" d="M9 18h2v2H9z"/><g><path fill="#E5E5E5" stroke="#444" stroke-width="2" stroke-linejoin="round" stroke-miterlimit="10" d="M6 26h20v6H6z"/><path fill="#444" d="M9 28h2v2H9z"/></g><g><path fill="#E5E5E5" stroke="#444" stroke-width="2" stroke-linecap="round" stroke-linejoin="round" stroke-miterlimit="10" d="M31 1h30v62H31z"/><path fill="#007DBC" stroke="#444" stroke-width="2" stroke-linejoin="round" stroke-miterlimit="10" d="M36 6h20v6H36z"/><path fill="#444" d="M39 8h2v2h-2z"/><path fill="#007DBC" stroke="#444" stroke-width="2" stroke-linejoin="round" stroke-miterlimit="10" d="M36 16h20v6H36z"/><path fill="#444" d="M39 18h2v2h-2z"/><g><path fill="#007DBC" stroke="#444" stroke-width="2" stroke-linejoin="round" stroke-miterlimit="10" d="M36 26h20v6H36z"/><path fill="#444" d="M39 28h2v2h-2z"/></g></g></svg>