<?xml version="1.0" standalone="yes"?>

<svg version="1.1" viewBox="0.0 0.0 763.7559055118111 279.2283464566929" fill="none" stroke="none" stroke-linecap="square" stroke-miterlimit="10" xmlns="http://www.w3.org/2000/svg" xmlns:xlink="http://www.w3.org/1999/xlink"><clipPath id="p.0"><path d="m0 0l763.7559 0l0 279.22833l-763.7559 0l0 -279.22833z" clip-rule="nonzero"></path></clipPath><g clip-path="url(#p.0)"><path fill="#000000" fill-opacity="0.0" d="m0 0l763.7559 0l0 279.22833l-763.7559 0z" fill-rule="nonzero"></path><path fill="#000000" fill-opacity="0.0" d="m112.3727 35.845146l541.6693 0l0 205.95276l-541.6693 0z" fill-rule="nonzero"></path><path stroke="#666666" stroke-width="3.0" stroke-linejoin="round" stroke-linecap="butt" stroke-dasharray="3.0,9.0" d="m112.3727 35.845146l541.6693 0l0 205.95276l-541.6693 0z" fill-rule="nonzero"></path><path fill="#000000" fill-opacity="0.0" d="m9.099737 26.27588l0 0c0 -8.02206 6.5031652 -14.525225 14.525225 -14.525225l152.80783 0c3.8523254 0 7.546875 1.5303316 10.270874 4.254339c2.7240143 2.7240086 4.2543488 6.418556 4.2543488 10.270885l0 58.09916c0 8.022057 -6.503174 14.525223 -14.525223 14.525223l-152.80783 0c-8.022059 0 -14.525225 -6.503166 -14.525225 -14.525223z" fill-rule="nonzero"></path><path stroke="#b7b7b7" stroke-width="3.0" stroke-linejoin="round" stroke-linecap="butt" d="m9.099737 26.27588l0 0c0 -8.02206 6.5031652 -14.525225 14.525225 -14.525225l152.80783 0c3.8523254 0 7.546875 1.5303316 10.270874 4.254339c2.7240143 2.7240086 4.2543488 6.418556 4.2543488 10.270885l0 58.09916c0 8.022057 -6.503174 14.525223 -14.525223 14.525223l-152.80783 0c-8.022059 0 -14.525225 -6.503166 -14.525225 -14.525223z" fill-rule="nonzero"></path><path fill="#000000" d="m23.869656 42.924946l0 -13.593748l1.8125 0l0 5.578123l7.0625 0l0 -5.578123l1.796875 0l0 13.593748l-1.796875 0l0 -6.40625l-7.0625 0l0 6.40625l-1.8125 0zm12.582321 -4.921875q0 -2.734375 1.53125 -4.0625q1.265625 -1.09375 3.09375 -1.09375q2.03125 0 3.3125 1.34375q1.296875 1.328125 1.296875 3.671875q0 1.90625 -0.578125 3.0q-0.5625 1.078125 -1.65625 1.6875q-1.078125 0.59375 -2.375 0.59375q-2.0625 0 -3.34375 -1.328125q-1.28125 -1.328125 -1.28125 -3.8125zm1.71875 0q0 1.890625 0.828125 2.828125q0.828125 0.9375 2.078125 0.9375q1.25 0 2.0625 -0.9375q0.828125 -0.953125 0.828125 -2.890625q0 -1.828125 -0.828125 -2.765625q-0.828125 -0.9375 -2.0625 -0.9375q-1.25 0 -2.078125 0.9375q-0.828125 0.9375 -0.828125 2.828125zm8.610092 1.984375l1.65625 -0.265625q0.140625 1.0 0.765625 1.53125q0.640625 0.515625 1.78125 0.515625q1.15625 0 1.703125 -0.46875q0.5625 -0.46875 0.5625 -1.09375q0 -0.5625 -0.484375 -0.890625q-0.34375 -0.21875 -1.703125 -0.5625q-1.84375 -0.46875 -2.5625 -0.796875q-0.703125 -0.34375 -1.078125 -0.9375q-0.359375 -0.609375 -0.359375 -1.328125q0 -0.65625 0.296875 -1.21875q0.3125 -0.5625 0.828125 -0.9375q0.390625 -0.28125 1.0625 -0.484375q0.671875 -0.203125 1.4375 -0.203125q1.171875 0 2.046875 0.34375q0.875 0.328125 1.28125 0.90625q0.421875 0.5625 0.578125 1.515625l-1.625 0.21875q-0.109375 -0.75 -0.65625 -1.171875q-0.53125 -0.4375 -1.5 -0.4375q-1.15625 0 -1.640625 0.390625q-0.484375 0.375 -0.484375 0.875q0 0.328125 0.203125 0.59375q0.203125 0.265625 0.640625 0.4375q0.25 0.09375 1.46875 0.4375q1.765625 0.46875 2.46875 0.765625q0.703125 0.296875 1.09375 0.875q0.40625 0.578125 0.40625 1.4375q0 0.828125 -0.484375 1.578125q-0.484375 0.734375 -1.40625 1.140625q-0.921875 0.390625 -2.078125 0.390625q-1.921875 0 -2.9375 -0.796875q-1.0 -0.796875 -1.28125 -2.359375zm13.65625 1.4375l0.234375 1.484375q-0.703125 0.140625 -1.265625 0.140625q-0.90625 0 -1.40625 -0.28125q-0.5 -0.296875 -0.703125 -0.75q-0.203125 -0.46875 -0.203125 -1.984375l0 -5.65625l-1.234375 0l0 -1.3125l1.234375 0l0 -2.437498l1.65625 -1.0l0 3.437498l1.6875 0l0 1.3125l-1.6875 0l0 5.75q0 0.71875 0.078125 0.921875q0.09375 0.203125 0.296875 0.328125q0.203125 0.125 0.578125 0.125q0.265625 0 0.734375 -0.078125zm1.0583038 -5.203125q0 -2.421875 0.5 -3.890625q0.5 -1.4687481 1.46875 -2.265623q0.9843788 -0.796875 2.4687538 -0.796875q1.09375 0 1.921875 0.4375q0.828125 0.4375 1.359375 1.28125q0.546875 0.828125 0.84375 2.015623q0.3125 1.1875 0.3125 3.21875q0 2.390625 -0.5 3.859375q-0.484375 1.46875 -1.46875 2.28125q-0.96875 0.796875 -2.46875 0.796875q-1.9687538 0 -3.0781288 -1.40625q-1.359375 -1.703125 -1.359375 -5.53125zm1.71875 0q0 3.34375 0.78125 4.453125q0.7968788 1.109375 1.9375038 1.109375q1.15625 0 1.9375 -1.109375q0.78125 -1.125 0.78125 -4.453125q0 -3.359375 -0.78125 -4.468748q-0.78125 -1.109375 -1.953125 -1.109375q-1.15625 0 -1.828125 0.984375q-0.8750038 1.2343731 -0.8750038 4.593748z" fill-rule="nonzero"></path><path fill="#000000" fill-opacity="0.0" d="m288.11285 39.312336l191.9685 0l0 32.976376l-191.9685 0z" fill-rule="nonzero"></path><path fill="#666666" d="m319.30804 59.489273l3.03125 0.765625q-0.953125 3.734375 -3.4375 5.703125q-2.46875 1.953125 -6.046875 1.953125q-3.703125 0 -6.03125 -1.5q-2.3125 -1.515625 -3.53125 -4.375q-1.203125 -2.859375 -1.203125 -6.140625q0 -3.578125 1.359375 -6.234375q1.375 -2.671875 3.890625 -4.046875q2.53125 -1.390625 5.5625 -1.390625q3.4375 0 5.78125 1.75q2.34375 1.75 3.265625 4.921875l-2.984375 0.703125q-0.796875 -2.5 -2.3125 -3.640625q-1.515625 -1.140625 -3.8125 -1.140625q-2.640625 0 -4.421875 1.265625q-1.765625 1.265625 -2.484375 3.40625q-0.71875 2.125 -0.71875 4.390625q0 2.921875 0.84375 5.109375q0.859375 2.171875 2.65625 3.25q1.796875 1.078125 3.890625 1.078125q2.546875 0 4.3125 -1.46875q1.765625 -1.46875 2.390625 -4.359375zm5.359375 -0.265625q0 -4.609375 2.5625 -6.828125q2.140625 -1.84375 5.21875 -1.84375q3.421875 0 5.59375 2.25q2.171875 2.234375 2.171875 6.1875q0 3.203125 -0.96875 5.046875q-0.953125 1.828125 -2.796875 2.84375q-1.828125 1.015625 -4.0 1.015625q-3.484375 0 -5.640625 -2.234375q-2.140625 -2.234375 -2.140625 -6.4375zm2.890625 0q0 3.1875 1.390625 4.78125q1.390625 1.578125 3.5 1.578125q2.09375 0 3.484375 -1.59375q1.390625 -1.59375 1.390625 -4.859375q0 -3.078125 -1.40625 -4.65625q-1.390625 -1.59375 -3.46875 -1.59375q-2.109375 0 -3.5 1.578125q-1.390625 1.578125 -1.390625 4.765625zm15.953125 8.296875l0 -16.59375l2.53125 0l0 2.359375q1.828125 -2.734375 5.28125 -2.734375q1.5 0 2.75 0.546875q1.265625 0.53125 1.890625 1.40625q0.625 0.875 0.875 2.078125q0.15625 0.78125 0.15625 2.734375l0 10.203125l-2.8125 0l0 -10.09375q0 -1.71875 -0.328125 -2.5625q-0.328125 -0.859375 -1.171875 -1.359375q-0.828125 -0.515625 -1.953125 -0.515625q-1.796875 0 -3.109375 1.140625q-1.296875 1.140625 -1.296875 4.328125l0 9.0625l-2.8125 0zm16.671875 -4.953125l2.78125 -0.4375q0.234375 1.671875 1.296875 2.5625q1.078125 0.890625 3.0 0.890625q1.9375 0 2.875 -0.78125q0.9375 -0.796875 0.9375 -1.859375q0 -0.953125 -0.828125 -1.5q-0.578125 -0.375 -2.875 -0.953125q-3.09375 -0.78125 -4.296875 -1.34375q-1.1875 -0.578125 -1.8125 -1.578125q-0.609375 -1.015625 -0.609375 -2.234375q0 -1.109375 0.5 -2.046875q0.515625 -0.953125 1.390625 -1.578125q0.65625 -0.484375 1.78125 -0.8125q1.140625 -0.34375 2.4375 -0.34375q1.953125 0 3.421875 0.5625q1.484375 0.5625 2.1875 1.53125q0.703125 0.953125 0.96875 2.5625l-2.75 0.375q-0.1875 -1.28125 -1.09375 -2.0q-0.890625 -0.71875 -2.53125 -0.71875q-1.9375 0 -2.765625 0.640625q-0.828125 0.640625 -0.828125 1.5q0 0.546875 0.34375 0.984375q0.34375 0.453125 1.078125 0.75q0.421875 0.15625 2.484375 0.71875q2.984375 0.796875 4.15625 1.3125q1.1875 0.5 1.859375 1.46875q0.671875 0.96875 0.671875 2.40625q0 1.40625 -0.828125 2.65625q-0.8125 1.234375 -2.359375 1.921875q-1.546875 0.671875 -3.5 0.671875q-3.234375 0 -4.9375 -1.34375q-1.6875 -1.34375 -2.15625 -3.984375zm27.953125 -1.125l2.765625 0.359375q-0.453125 2.859375 -2.328125 4.484375q-1.859375 1.609375 -4.578125 1.609375q-3.40625 0 -5.484375 -2.21875q-2.0625 -2.234375 -2.0625 -6.390625q0 -2.6875 0.890625 -4.703125q0.890625 -2.015625 2.703125 -3.015625q1.828125 -1.015625 3.96875 -1.015625q2.703125 0 4.421875 1.375q1.71875 1.359375 2.203125 3.875l-2.734375 0.421875q-0.390625 -1.671875 -1.390625 -2.515625q-0.984375 -0.84375 -2.390625 -0.84375q-2.125 0 -3.453125 1.53125q-1.328125 1.515625 -1.328125 4.8125q0 3.34375 1.28125 4.859375q1.28125 1.515625 3.34375 1.515625q1.65625 0 2.765625 -1.015625q1.109375 -1.015625 1.40625 -3.125zm5.1875 -13.59375l0 -3.234375l2.8125 0l0 3.234375l-2.8125 0zm0 19.671875l0 -16.59375l2.8125 0l0 16.59375l-2.8125 0zm18.453125 -5.34375l2.90625 0.359375q-0.6875 2.546875 -2.546875 3.953125q-1.859375 1.40625 -4.75 1.40625q-3.640625 0 -5.78125 -2.234375q-2.125 -2.25 -2.125 -6.296875q0 -4.1875 2.15625 -6.5q2.15625 -2.3125 5.59375 -2.3125q3.328125 0 5.4375 2.265625q2.109375 2.265625 2.109375 6.375q0 0.25 -0.015625 0.75l-12.375 0q0.15625 2.734375 1.546875 4.1875q1.390625 1.453125 3.46875 1.453125q1.546875 0 2.640625 -0.8125q1.09375 -0.8125 1.734375 -2.59375zm-9.234375 -4.546875l9.265625 0q-0.1875 -2.09375 -1.0625 -3.140625q-1.34375 -1.625 -3.484375 -1.625q-1.9375 0 -3.265625 1.296875q-1.3125 1.296875 -1.453125 3.46875zm15.671875 9.890625l0 -16.59375l2.53125 0l0 2.359375q1.828125 -2.734375 5.28125 -2.734375q1.5 0 2.75 0.546875q1.265625 0.53125 1.890625 1.40625q0.625 0.875 0.875 2.078125q0.15625 0.78125 0.15625 2.734375l0 10.203125l-2.8125 0l0 -10.09375q0 -1.71875 -0.328125 -2.5625q-0.328125 -0.859375 -1.171875 -1.359375q-0.828125 -0.515625 -1.953125 -0.515625q-1.796875 0 -3.109375 1.140625q-1.296875 1.140625 -1.296875 4.328125l0 9.0625l-2.8125 0zm28.625 -6.078125l2.765625 0.359375q-0.453125 2.859375 -2.328125 4.484375q-1.859375 1.609375 -4.578125 1.609375q-3.40625 0 -5.484375 -2.21875q-2.0625 -2.234375 -2.0625 -6.390625q0 -2.6875 0.890625 -4.703125q0.890625 -2.015625 2.703125 -3.015625q1.828125 -1.015625 3.96875 -1.015625q2.703125 0 4.421875 1.375q1.71875 1.359375 2.203125 3.875l-2.734375 0.421875q-0.390625 -1.671875 -1.390625 -2.515625q-0.984375 -0.84375 -2.390625 -0.84375q-2.125 0 -3.453125 1.53125q-1.328125 1.515625 -1.328125 4.8125q0 3.34375 1.28125 4.859375q1.28125 1.515625 3.34375 1.515625q1.65625 0 2.765625 -1.015625q1.109375 -1.015625 1.40625 -3.125zm16.53125 0.734375l2.90625 0.359375q-0.6875 2.546875 -2.546875 3.953125q-1.859375 1.40625 -4.75 1.40625q-3.640625 0 -5.78125 -2.234375q-2.125 -2.25 -2.125 -6.296875q0 -4.1875 2.15625 -6.5q2.15625 -2.3125 5.59375 -2.3125q3.328125 0 5.4375 2.265625q2.109375 2.265625 2.109375 6.375q0 0.25 -0.015625 0.75l-12.375 0q0.15625 2.734375 1.546875 4.1875q1.390625 1.453125 3.46875 1.453125q1.546875 0 2.640625 -0.8125q1.09375 -0.8125 1.734375 -2.59375zm-9.234375 -4.546875l9.265625 0q-0.1875 -2.09375 -1.0625 -3.140625q-1.34375 -1.625 -3.484375 -1.625q-1.9375 0 -3.265625 1.296875q-1.3125 1.296875 -1.453125 3.46875z" fill-rule="nonzero"></path><path fill="#ffffff" d="m131.46457 56.61405l0 0c0 -3.6847305 10.915634 -6.671795 24.380768 -6.671795c13.465118 0 24.380753 2.9870644 24.380753 6.671795l0 26.687172c0 3.6847305 -10.915634 6.671791 -24.380753 6.671791c-13.465134 0 -24.380768 -2.9870605 -24.380768 -6.671791z" fill-rule="nonzero"></path><path fill="#000000" fill-opacity="0.0" d="m180.22609 56.61405l0 0c0 3.6847267 -10.915634 6.671791 -24.380753 6.671791c-13.465134 0 -24.380768 -2.9870644 -24.380768 -6.671791" fill-rule="nonzero"></path><path fill="#000000" fill-opacity="0.0" d="m131.46457 56.61405l0 0c0 -3.6847305 10.915634 -6.671795 24.380768 -6.671795c13.465118 0 24.380753 2.9870644 24.380753 6.671795l0 26.687172c0 3.6847305 -10.915634 6.671791 -24.380753 6.671791c-13.465134 0 -24.380768 -2.9870605 -24.380768 -6.671791z" fill-rule="nonzero"></path><path stroke="#660000" stroke-width="4.0" stroke-linejoin="round" stroke-linecap="butt" d="m180.22609 56.61405l0 0c0 3.6847267 -10.915634 6.671791 -24.380753 6.671791c-13.465134 0 -24.380768 -2.9870644 -24.380768 -6.671791" fill-rule="nonzero"></path><path stroke="#660000" stroke-width="4.0" stroke-linejoin="round" stroke-linecap="butt" d="m131.46457 56.61405l0 0c0 -3.6847305 10.915634 -6.671795 24.380768 -6.671795c13.465118 0 24.380753 2.9870644 24.380753 6.671795l0 26.687172c0 3.6847305 -10.915634 6.671791 -24.380753 6.671791c-13.465134 0 -24.380768 -2.9870605 -24.380768 -6.671791z" fill-rule="nonzero"></path><path fill="#ffffff" d="m358.46515 95.204285l0 0c0 -3.5048065 11.476074 -6.346016 25.632538 -6.346016c14.156464 0 25.632538 2.8412094 25.632538 6.346016l0 25.384079c0 3.5048065 -11.476074 6.346016 -25.632538 6.346016c-14.156464 0 -25.632538 -2.8412094 -25.632538 -6.346016z" fill-rule="nonzero"></path><path fill="#000000" fill-opacity="0.0" d="m409.73022 95.204285l0 0c0 3.5048141 -11.476074 6.3460236 -25.632538 6.3460236c-14.156464 0 -25.632538 -2.8412094 -25.632538 -6.3460236" fill-rule="nonzero"></path><path fill="#000000" fill-opacity="0.0" d="m358.46515 95.204285l0 0c0 -3.5048065 11.476074 -6.346016 25.632538 -6.346016c14.156464 0 25.632538 2.8412094 25.632538 6.346016l0 25.384079c0 3.5048065 -11.476074 6.346016 -25.632538 6.346016c-14.156464 0 -25.632538 -2.8412094 -25.632538 -6.346016z" fill-rule="nonzero"></path><path stroke="#cc0000" stroke-width="4.0" stroke-linejoin="round" stroke-linecap="butt" d="m409.73022 95.204285l0 0c0 3.5048141 -11.476074 6.3460236 -25.632538 6.3460236c-14.156464 0 -25.632538 -2.8412094 -25.632538 -6.3460236" fill-rule="nonzero"></path><path stroke="#cc0000" stroke-width="4.0" stroke-linejoin="round" stroke-linecap="butt" d="m358.46515 95.204285l0 0c0 -3.5048065 11.476074 -6.346016 25.632538 -6.346016c14.156464 0 25.632538 2.8412094 25.632538 6.346016l0 25.384079c0 3.5048065 -11.476074 6.346016 -25.632538 6.346016c-14.156464 0 -25.632538 -2.8412094 -25.632538 -6.346016z" fill-rule="nonzero"></path><path fill="#ffffff" d="m298.48615 146.35521l0 0c0 -3.5048065 11.476074 -6.3460236 25.632538 -6.3460236c14.156464 0 25.632538 2.841217 25.632538 6.3460236l0 25.384079c0 3.5048065 -11.476074 6.3460083 -25.632538 6.3460083c-14.156464 0 -25.632538 -2.8412018 -25.632538 -6.3460083z" fill-rule="nonzero"></path><path fill="#000000" fill-opacity="0.0" d="m349.75122 146.35521l0 0c0 3.5048065 -11.476074 6.3460083 -25.632538 6.3460083c-14.156464 0 -25.632538 -2.8412018 -25.632538 -6.3460083" fill-rule="nonzero"></path><path fill="#000000" fill-opacity="0.0" d="m298.48615 146.35521l0 0c0 -3.5048065 11.476074 -6.3460236 25.632538 -6.3460236c14.156464 0 25.632538 2.841217 25.632538 6.3460236l0 25.384079c0 3.5048065 -11.476074 6.3460083 -25.632538 6.3460083c-14.156464 0 -25.632538 -2.8412018 -25.632538 -6.3460083z" fill-rule="nonzero"></path><path stroke="#cc0000" stroke-width="4.0" stroke-linejoin="round" stroke-linecap="butt" d="m349.75122 146.35521l0 0c0 3.5048065 -11.476074 6.3460083 -25.632538 6.3460083c-14.156464 0 -25.632538 -2.8412018 -25.632538 -6.3460083" fill-rule="nonzero"></path><path stroke="#cc0000" stroke-width="4.0" stroke-linejoin="round" stroke-linecap="butt" d="m298.48615 146.35521l0 0c0 -3.5048065 11.476074 -6.3460236 25.632538 -6.3460236c14.156464 0 25.632538 2.841217 25.632538 6.3460236l0 25.384079c0 3.5048065 -11.476074 6.3460083 -25.632538 6.3460083c-14.156464 0 -25.632538 -2.8412018 -25.632538 -6.3460083z" fill-rule="nonzero"></path><path fill="#ffffff" d="m418.4436 146.35521l0 0c0 -3.5048065 11.476074 -6.3460236 25.632538 -6.3460236c14.156464 0 25.632568 2.841217 25.632568 6.3460236l0 25.384079c0 3.5048065 -11.476105 6.3460083 -25.632568 6.3460083c-14.156464 0 -25.632538 -2.8412018 -25.632538 -6.3460083z" fill-rule="nonzero"></path><path fill="#000000" fill-opacity="0.0" d="m469.7087 146.35521l0 0c0 3.5048065 -11.476105 6.3460083 -25.632568 6.3460083c-14.156464 0 -25.632538 -2.8412018 -25.632538 -6.3460083" fill-rule="nonzero"></path><path fill="#000000" fill-opacity="0.0" d="m418.4436 146.35521l0 0c0 -3.5048065 11.476074 -6.3460236 25.632538 -6.3460236c14.156464 0 25.632568 2.841217 25.632568 6.3460236l0 25.384079c0 3.5048065 -11.476105 6.3460083 -25.632568 6.3460083c-14.156464 0 -25.632538 -2.8412018 -25.632538 -6.3460083z" fill-rule="nonzero"></path><path stroke="#cc0000" stroke-width="4.0" stroke-linejoin="round" stroke-linecap="butt" d="m469.7087 146.35521l0 0c0 3.5048065 -11.476105 6.3460083 -25.632568 6.3460083c-14.156464 0 -25.632538 -2.8412018 -25.632538 -6.3460083" fill-rule="nonzero"></path><path stroke="#cc0000" stroke-width="4.0" stroke-linejoin="round" stroke-linecap="butt" d="m418.4436 146.35521l0 0c0 -3.5048065 11.476074 -6.3460236 25.632538 -6.3460236c14.156464 0 25.632568 2.841217 25.632568 6.3460236l0 25.384079c0 3.5048065 -11.476105 6.3460083 -25.632568 6.3460083c-14.156464 0 -25.632538 -2.8412018 -25.632538 -6.3460083z" fill-rule="nonzero"></path><path fill="#000000" fill-opacity="0.0" d="m355.2467 159.04724l10.275116 -10.275101l0 7.5036316l15.693726 0l0 0l0.11010742 0l0 -14.701462l-7.5036316 0l10.275085 -10.275101l10.275116 10.275101l-7.5036316 0l0 14.701462l0.11010742 0l0 0l15.693726 0l0 -7.5036316l10.275085 10.275101l-10.275085 10.275101l0 -7.5036316l-15.693726 0l0 0l-0.11010742 0l0 14.701462l7.5036316 0l-10.275116 10.275101l-10.275085 -10.275101l7.5036316 0l0 -14.701462l-0.11010742 0l0 0l-15.693726 0l0 7.5036316z" fill-rule="nonzero"></path><path stroke="#666666" stroke-width="3.0" stroke-linejoin="round" stroke-linecap="butt" d="m355.2467 159.04724l10.275116 -10.275101l0 7.5036316l15.693726 0l0 0l0.11010742 0l0 -14.701462l-7.5036316 0l10.275085 -10.275101l10.275116 10.275101l-7.5036316 0l0 14.701462l0.11010742 0l0 0l15.693726 0l0 -7.5036316l10.275085 10.275101l-10.275085 10.275101l0 -7.5036316l-15.693726 0l0 0l-0.11010742 0l0 14.701462l7.5036316 0l-10.275116 10.275101l-10.275085 -10.275101l7.5036316 0l0 -14.701462l-0.11010742 0l0 0l-15.693726 0l0 7.5036316z" fill-rule="nonzero"></path><path fill="#ffffff" d="m358.46515 197.5048l0 0c0 -3.5048065 11.476074 -6.3460083 25.632538 -6.3460083c14.156464 0 25.632538 2.8412018 25.632538 6.3460083l0 25.384079c0 3.5048065 -11.476074 6.3460236 -25.632538 6.3460236c-14.156464 0 -25.632538 -2.841217 -25.632538 -6.3460236z" fill-rule="nonzero"></path><path fill="#000000" fill-opacity="0.0" d="m409.73022 197.5048l0 0c0 3.5048218 -11.476074 6.3460236 -25.632538 6.3460236c-14.156464 0 -25.632538 -2.8412018 -25.632538 -6.3460236" fill-rule="nonzero"></path><path fill="#000000" fill-opacity="0.0" d="m358.46515 197.5048l0 0c0 -3.5048065 11.476074 -6.3460083 25.632538 -6.3460083c14.156464 0 25.632538 2.8412018 25.632538 6.3460083l0 25.384079c0 3.5048065 -11.476074 6.3460236 -25.632538 6.3460236c-14.156464 0 -25.632538 -2.841217 -25.632538 -6.3460236z" fill-rule="nonzero"></path><path stroke="#cc0000" stroke-width="4.0" stroke-linejoin="round" stroke-linecap="butt" d="m409.73022 197.5048l0 0c0 3.5048218 -11.476074 6.3460236 -25.632538 6.3460236c-14.156464 0 -25.632538 -2.8412018 -25.632538 -6.3460236" fill-rule="nonzero"></path><path stroke="#cc0000" stroke-width="4.0" stroke-linejoin="round" stroke-linecap="butt" d="m358.46515 197.5048l0 0c0 -3.5048065 11.476074 -6.3460083 25.632538 -6.3460083c14.156464 0 25.632538 2.8412018 25.632538 6.3460083l0 25.384079c0 3.5048065 -11.476074 6.3460236 -25.632538 6.3460236c-14.156464 0 -25.632538 -2.841217 -25.632538 -6.3460236z" fill-rule="nonzero"></path><path fill="#000000" fill-opacity="0.0" d="m9.099737 193.3966l0 0c0 -8.065552 6.538419 -14.603958 14.603968 -14.603958l152.65033 0c3.8732147 0 7.587799 1.53862 10.326569 4.277405c2.7387695 2.7387695 4.277405 6.4533386 4.277405 10.326553l0 58.414124c0 8.065552 -6.5384216 14.603973 -14.603973 14.603973l-152.65033 0c-8.065549 0 -14.603968 -6.5384216 -14.603968 -14.603973z" fill-rule="nonzero"></path><path stroke="#b7b7b7" stroke-width="3.0" stroke-linejoin="round" stroke-linecap="butt" d="m9.099737 193.3966l0 0c0 -8.065552 6.538419 -14.603958 14.603968 -14.603958l152.65033 0c3.8732147 0 7.587799 1.53862 10.326569 4.277405c2.7387695 2.7387695 4.277405 6.4533386 4.277405 10.326553l0 58.414124c0 8.065552 -6.5384216 14.603973 -14.603973 14.603973l-152.65033 0c-8.065549 0 -14.603968 -6.5384216 -14.603968 -14.603973z" fill-rule="nonzero"></path><path fill="#000000" d="m23.892717 249.05733l0 -13.59375l1.8125 0l0 5.578125l7.062502 0l0 -5.578125l1.796875 0l0 13.59375l-1.796875 0l0 -6.40625l-7.062502 0l0 6.40625l-1.8125 0zm12.582323 -4.921875q0 -2.734375 1.53125 -4.0625q1.265625 -1.09375 3.09375 -1.09375q2.03125 0 3.3125 1.34375q1.296875 1.328125 1.296875 3.671875q0 1.90625 -0.578125 3.0q-0.5625 1.078125 -1.65625 1.6875q-1.078125 0.59375 -2.375 0.59375q-2.0625 0 -3.34375 -1.328125q-1.28125 -1.328125 -1.28125 -3.8125zm1.71875 0q0 1.890625 0.828125 2.828125q0.828125 0.9375 2.078125 0.9375q1.25 0 2.0625 -0.9375q0.828125 -0.953125 0.828125 -2.890625q0 -1.828125 -0.828125 -2.765625q-0.828125 -0.9375 -2.0625 -0.9375q-1.25 0 -2.078125 0.9375q-0.828125 0.9375 -0.828125 2.828125zm8.610092 1.984375l1.65625 -0.265625q0.140625 1.0 0.765625 1.53125q0.640625 0.515625 1.78125 0.515625q1.15625 0 1.703125 -0.46875q0.5625 -0.46875 0.5625 -1.09375q0 -0.5625 -0.484375 -0.890625q-0.34375 -0.21875 -1.703125 -0.5625q-1.84375 -0.46875 -2.5625 -0.796875q-0.703125 -0.34375 -1.078125 -0.9375q-0.359375 -0.609375 -0.359375 -1.328125q0 -0.65625 0.296875 -1.21875q0.3125 -0.5625 0.828125 -0.9375q0.390625 -0.28125 1.0625 -0.484375q0.671875 -0.203125 1.4375 -0.203125q1.171875 0 2.046875 0.34375q0.875 0.328125 1.28125 0.90625q0.421875 0.5625 0.578125 1.515625l-1.625 0.21875q-0.109375 -0.75 -0.65625 -1.171875q-0.53125 -0.4375 -1.5 -0.4375q-1.15625 0 -1.640625 0.390625q-0.484375 0.375 -0.484375 0.875q0 0.328125 0.203125 0.59375q0.203125 0.265625 0.640625 0.4375q0.25 0.09375 1.46875 0.4375q1.765625 0.46875 2.46875 0.765625q0.703125 0.296875 1.09375 0.875q0.40625 0.578125 0.40625 1.4375q0 0.828125 -0.484375 1.578125q-0.484375 0.734375 -1.40625 1.140625q-0.921875 0.390625 -2.078125 0.390625q-1.921875 0 -2.9375 -0.796875q-1.0 -0.796875 -1.28125 -2.359375zm13.65625 1.4375l0.234375 1.484375q-0.703125 0.140625 -1.265625 0.140625q-0.90625 0 -1.40625 -0.28125q-0.5 -0.296875 -0.703125 -0.75q-0.203125 -0.46875 -0.203125 -1.984375l0 -5.65625l-1.234375 0l0 -1.3125l1.234375 0l0 -2.4375l1.65625 -1.0l0 3.4375l1.6875 0l0 1.3125l-1.6875 0l0 5.75q0 0.71875 0.078125 0.921875q0.09375 0.203125 0.296875 0.328125q0.203125 0.125 0.578125 0.125q0.265625 0 0.734375 -0.078125zm7.355175 1.5l-1.671875 0l0 -10.640625q-0.59375 0.578125 -1.578125 1.15625q-0.9843712 0.5625 -1.7656212 0.859375l0 -1.625q1.4062462 -0.65625 2.4531212 -1.59375q1.046875 -0.9375 1.484375 -1.8125l1.078125 0l0 13.65625z" fill-rule="nonzero"></path><path fill="#ffffff" d="m132.23395 194.23856l0 0c0 -3.6847382 10.915634 -6.6717987 24.380768 -6.6717987c13.465118 0 24.380753 2.9870605 24.380753 6.6717987l0 26.687164c0 3.6847382 -10.915634 6.6717987 -24.380753 6.6717987c-13.465134 0 -24.380768 -2.9870605 -24.380768 -6.6717987z" fill-rule="nonzero"></path><path fill="#000000" fill-opacity="0.0" d="m180.99547 194.23856l0 0c0 3.684723 -10.915634 6.6717834 -24.380753 6.6717834c-13.465134 0 -24.380768 -2.9870605 -24.380768 -6.6717834" fill-rule="nonzero"></path><path fill="#000000" fill-opacity="0.0" d="m132.23395 194.23856l0 0c0 -3.6847382 10.915634 -6.6717987 24.380768 -6.6717987c13.465118 0 24.380753 2.9870605 24.380753 6.6717987l0 26.687164c0 3.6847382 -10.915634 6.6717987 -24.380753 6.6717987c-13.465134 0 -24.380768 -2.9870605 -24.380768 -6.6717987z" fill-rule="nonzero"></path><path stroke="#660000" stroke-width="4.0" stroke-linejoin="round" stroke-linecap="butt" d="m180.99547 194.23856l0 0c0 3.684723 -10.915634 6.6717834 -24.380753 6.6717834c-13.465134 0 -24.380768 -2.9870605 -24.380768 -6.6717834" fill-rule="nonzero"></path><path stroke="#660000" stroke-width="4.0" stroke-linejoin="round" stroke-linecap="butt" d="m132.23395 194.23856l0 0c0 -3.6847382 10.915634 -6.6717987 24.380768 -6.6717987c13.465118 0 24.380753 2.9870605 24.380753 6.6717987l0 26.687164c0 3.6847382 -10.915634 6.6717987 -24.380753 6.6717987c-13.465134 0 -24.380768 -2.9870605 -24.380768 -6.6717987z" fill-rule="nonzero"></path><path fill="#000000" fill-opacity="0.0" d="m754.80316 26.752022l0 0c0 -8.02206 -6.503174 -14.525224 -14.5252075 -14.525224l-152.80786 0c-3.852295 0 -7.546875 1.5303316 -10.270874 4.25434c-2.723999 2.7240067 -4.2543335 6.4185543 -4.2543335 10.270884l0 58.09916c0 8.022057 6.503174 14.525223 14.5252075 14.525223l152.80786 0c8.022034 0 14.5252075 -6.503166 14.5252075 -14.525223z" fill-rule="nonzero"></path><path stroke="#b7b7b7" stroke-width="3.0" stroke-linejoin="round" stroke-linecap="butt" d="m754.80316 26.752022l0 0c0 -8.02206 -6.503174 -14.525224 -14.5252075 -14.525224l-152.80786 0c-3.852295 0 -7.546875 1.5303316 -10.270874 4.25434c-2.723999 2.7240067 -4.2543335 6.4185543 -4.2543335 10.270884l0 58.09916c0 8.022057 6.503174 14.525223 14.5252075 14.525223l152.80786 0c8.022034 0 14.5252075 -6.503166 14.5252075 -14.525223z" fill-rule="nonzero"></path><path fill="#000000" d="m694.3287 43.40109l0 -13.59375l1.8125 0l0 5.578125l7.0625 0l0 -5.578125l1.796875 0l0 13.59375l-1.796875 0l0 -6.40625l-7.0625 0l0 6.40625l-1.8125 0zm12.582336 -4.921875q0 -2.734375 1.53125 -4.0625q1.265625 -1.09375 3.09375 -1.09375q2.03125 0 3.3125 1.34375q1.296875 1.328125 1.296875 3.671875q0 1.90625 -0.578125 3.0q-0.5625 1.078125 -1.65625 1.6875q-1.078125 0.59375 -2.375 0.59375q-2.0625 0 -3.34375 -1.328125q-1.28125 -1.328125 -1.28125 -3.8125zm1.71875 0q0 1.890625 0.828125 2.828125q0.828125 0.9375 2.078125 0.9375q1.25 0 2.0625 -0.9375q0.828125 -0.953125 0.828125 -2.890625q0 -1.828125 -0.828125 -2.765625q-0.828125 -0.9375 -2.0625 -0.9375q-1.25 0 -2.078125 0.9375q-0.828125 0.9375 -0.828125 2.828125zm8.610107 1.984375l1.65625 -0.265625q0.140625 1.0 0.765625 1.53125q0.640625 0.515625 1.78125 0.515625q1.15625 0 1.703125 -0.46875q0.5625 -0.46875 0.5625 -1.09375q0 -0.5625 -0.484375 -0.890625q-0.34375 -0.21875 -1.703125 -0.5625q-1.84375 -0.46875 -2.5625 -0.796875q-0.703125 -0.34375 -1.078125 -0.9375q-0.359375 -0.609375 -0.359375 -1.328125q0 -0.65625 0.296875 -1.21875q0.3125 -0.5625 0.828125 -0.9375q0.390625 -0.28125 1.0625 -0.484375q0.671875 -0.203125 1.4375 -0.203125q1.171875 0 2.046875 0.34375q0.875 0.328125 1.28125 0.90625q0.421875 0.5625 0.578125 1.515625l-1.625 0.21875q-0.109375 -0.75 -0.65625 -1.171875q-0.53125 -0.4375 -1.5 -0.4375q-1.15625 0 -1.640625 0.390625q-0.484375 0.375 -0.484375 0.875q0 0.328125 0.203125 0.59375q0.203125 0.265625 0.640625 0.4375q0.25 0.09375 1.46875 0.4375q1.765625 0.46875 2.46875 0.765625q0.703125 0.296875 1.09375 0.875q0.40625 0.578125 0.40625 1.4375q0 0.828125 -0.484375 1.578125q-0.484375 0.734375 -1.40625 1.140625q-0.921875 0.390625 -2.078125 0.390625q-1.921875 0 -2.9375 -0.796875q-1.0 -0.796875 -1.28125 -2.359375zm13.65625 1.4375l0.234375 1.484375q-0.703125 0.140625 -1.265625 0.140625q-0.90625 0 -1.40625 -0.28125q-0.5 -0.296875 -0.703125 -0.75q-0.203125 -0.46875 -0.203125 -1.984375l0 -5.65625l-1.234375 0l0 -1.3125l1.234375 0l0 -2.4375l1.65625 -1.0l0 3.4375l1.6875 0l0 1.3125l-1.6875 0l0 5.75q0 0.71875 0.078125 0.921875q0.09375 0.203125 0.296875 0.328125q0.203125 0.125 0.578125 0.125q0.265625 0 0.734375 -0.078125zm9.839539 -0.109375l0 1.609375l-8.984375 0q-0.015625 -0.609375 0.1875 -1.15625q0.34375 -0.921875 1.09375 -1.8125q0.765625 -0.890625 2.1875 -2.0625q2.21875 -1.8125 3.0 -2.875q0.78125 -1.0625 0.78125 -2.015625q0 -0.984375 -0.71875 -1.671875q-0.703125 -0.6875 -1.84375 -0.6875q-1.203125 0 -1.9375 0.734375q-0.71875 0.71875 -0.71875 2.0l-1.71875 -0.171875q0.171875 -1.921875 1.328125 -2.921875q1.15625 -1.015625 3.09375 -1.015625q1.953125 0 3.09375 1.09375q1.140625 1.078125 1.140625 2.6875q0 0.8125 -0.34375 1.609375q-0.328125 0.78125 -1.109375 1.65625q-0.765625 0.859375 -2.5625 2.390625q-1.5 1.265625 -1.9375 1.71875q-0.421875 0.4375 -0.703125 0.890625l6.671875 0z" fill-rule="nonzero"></path><path fill="#ffffff" d="m633.84515 57.240036l0 0c0 -3.6847305 -10.915649 -6.671795 -24.380798 -6.671795c-13.465088 0 -24.380737 2.9870644 -24.380737 6.671795l0 26.687172c0 3.6847305 10.915649 6.671791 24.380737 6.671791c13.465149 0 24.380798 -2.9870605 24.380798 -6.671791z" fill-rule="nonzero"></path><path fill="#000000" fill-opacity="0.0" d="m585.0836 57.240036l0 0c0 3.6847267 10.915649 6.671791 24.380737 6.671791c13.465149 0 24.380798 -2.9870644 24.380798 -6.671791" fill-rule="nonzero"></path><path fill="#000000" fill-opacity="0.0" d="m633.84515 57.240036l0 0c0 -3.6847305 -10.915649 -6.671795 -24.380798 -6.671795c-13.465088 0 -24.380737 2.9870644 -24.380737 6.671795l0 26.687172c0 3.6847305 10.915649 6.671791 24.380737 6.671791c13.465149 0 24.380798 -2.9870605 24.380798 -6.671791z" fill-rule="nonzero"></path><path stroke="#660000" stroke-width="4.0" stroke-linejoin="round" stroke-linecap="butt" d="m585.0836 57.240036l0 0c0 3.6847267 10.915649 6.671791 24.380737 6.671791c13.465149 0 24.380798 -2.9870644 24.380798 -6.671791" fill-rule="nonzero"></path><path stroke="#660000" stroke-width="4.0" stroke-linejoin="round" stroke-linecap="butt" d="m633.84515 57.240036l0 0c0 -3.6847305 -10.915649 -6.671795 -24.380798 -6.671795c-13.465088 0 -24.380737 2.9870644 -24.380737 6.671795l0 26.687172c0 3.6847305 10.915649 6.671791 24.380737 6.671791c13.465149 0 24.380798 -2.9870605 24.380798 -6.671791z" fill-rule="nonzero"></path><path fill="#000000" fill-opacity="0.0" d="m754.80316 193.87535l0 0c0 -8.0655365 -6.538452 -14.603958 -14.604004 -14.603958l-152.65033 0c-3.873169 0 -7.5877686 1.53862 -10.326538 4.277405c-2.7387695 2.7387695 -4.277405 6.453354 -4.277405 10.326553l0 58.414124c0 8.0655365 6.538391 14.603958 14.603943 14.603958l152.65033 0c8.065552 0 14.604004 -6.5384216 14.604004 -14.603958z" fill-rule="nonzero"></path><path stroke="#b7b7b7" stroke-width="3.0" stroke-linejoin="round" stroke-linecap="butt" d="m754.80316 193.87535l0 0c0 -8.0655365 -6.538452 -14.603958 -14.604004 -14.603958l-152.65033 0c-3.873169 0 -7.5877686 1.53862 -10.326538 4.277405c-2.7387695 2.7387695 -4.277405 6.453354 -4.277405 10.326553l0 58.414124c0 8.0655365 6.538391 14.603958 14.603943 14.603958l152.65033 0c8.065552 0 14.604004 -6.5384216 14.604004 -14.603958z" fill-rule="nonzero"></path><path fill="#000000" d="m694.3056 249.53609l0 -13.59375l1.8125 0l0 5.578125l7.0625 0l0 -5.578125l1.796875 0l0 13.59375l-1.796875 0l0 -6.40625l-7.0625 0l0 6.40625l-1.8125 0zm12.582336 -4.921875q0 -2.734375 1.53125 -4.0625q1.265625 -1.09375 3.09375 -1.09375q2.03125 0 3.3125 1.34375q1.296875 1.328125 1.296875 3.671875q0 1.90625 -0.578125 3.0q-0.5625 1.078125 -1.65625 1.6875q-1.078125 0.59375 -2.375 0.59375q-2.0625 0 -3.34375 -1.328125q-1.28125 -1.328125 -1.28125 -3.8125zm1.71875 0q0 1.890625 0.828125 2.828125q0.828125 0.9375 2.078125 0.9375q1.25 0 2.0625 -0.9375q0.828125 -0.953125 0.828125 -2.890625q0 -1.828125 -0.828125 -2.765625q-0.828125 -0.9375 -2.0625 -0.9375q-1.25 0 -2.078125 0.9375q-0.828125 0.9375 -0.828125 2.828125zm8.610107 1.984375l1.65625 -0.265625q0.140625 1.0 0.765625 1.53125q0.640625 0.515625 1.78125 0.515625q1.15625 0 1.703125 -0.46875q0.5625 -0.46875 0.5625 -1.09375q0 -0.5625 -0.484375 -0.890625q-0.34375 -0.21875 -1.703125 -0.5625q-1.84375 -0.46875 -2.5625 -0.796875q-0.703125 -0.34375 -1.078125 -0.9375q-0.359375 -0.609375 -0.359375 -1.328125q0 -0.65625 0.296875 -1.21875q0.3125 -0.5625 0.828125 -0.9375q0.390625 -0.28125 1.0625 -0.484375q0.671875 -0.203125 1.4375 -0.203125q1.171875 0 2.046875 0.34375q0.875 0.328125 1.28125 0.90625q0.421875 0.5625 0.578125 1.515625l-1.625 0.21875q-0.109375 -0.75 -0.65625 -1.171875q-0.53125 -0.4375 -1.5 -0.4375q-1.15625 0 -1.640625 0.390625q-0.484375 0.375 -0.484375 0.875q0 0.328125 0.203125 0.59375q0.203125 0.265625 0.640625 0.4375q0.25 0.09375 1.46875 0.4375q1.765625 0.46875 2.46875 0.765625q0.703125 0.296875 1.09375 0.875q0.40625 0.578125 0.40625 1.4375q0 0.828125 -0.484375 1.578125q-0.484375 0.734375 -1.40625 1.140625q-0.921875 0.390625 -2.078125 0.390625q-1.921875 0 -2.9375 -0.796875q-1.0 -0.796875 -1.28125 -2.359375zm13.65625 1.4375l0.234375 1.484375q-0.703125 0.140625 -1.265625 0.140625q-0.90625 0 -1.40625 -0.28125q-0.5 -0.296875 -0.703125 -0.75q-0.203125 -0.46875 -0.203125 -1.984375l0 -5.65625l-1.234375 0l0 -1.3125l1.234375 0l0 -2.4375l1.65625 -1.0l0 3.4375l1.6875 0l0 1.3125l-1.6875 0l0 5.75q0 0.71875 0.078125 0.921875q0.09375 0.203125 0.296875 0.328125q0.203125 0.125 0.578125 0.125q0.265625 0 0.734375 -0.078125zm1.0739136 -2.09375l1.671875 -0.21875q0.28125 1.421875 0.96875 2.046875q0.703125 0.625 1.6875 0.625q1.1875 0 2.0 -0.8125q0.8125 -0.828125 0.8125 -2.03125q0 -1.140625 -0.765625 -1.890625q-0.75 -0.75 -1.90625 -0.75q-0.46875 0 -1.171875 0.1875l0.1875 -1.46875q0.15625 0.015625 0.265625 0.015625q1.0625 0 1.90625 -0.546875q0.859375 -0.5625 0.859375 -1.71875q0 -0.921875 -0.625 -1.515625q-0.609375 -0.609375 -1.59375 -0.609375q-0.96875 0 -1.625 0.609375q-0.640625 0.609375 -0.828125 1.84375l-1.671875 -0.296875q0.296875 -1.6875 1.375 -2.609375q1.09375 -0.921875 2.71875 -0.921875q1.109375 0 2.046875 0.484375q0.9375 0.46875 1.421875 1.296875q0.5 0.828125 0.5 1.75q0 0.890625 -0.46875 1.609375q-0.46875 0.71875 -1.40625 1.15625q1.21875 0.265625 1.875 1.15625q0.671875 0.875 0.671875 2.1875q0 1.78125 -1.296875 3.015625q-1.296875 1.234375 -3.28125 1.234375q-1.796875 0 -2.984375 -1.0625q-1.171875 -1.0625 -1.34375 -2.765625z" fill-rule="nonzero"></path><path fill="#ffffff" d="m633.84515 197.47888l0 0c0 -3.6847382 -10.915649 -6.6717987 -24.380798 -6.6717987c-13.465088 0 -24.380737 2.9870605 -24.380737 6.6717987l0 26.687164c0 3.6847382 10.915649 6.6717987 24.380737 6.6717987c13.465149 0 24.380798 -2.9870605 24.380798 -6.6717987z" fill-rule="nonzero"></path><path fill="#000000" fill-opacity="0.0" d="m585.0836 197.47888l0 0c0 3.684723 10.915649 6.6717834 24.380737 6.6717834c13.465149 0 24.380798 -2.9870605 24.380798 -6.6717834" fill-rule="nonzero"></path><path fill="#000000" fill-opacity="0.0" d="m633.84515 197.47888l0 0c0 -3.6847382 -10.915649 -6.6717987 -24.380798 -6.6717987c-13.465088 0 -24.380737 2.9870605 -24.380737 6.6717987l0 26.687164c0 3.6847382 10.915649 6.6717987 24.380737 6.6717987c13.465149 0 24.380798 -2.9870605 24.380798 -6.6717987z" fill-rule="nonzero"></path><path stroke="#660000" stroke-width="4.0" stroke-linejoin="round" stroke-linecap="butt" d="m585.0836 197.47888l0 0c0 3.684723 10.915649 6.6717834 24.380737 6.6717834c13.465149 0 24.380798 -2.9870605 24.380798 -6.6717834" fill-rule="nonzero"></path><path stroke="#660000" stroke-width="4.0" stroke-linejoin="round" stroke-linecap="butt" d="m633.84515 197.47888l0 0c0 -3.6847382 -10.915649 -6.6717987 -24.380798 -6.6717987c-13.465088 0 -24.380737 2.9870605 -24.380737 6.6717987l0 26.687164c0 3.6847382 10.915649 6.6717987 24.380737 6.6717987c13.465149 0 24.380798 -2.9870605 24.380798 -6.6717987z" fill-rule="nonzero"></path><path fill="#000000" fill-opacity="0.0" d="m193.92651 93.2231l99.62204 46.771652" fill-rule="nonzero"></path><path stroke="#666666" stroke-width="4.0" stroke-linejoin="round" stroke-linecap="butt" d="m215.65132 103.42271l56.17241 26.372429" fill-rule="evenodd"></path><path fill="#666666" stroke="#666666" stroke-width="4.0" stroke-linecap="butt" d="m218.45917 97.44211l-19.239395 -1.7338715l13.623718 13.695068z" fill-rule="evenodd"></path><path fill="#666666" stroke="#666666" stroke-width="4.0" stroke-linecap="butt" d="m269.0159 135.77574l19.23938 1.7338715l-13.623718 -13.695068z" fill-rule="evenodd"></path><path fill="#000000" fill-opacity="0.0" d="m292.06824 175.80577l-95.055115 12.850403" fill-rule="nonzero"></path><path stroke="#666666" stroke-width="4.0" stroke-linejoin="round" stroke-linecap="butt" d="m268.2846 179.02106l-47.48784 6.4198303" fill-rule="evenodd"></path><path fill="#666666" stroke="#666666" stroke-width="4.0" stroke-linecap="butt" d="m269.16974 185.56844l17.103607 -8.979263l-18.87387 -4.1154785z" fill-rule="evenodd"></path><path fill="#666666" stroke="#666666" stroke-width="4.0" stroke-linecap="butt" d="m219.91164 178.89351l-17.103622 8.979248l18.873886 4.115494z" fill-rule="evenodd"></path><path fill="#000000" fill-opacity="0.0" d="m476.66403 174.8084l91.93704 14.582687" fill-rule="nonzero"></path><path stroke="#666666" stroke-width="4.0" stroke-linejoin="round" stroke-linecap="butt" d="m500.3677 178.56818l44.529694 7.0631256" fill-rule="evenodd"></path><path fill="#666666" stroke="#666666" stroke-width="4.0" stroke-linecap="butt" d="m501.40274 172.04283l-18.963287 3.6816406l16.89325 9.369064z" fill-rule="evenodd"></path><path fill="#666666" stroke="#666666" stroke-width="4.0" stroke-linecap="butt" d="m543.86237 192.15665l18.963257 -3.6816406l-16.893188 -9.369064z" fill-rule="evenodd"></path><path fill="#000000" fill-opacity="0.0" d="m476.66403 140.97638l90.4252 -52.377953" fill-rule="nonzero"></path><path stroke="#666666" stroke-width="4.0" stroke-linejoin="round" stroke-linecap="butt" d="m497.43164 128.94695l48.890015 -28.319084" fill-rule="evenodd"></path><path fill="#666666" stroke="#666666" stroke-width="4.0" stroke-linecap="butt" d="m494.12006 123.229866l-12.395996 14.815529l19.019135 -3.381363z" fill-rule="evenodd"></path><path fill="#666666" stroke="#666666" stroke-width="4.0" stroke-linecap="butt" d="m549.63324 106.34494l12.395996 -14.8155365l-19.019165 3.3813705z" fill-rule="evenodd"></path></g></svg>

