<svg xmlns="http://www.w3.org/2000/svg" width="2048" height="2048" viewBox="0 0 2048 2048"><path fill="#FFF"  d="M396.784 408.179c0-15.835 17.104-27.036 29.792-34.08 25.505-14.218 54.731-22.575 83.081-29.799 93.89-23.801 192.03-33.376 288.633-39.767 125.735-8.313 252.225-9.01 378.141-2.626 102.108 5.208 205.275 14.174 305.113 35.878 32.47 7.087 65.28 15.312 95.56 28.697 15.573 6.913 36.219 16.626 43.219 32.948 6.131 14.131-4.286 26.688-15.573 35.001-20.472 15.184-46.638 23.67-71.134 30.932-87.42 25.983-180.691 36.009-271.521 43.4-124.689 10.192-250.258 12.165-375.297 7.609-107.062-3.939-214.866-12.071-320.086-31.89-35.741-6.738-71.576-14.746-105.699-27.043-19.818-7.174-43.097-16.053-56.923-32.2-4.158-4.851-7.306-10.669-7.306-17.06m222.867 683.61c-29.749-55.653-34.393-121.716-7.966-179.466 21.131-46.114 60.334-83.828 108.334-104.568 27.341-11.81 57.22-18.026 87.193-18.026 0 0 68.862-4.635 134.708 45.157 281.146 196.614 594.226 408.368 718.479 481.525 8.574-41.74 127.229-705.488 139.127-775.977 5.252-31.366 11.025-62.776 15.139-94.325 3.062-23.141 4.287-47.601-5.252-69.652-9.357-21.61-29.132-39.593-47.333-54.776-77.002-64.837-182.708-93.012-280.183-115.848-116.905-27.348-236.692-42.27-356.834-47.427-119.75-5.165-239.624-.442-358.933 10.584-118.523 10.939-237.439 29.227-349.705 68.297-72.411 25.157-159.69 54.993-201.475 121.542-10.148 16.097-19.226 33.902-19.339 52.715-.818 135.161 245.841 1279.373 261.372 1339.052a552.161 552.161 0 0 0 3.41 12.774c41.174 67.725 114.323 108.15 189.883 132.83 82.341 26.947 170.5 40.333 256.946 47.507 96.959 8.052 195.092 5.955 291.164-9.532 95.552-15.574 191.108-44.278 275.285-90.915 37.099-20.564 65.89-51.366 82.863-88.993 13.564-30.097 20.036-64.054 27.914-95.725 3.146-12.688 6.209-25.375 9.271-37.977-270.729-99.575-889.416-446.96-896.191-450.897.003.001-60.199-44.801-77.877-77.879"/><path fill="#FFF"  d="M1965.166 1575.328V850.291H649.922v725.037z" filter="url(#Adobe_OpacityMaskFilter)"/><path fill="#FFF"  d="M1921.589 1202.832c-16.714-32.897-49.27-72.891-92.671-65.977-40.688 6.392-60.897 47.775-63.96 83.131 28.264 31.149 59.76 74.021 54.159 117.511-5.948 44.895-51.184 62.053-93.099 65.018-19.861 1.405-40.962 1.956-59.854-5.165-15.934-6.006-30.801-14.783-45.497-23.184-18.644-10.504-36.931-21.53-55.132-32.73-66.759-41.21-621.174-417.03-680.939-458.856a120.57 120.57 0 0 0-2.8-1.93c-43.054-33.34-89.95-30.271-89.95-30.271-83.828 0-148.144 71.663-141.404 150.326 2.009 24.234 11.635 46.811 29.488 64.054 11.287 10.845 23.714 20.471 36.487 29.749 38.767 28.349 80.15 53.463 121.804 77.967 54.95 32.462 293.573 159.519 357.357 191.275a7692.28 7692.28 0 0 0 189.708 91.264c54.159 25.026 108.674 49.531 163.979 72.366 68.688 28.437 139.3 52.767 215.519 47.166 71.315-5.252 134.049-40.601 168.963-100.89 38.148-66.062 40.166-143.855 13.564-214.031-7.347-19.427-16.363-38.237-25.722-56.793-21.442-42.436 24.584 48.479 0 0"/></svg>