<svg xmlns="http://www.w3.org/2000/svg" xmlns:xlink="http://www.w3.org/1999/xlink" width="1391" height="780"><g transform="translate(-70.66666666666669 -70.66666666666667)"><path d="M1078.53 719.78l-26.3-45.26c-1.04-1.77-1.56-3.68-1.56-5.74s.52-3.97 1.57-5.73l26.2-45.37c1-1.8 2.4-3.22 4.2-4.26 1.8-1.03 3.7-1.54 5.8-1.52h52.47c2.07 0 4 .52 5.78 1.56 1.78 1.03 3.2 2.43 4.22 4.22l26.2 45.37c1.04 1.76 1.57 3.67 1.57 5.73 0 2.06-.53 3.97-1.58 5.74l-26.2 45.37c-1.03 1.77-2.44 3.17-4.22 4.2-1.78 1.04-3.7 1.56-5.77 1.57h-52.37c-2.06-.06-3.98-.6-5.76-1.65-1.78-1.05-3.2-2.46-4.24-4.24zm0 0" fill="#0e62c2"/><path d="M1136.2 655.26l-36.18 3.3-7 6.98 6 6-5.9 10.45 43.6 43.46h4.2c2.05 0 3.98-.52 5.76-1.56 1.78-1.03 3.2-2.43 4.22-4.22l18.3-31.5z" fill="#0851b0"/><path d="M1135.4 655.07h-41.38c-.22 0-.4.05-.6.15-.2.1-.35.25-.45.44-.1.2-.15.4-.14.6v8.48c0 .22.04.4.14.6.1.2.26.35.45.45.2.1.38.15.6.14h41.38c.22 0 .43-.05.62-.15.2-.1.34-.26.45-.45.1-.2.15-.4.14-.6v-8.48c.02-.22-.03-.4-.13-.6-.1-.2-.26-.35-.45-.45-.2-.1-.4-.16-.62-.15zm-6.38 7.98c-.7 0-1.28-.24-1.77-.73-.5-.5-.74-1.08-.74-1.76 0-.7.26-1.28.75-1.77.5-.5 1.07-.74 1.77-.74s1.28.24 1.76.73c.5.48.73 1.07.73 1.76 0 .68-.24 1.26-.73 1.75-.5.5-1.06.74-1.75.75zm0 0M1135.4 671.42h-41.38c-.33 0-.6.13-.83.36-.24.22-.37.5-.37.84v8.58c0 .2.04.4.14.6.1.2.26.34.45.44.2.1.38.16.6.15h41.38c.22 0 .43-.05.62-.16.2-.1.34-.25.45-.44.1-.2.15-.4.14-.6v-8.48c0-.34-.1-.64-.34-.9-.23-.24-.52-.37-.86-.4zm-6.38 8.08c-.7 0-1.28-.24-1.77-.73-.5-.5-.74-1.08-.74-1.76 0-.67.26-1.26.75-1.75.5-.5 1.07-.73 1.77-.73s1.28.24 1.76.73c.5.5.73 1.08.73 1.76 0 .7-.24 1.27-.73 1.76-.5.5-1.06.73-1.75.74zm0 0" fill="#fff"/><use xlink:href="#a" transform="matrix(1,0,0,1,1050.6666666666667,730.6666666666666) translate(22.779296875 16.69921875)"/><use xlink:href="#b" transform="matrix(1,0,0,1,1050.6666666666667,730.6666666666666) translate(93.5048828125 16.69921875)"/><path d="M621.07 699.47l42.3 10.08v-78.12l-42.3 10.08v57.97z" fill="#91352b"/><path d="M663.37 631.43l8.2 3.96v70.07l-8.2 4.08v-78.12zM639.57 645.35l-18.5-4.44v-30.23l18.5 9.12v25.55zM621.07 730.43l18.5-9v-25.68l-18.5 4.56v30.13M639.57 683.4l-18.5 2.27v-30.12l18.5 2.16v25.7zM621.07 699.47l-42.3 10.08v-78.12l42.3 10.08v57.97z" fill="#e15343"/><path d="M578.77 631.43l-8.1 3.96v70.07l8.1 4.08v-78.12z" fill="#91352b"/><path d="M602.67 645.35l18.4-4.44v-30.23l-18.4 9.12v25.55z" fill="none"/><path d="M621.07 730.43l-18.4-9v-25.68l18.4 4.56v30.13M602.67 683.4l18.4 2.27v-30.12l-18.4 2.16v25.7zM602.67 645.35l18.4-4.44v-30.23l-18.4 9.12v25.55z" fill="#91352b"/><path d="M639.57 645.35l-18.5 3.36-18.4-3.35 18.4-4.44 18.5 4.45z" fill="#64251e"/><path d="M639.57 695.75l-18.5-3.36-18.4 3.35 18.4 4.56 18.5-4.55z" fill="#ec9086"/><use xlink:href="#c" transform="matrix(1,0,0,1,570.6666666666666,730.6666666666666) translate(39 14.4)"/><path d="M852.7 716.66h27.13v-7.53H852.7v7.53zM852.7 704.68h27.13v-7.52H852.7v7.52zM816.35 686.13h-1.92 11.76v-6.68h25.9v13.47h27.13v-6.68h17.64c8.16 0 13.8-6.68 13.8-14 0-7.84-6.48-14.2-14.04-14.2h-1.68c.84-3.18 1.44-6.46 1.44-10.06.23-20.46-14.9-37.3-35.77-37.3-16.56 0-30.84 10.7-35.88 25.74-2.4-.85-5.28-1.38-8.28-1.38-14.28 0-25.8 11.98-25.8 25.65.24 14.62 11.52 25.43 25.68 25.43zm10.08-30.42h26.28v7.54h-26.27v-7.53zm0 19.62v-7.63h26.04v7.62h-26.04z" fill="#0078d7"/><path d="M633.87 312.47c10.2 4.68 16.8 15.48 16.8 27.84 0 14.17-8.8 26.3-21 29.4l-4 .97h-144.6c-16.8 0-30.4-15.24-30.4-33.6s13.6-33.6 30.4-33.6c1.4 0 2.2 0 3.6.36 5-8.88 13.6-13.92 23.2-13.92 2.6 0 5 .37 7.6 1.2v-1.2c0-21.83 15.8-39.23 35.6-39.23 13.6 0 26.2 9.12 32 22.8 5-3.24 10.8-5.04 16.8-5.04 19 0 34.4 17.04 34.4 37.92.2 1.92 0 3.84-.4 6.12z" fill="#00188f"/><path d="M740.67 715.67c0-2.76 2.24-5 5-5h230c2.76 0 5 2.24 5 5v36c0 2.76-2.24 5-5 5h-230c-2.76 0-5-2.24-5-5z" fill="none"/><use xlink:href="#d" transform="matrix(1,0,0,1,740.6666666666666,710.6666666666666) translate(78.07499999999999 26.6)"/><use xlink:href="#e" transform="matrix(1,0,0,1,740.6666666666666,710.6666666666666) translate(149.925 26.6)"/><path d="M860.67 510.67l-.02.65-.04.64-.05.63-.1.62-.12.63-.14.63-.2.63-.2.65-.24.64-.27.64-.33.67-.35.7-.4.7-.47.7-.52.76-.6.78-.66.82-.77.85-.9.92-1 .96-1.2 1.02-1.4 1.1-1.64 1.2-1.97 1.3-2.4 1.45-2.92 1.6-3.66 1.8-4.68 2.1-6.2 2.44-8.57 2.96-12.74 3.83-22.4 5.68-108.13 24.27-12.74 3.82-8.57 2.97-6.2 2.45-4.7 2.07-3.65 1.8-2.92 1.62-2.38 1.43-1.97 1.3-1.65 1.2-1.4 1.1-1.18 1.03-1.03.96-.88.9-.77.86-.68.8-.6.8-.52.74-.46.72-.4.7-.36.68-.3.67-.3.64-.23.65-.2.62-.18.64-.15.62-.12.63-.1.64-.06.64-.04.64v.65" stroke="#000" stroke-width="2" fill="none"/><path d="M858.7 525.54l-8.36-4 10.33-10.87z"/><path d="M859.52 527.04l-10.85-5.18 10.65-11.23 1 .04h.47l.88-.06zm-7.5-5.8l5.88 2.8 1.37-10.45zM631 599.78l-10.33 10.9 1.95-14.9z"/><path d="M621.8 594.3l10.86 5.17L621.73 611l-.66-.33-1.5.74zm.26 13.45l7.26-7.66-5.9-2.8z"/><path d="M860.67 510.67v100" stroke="#000" stroke-width="2" fill="none"/><path d="M865.3 524.93h-9.27l4.64-14.26z"/><path d="M866.68 525.93h-12.03l4.97-15.3.7.04h.47l.9-.06zm-9.27-2h6.53l-3.26-10.03zM860.67 610.67l-4.64-14.27h9.27z"/><path d="M861.7 610.72l-1.07-.05-1 .07-4.98-15.34h12.03zm-4.3-13.32l3.27 10.03 3.26-10.03z"/><path d="M860.67 510.67v.63l.05.62.06.62.1.6.1.63.16.6.17.63.2.62.24.63.27.64.32.64.35.67.4.7.45.7.5.74.6.76.65.8.76.84.87.9 1 .94 1.18 1 1.37 1.1 1.63 1.17 1.94 1.3 2.35 1.4 2.9 1.6 3.6 1.8 4.62 2.04 6.1 2.4 8.4 2.9 12.34 3.72 20.86 5.3 124.8 27.23 12.34 3.7 8.4 2.92 6.1 2.4 4.62 2.06 3.62 1.8 2.88 1.57 2.35 1.42 1.96 1.3 1.62 1.17 1.37 1.08 1.18 1 1 .95.87.9.76.83.67.8.58.77.52.73.45.7.4.7.34.67.32.65.27.64.22.63.2.62.18.62.14.6.12.6.1.63.05.6.05.64.02.63" stroke="#000" stroke-width="2" fill="none"/><path d="M871.08 521.46l-8.33 4.06-2.08-14.85z"/><path d="M872.76 521.76l-10.8 5.26-2.3-16.38.65.03h.5l1.2-.07zm-9.2 2.26l5.85-2.85-7.32-7.6zM1113.67 611.9l-10.42-10.8 8.33-4.06z"/><path d="M1114.68 611.9h-2.4l-10.7-11.1 10.8-5.26zm-9.75-10.5l7.32 7.6-1.46-10.45z"/><path d="M634.14 310.67l13.2 1.7 18.54 1.6 108.9 5.04 11.5 1.5 8.84 1.52 7.13 1.54 5.95 1.55 5.08 1.56 4.4 1.55 3.9 1.56 3.44 1.55 3.1 1.56 2.8 1.55 2.54 1.57 2.34 1.56 2.15 1.58 2 1.6 1.84 1.6 1.7 1.64 1.63 1.66 1.5 1.7 1.43 1.72 1.34 1.78 1.26 1.83 1.2 1.9 1.1 1.95 1.07 2.04 1 2.12.92 2.24.86 2.34.8 2.5.73 2.62.65 2.82.56 3.02.47 3.25.37 3.54.22 3.85.07 3.85" stroke="#000" stroke-width="2" fill="none"/><path d="M647.72 317.03l-13.58-6.36 14.73-2.84z"/><path d="M648.55 318.52l-14.57-6.82.22-1.5.04-.57 15.8-3.05zm-11.2-7.45l9.55 4.47.8-6.47zM860.67 390.67l-5.77-13.85 9.24-.75z"/><path d="M861.7 390.7l-.9-.03h-.5l-.7.05-6.15-14.8 11.98-.95zm-5.35-13l4.06 9.74 2.45-10.26z"/><path d="M870.67 425.67c0-2.76 2.24-5 5-5h230c2.76 0 5 2.24 5 5v50c0 2.76-2.24 5-5 5h-230c-2.76 0-5-2.24-5-5z" fill="none"/><use xlink:href="#f" transform="matrix(1,0,0,1,870.6666666666666,420.6666666666667) translate(72.6 33.6)"/><use xlink:href="#g" transform="matrix(1,0,0,1,870.6666666666666,420.6666666666667) translate(129.5 33.6)"/><path d="M430.67 375.67c0-2.76 2.24-5 5-5h230c2.76 0 5 2.24 5 5v50c0 2.76-2.24 5-5 5h-230c-2.76 0-5-2.24-5-5z" fill="none"/><use xlink:href="#h" transform="matrix(1,0,0,1,430.66666666666663,370.6666666666667) translate(62.574999999999996 33.6)"/><use xlink:href="#i" transform="matrix(1,0,0,1,430.66666666666663,370.6666666666667) translate(114.475 33.6)"/><path d="M1190.67 95.67c0-2.76 2.24-5 5-5h230c2.76 0 5 2.24 5 5v50c0 2.76-2.24 5-5 5h-230c-2.76 0-5-2.24-5-5z" fill="none"/><use xlink:href="#j" transform="matrix(1,0,0,1,1190.6666666666667,90.66666666666667) translate(61.45061728395062 34.44444444444444)"/><use xlink:href="#k" transform="matrix(1,0,0,1,1190.6666666666667,90.66666666666667) translate(119.29012345679013 34.44444444444444)"/><path d="M1030.67 95.67c0-2.76 2.24-5 5-5h230c2.76 0 5 2.24 5 5v50c0 2.76-2.24 5-5 5h-230c-2.76 0-5-2.24-5-5z" fill="none"/><use xlink:href="#l" transform="matrix(1,0,0,1,1030.6666666666667,90.66666666666667) translate(29.351851851851862 34.44444444444444)"/><use xlink:href="#m" transform="matrix(1,0,0,1,1030.6666666666667,90.66666666666667) translate(124.2283950617284 34.44444444444444)"/><use xlink:href="#n" transform="matrix(1,0,0,1,1030.6666666666667,90.66666666666667) translate(161.26543209876542 34.44444444444444)"/><path d="M90.67 95.67c0-2.76 2.24-5 5-5h230c2.76 0 5 2.24 5 5v50c0 2.76-2.24 5-5 5h-230c-2.76 0-5-2.24-5-5z" fill="none"/><use xlink:href="#o" transform="matrix(1,0,0,1,90.66666666666669,90.66666666666667) translate(6.697530864197532 34.44444444444444)"/><use xlink:href="#p" transform="matrix(1,0,0,1,90.66666666666669,90.66666666666667) translate(81.88271604938271 34.44444444444444)"/><use xlink:href="#q" transform="matrix(1,0,0,1,90.66666666666669,90.66666666666667) translate(150.7716049382716 34.44444444444444)"/><path d="M90.7 140.67h1359.97" stroke="#666" stroke-width="2" fill="none"/><path d="M920.67 450.8c0-13.33-4.56-26.4-12.96-36.97l-.6-.6c-.23-.24-.23-.48-.47-.84l-3.84-4.1c-11.17-11.4-26.05-17.63-42-17.63h-.5c-15.7.24-30.35 6.24-41.75 17.4l-4.08 4.32c-.24.35-.24.6-.48.83l-.6.24c-8.17 10.68-12.73 23.76-12.73 37.32 0 13.3 4.56 26.4 12.96 37.07l.6.48c.24.24.24.6.48.84l3.85 4.07c11.16 11.16 25.68 17.4 41.76 17.4h.5c15.7 0 30.83-6.24 42-17.4l3.83-4.32c.24-.36.24-.6.48-.84l.6-.6c8.4-10.07 12.97-23.4 12.97-36.7zm-24.36-39.13c-.23 0-.6.24-.83.24-.48.25-1.08.5-1.08.5-1.1.6-2.17.83-3.25 1.07-.24 0-.6.36-.84.36-1.3.48-2.63.84-4.07 1.08-.24 0-.72.25-1.08.25-2.16-5.76-4.8-10.92-7.8-14.64 7.08 2.4 13.56 6.25 18.96 11.17zm-36-13.92c6.73 0 13.2 7.08 18.13 19.08-5.4 1.08-11.4 1.32-17.64 1.32-6.25 0-12.5-.6-18.13-1.32 4.56-12 11.04-18.84 17.64-19.08zm-17.15 3c-2.88 3.84-5.4 8.64-7.56 14.4h-.5c-1.43-.48-3-.84-4.07-1.08-.24 0-.6-.24-.84-.24-1.1-.6-2.17-1.08-3-1.44-.5-.25-.85-.25-1.1-.5-.23-.23-.47-.23-1.07-.6 5.76-4.3 11.64-8.4 18.12-10.55zm-18.12 89.28c.24 0 .6-.36.84-.36.48-.24.84-.24 1.08-.48 1.08-.6 2.16-.85 3.24-1.1.23 0 .6-.23.83-.23 1.32-.6 2.64-.84 4.08-1.2h.5c2.15 5.52 4.9 10.68 7.55 14.52-6.48-2.77-12.72-6.6-18.12-11.17zm35.52 13.8c-6.84-.24-13.32-7.08-17.88-18.72 5.64-1.07 11.88-1.3 18.12-1.3 6.23 0 11.87.47 17.63 1.3-4.68 11.65-11.4 18.73-17.88 18.73zm17.04-3c3-3.72 5.63-8.88 7.9-14.64.25 0 .73.23 1.1.23 1.3.6 2.87.84 3.95 1.08.36 0 .6.37.84.37 1.07.48 2.15.72 3.23 1.08.6.24.84.24 1.08.48.37 0 .6.24 1.1.6-5.9 4.8-12.37 8.64-19.2 10.8zm24.1-16.56c-.83 0-1.07-.24-1.9-.48-.85-.37-1.57-.85-2.4-1.2-.25 0-.6-.25-.85-.25-3-1.08-6-1.92-9.24-3 .85-3 1.45-5.64 1.93-8.64h-7.08c-.48 2.65-1.08 5.17-1.56 7.1-6.25-1.1-12.97-1.7-19.8-1.7-7.1 0-13.8.85-20.3 1.93-.83-2.52-1.07-4.92-1.67-7.32h-6.96c.48 3 1.08 6 1.8 8.9-2.88.83-5.64 1.67-8.4 2.75-.24.24-.72.24-1.08.6-.73.24-1.57.84-2.4 1.08-.5 0-1.1.24-1.57.48-7.08-8.63-11.16-19.3-12-30.47h6v-7.08h-6c.84-11.16 4.92-21.48 11.64-29.88l.36-.24c.48.24 1.08.48 1.56.72 1.07.6 1.67.84 2.75 1.2.24 0 .48.24.72.24 2.76 1.07 5.52 1.9 8.76 2.75-.84 2.64-1.08 5.16-1.68 7.8h7.08c.48-2.16 1.08-4.56 1.32-6.48 6.48 1.08 13.32 1.92 20.28 1.92 7.08 0 13.56-.85 19.8-1.7.6 1.93 1.08 4.1 1.32 6.6h7.08c-.48-2.75-1.08-5.27-1.56-7.9 2.88-.85 5.88-1.7 8.88-3 .24 0 .84-.25 1.08-.25 1.08-.36 1.68-.84 2.76-1.2.47-.24 1.07-.48 1.55-.72 7.08 8.64 11.16 19.32 12 30.12h-7.08v7.08h7.08c-1.44 11.16-5.52 22.08-12.24 30.24z" fill="#0078d7"/><path d="M845.67 450.3c0 3-.6 5.17-1.08 7.1-.85 1.8-1.93 3.47-3 5.15-1.33 1.08-3 2.16-5.17 3-1.92.48-4.32 1.08-7.08 1.08h-7.32c-.48 0-1.08-.36-1.32-.6-.23-.24-.23-1.08-.23-1.56v-27.24c0-.84.24-1.08.48-1.44.36-.25.84-.5 1.44-.5h7.8c3 0 5.15.25 7.07 1.1 1.92.83 3.48 1.67 4.8 3 1.44 1.3 2.52 3 3 4.9.24 1.33.6 3.5.6 6zm-6.48.25c0-1.32-.37-3-.6-4.08-.25-1.08-1.1-2.52-1.7-3.24-.47-.84-1.55-1.68-2.87-2.16-1.08-.6-2.76-.84-4.92-.84h-2.75v21.24h3.36c1.57 0 2.9-.36 4.33-.84 1.08-.6 2.16-1.08 2.88-1.92.85-1.07 1.45-1.9 1.7-3.23.6-1.68.6-3.36.6-4.92zM876.27 463.87c0 .6 0 .84-.24 1.08-.36.24-.36.6-.6.84-.24.23-.48.23-.84.47-.25 0-.5.36-1.1.36h-2.63c-.6 0-1.08 0-1.44-.36-.48 0-.72-.24-1.08-.72-.24-.36-.72-.84-1.08-1.08-.24-.6-.72-1.2-1.08-1.92l-7.57-14.52c-.48-1.08-1.08-1.56-1.32-2.88-.6-1.2-1.07-1.92-1.07-3 0 1.08 0 2.4.24 3.24v19.8l-.24.6c0 .23-.36.23-.6.23s-.48.24-1.08.24h-3c-.48 0-.72 0-1.08-.24-.24 0-.24-.24-.48-.24v-28.33c0-.84.23-1.08.83-1.68.48-.5 1.08-.5 1.56-.5h3.23c.84 0 1.08 0 1.44.25.48 0 .72.24 1.08.6.24.24.72.48 1.08 1.08.24.48.48 1.08 1.08 1.56l5.9 11.15c.35.84.83 1.44 1.07 1.92.36.84.84 1.44 1.08 1.92.36.83.84 1.07 1.08 1.9.36.85.6 1.1 1.08 1.93v-21.48l.37-.6c0-.24.24-.24.48-.24s.6-.23 1.08-.23h3c.6 0 .84 0 1.08.24.25 0 .25.25.6.25v28.32h-.83zM901.47 457.03c0 1.68-.36 3-1.08 4.44-.85 1.32-1.45 2.16-2.53 3-1.08.72-2.16 1.32-3.48 1.8-1.33.6-3 .84-4.57.84-1.08 0-2.16 0-3-.23-.84-.24-1.68-.6-2.4-.84-.84-.24-1.2-.48-1.68-.84-.6-.25-.84-.5-1.08-.73-.24-.36-.24-.6-.6-1.2 0-.48-.24-1.08-.24-1.56v-1.07c0-.36 0-.84.24-.84 0-.25.36-.25.36-.6 0 0 .24-.25.48-.25.25 0 .6.24 1.1.6.6.24 1.07.48 1.67 1.08.84.24 1.32.84 2.4 1.08 1.08.25 1.92.5 3 .5.84 0 1.32 0 2.16-.25.84-.24 1.08-.48 1.32-.84.6-.23.84-.83 1.08-1.07.36-.48.36-1.08.36-1.56 0-.84-.37-1.08-.6-1.92l-1.33-1.44c-.84-.47-1.08-.7-2.16-1.07-.83-.24-1.67-.72-2.5-1.08-.73-.48-1.57-.84-2.4-1.08-.85-.48-1.33-1.08-2.17-1.56-.84-.83-1.08-1.43-1.32-2.5-.6-1.1-.6-1.93-.6-3.25s.25-3 .85-3.84c.48-1.07 1.08-2.15 2.16-3 1.1-.83 1.93-1.07 3.25-1.55 1.08-.6 2.76-.6 4.08-.6.84 0 1.32 0 2.16.24.83 0 1.3.35 2.15.6.84.23 1.08.47 1.68.83.48.24.72.48 1.08.48l.25.6s0 .25.24.5v3.6c0 .23-.25.23-.25.47 0 0-.24.36-.6.36-.24 0-.48 0-.72-.36l-1.44-.72c-.5-.36-1.1-.6-1.8-.84-.85-.23-1.45-.23-2.53-.23-.84 0-1.08 0-1.56.24-.6.25-1.07.5-1.07.85-.36.24-.6.72-.84 1.08-.25.48-.25 1.08-.25 1.08 0 .85.24 1.1.48 1.57l1.32 1.44c.84.5 1.44.73 2.16 1.1.85.23 1.7.83 2.53 1.07.84.48 1.56.84 2.4 1.08.84.48 1.32 1.08 2.16 1.56.83.85 1.07 1.45 1.3 2.53 0 0 .37 1.08.37 2.4z" fill="#0078d7"/><path d="M360.67 775.67c0-2.76 2.24-5 5-5h970c2.76 0 5 2.24 5 5v50c0 2.76-2.24 5-5 5h-970c-2.76 0-5-2.24-5-5z" fill="none"/><use xlink:href="#r" transform="matrix(1,0,0,1,360.66666666666663,770.6666666666666) translate(0 14.4)"/><use xlink:href="#s" transform="matrix(1,0,0,1,360.66666666666663,770.6666666666666) translate(34.95 14.4)"/><use xlink:href="#t" transform="matrix(1,0,0,1,360.66666666666663,770.6666666666666) translate(86.85000000000001 14.4)"/><use xlink:href="#u" transform="matrix(1,0,0,1,360.66666666666663,770.6666666666666) translate(117.80000000000001 14.4)"/><use xlink:href="#v" transform="matrix(1,0,0,1,360.66666666666663,770.6666666666666) translate(184.60000000000002 14.4)"/><use xlink:href="#w" transform="matrix(1,0,0,1,360.66666666666663,770.6666666666666) translate(230.55 14.4)"/><use xlink:href="#x" transform="matrix(1,0,0,1,360.66666666666663,770.6666666666666) translate(250.55 14.4)"/><use xlink:href="#y" transform="matrix(1,0,0,1,360.66666666666663,770.6666666666666) translate(323.45000000000005 14.4)"/><use xlink:href="#z" transform="matrix(1,0,0,1,360.66666666666663,770.6666666666666) translate(338.45000000000005 14.4)"/><use xlink:href="#A" transform="matrix(1,0,0,1,360.66666666666663,770.6666666666666) translate(390.35 14.4)"/><use xlink:href="#B" transform="matrix(1,0,0,1,360.66666666666663,770.6666666666666) translate(464.3 14.4)"/><use xlink:href="#C" transform="matrix(1,0,0,1,360.66666666666663,770.6666666666666) translate(499.3 14.4)"/><use xlink:href="#w" transform="matrix(1,0,0,1,360.66666666666663,770.6666666666666) translate(554.25 14.4)"/><use xlink:href="#D" transform="matrix(1,0,0,1,360.66666666666663,770.6666666666666) translate(574.25 14.4)"/><use xlink:href="#E" transform="matrix(1,0,0,1,360.66666666666663,770.6666666666666) translate(643.8 14.4)"/><use xlink:href="#F" transform="matrix(1,0,0,1,360.66666666666663,770.6666666666666) translate(695.6999999999999 14.4)"/><use xlink:href="#G" transform="matrix(1,0,0,1,360.66666666666663,770.6666666666666) translate(763.65 14.4)"/><use xlink:href="#H" transform="matrix(1,0,0,1,360.66666666666663,770.6666666666666) translate(849.5 14.4)"/><use xlink:href="#I" transform="matrix(1,0,0,1,360.66666666666663,770.6666666666666) translate(886.5 14.4)"/><use xlink:href="#J" transform="matrix(1,0,0,1,360.66666666666663,770.6666666666666) translate(939.35 14.4)"/><use xlink:href="#K" transform="matrix(1,0,0,1,360.66666666666663,770.6666666666666) translate(0 36)"/><path d="M209.06 251.5c-16.92 3.97-26.82 22.57-22.1 41.65 4.72 18.96 22.1 30.48 38.9 26.4 16.92-4.08 26.82-22.68 22.1-41.64-4.72-18.7-22.33-30.47-38.9-26.4zM245.2 324.6c-3.1-.25-6.8 5.75-11.5 8.15-4.73 2.04-9.8 6.36-23.38 0-13.58-6.36-15.54-11.88-27.05-11.88-11.5 0-29.8 20.28-30.15 49.8h115.1c-.35 0-1.4-20.28-7.83-31.2-7.72-14.52-12.1-14.88-15.2-14.88z" fill="#00188f"/><path d="M280.67 310.67h150" stroke="#000" stroke-width="2" fill="none"/><path d="M280.67 310.67l14.26-4.64v9.27zM430.67 310.67l-14.27 4.63v-9.27z" stroke="#000" stroke-width="2"/><path d="M430.67 195.67c0-2.76 2.24-5 5-5h230c2.76 0 5 2.24 5 5v50c0 2.76-2.24 5-5 5h-230c-2.76 0-5-2.24-5-5z" fill="none"/><g><use xlink:href="#L" transform="matrix(1,0,0,1,430.66666666666663,190.66666666666669) translate(43.55 33.6)"/><use xlink:href="#M" transform="matrix(1,0,0,1,430.66666666666663,190.66666666666669) translate(117 33.6)"/></g><path d="M255.5 242.15h6.5v2.72h-6.5v-2.72zM261.95 247.8h-6.46l2 2.87h2.45l2-2.88zM255.8 224.4c-.53 0-1.07.6-1.07 1.35 0 .72.46 1.4 1.06 1.4h1.07v-1.4c-.12-.76-.54-1.36-1.08-1.36zM261.37 224.4c-.54 0-1.08.6-1.08 1.35v1.4h1.07c.52 0 1.06-.6 1.06-1.4 0-.68-.42-1.36-1.06-1.36z" fill="#0078d7"/><path d="M268.65 222.35v-.2c0-6.2-4.02-11.24-9-11.4-.12-.2-2.96.08-2.96.08-4.5.72-8 5.56-8 11.24 0 .16-.47 4.64 3 8.4 1.6 1.88 3.27 6.8 3.5 8.2l.2.48h6.5l.17-.48c.24-1.44 1.96-6.4 3.5-8.2 3.5-3.72 3.08-7.96 3.08-8.12zm-7.22 6.36h-1.08v10.13h-1.18V228.7h-1.12v10.05h-1.18V228.7h-1.08c-1.2 0-2.25-1.4-2.25-2.95 0-1.52 1-2.92 2.24-2.92 1.23 0 2.25 1.4 2.25 2.92v1.4h1.06v-1.4c0-1.52 1.1-2.92 2.27-2.92 1.18 0 2.26 1.4 2.26 2.92.04 1.64-1.02 2.96-2.2 2.96z" fill="#0078d7"/><defs><path d="M1216-1011c-1 297-202 441-512 441H361V0H169v-1456h537c297-6 510 164 510 445zm-192 2c1-178-126-288-307-289H361v571h345c196 1 318-92 318-282" id="N"/><path d="M663-916c-163-27-288 18-338 148V0H140v-1082h180l3 125c61-97 147-145 258-145 36 0 63 5 82 14v172" id="O"/><path d="M584 20C278 26 81-227 91-551c10-320 175-545 491-551 308-5 503 247 494 573-9 322-175 543-492 549zm-2-970c-208 0-305 185-305 421 0 216 106 398 307 398 211 0 307-186 307-420 0-214-109-399-309-399" id="P"/><path d="M497-251l268-831h189L566 0H425L33-1082h189" id="Q"/><path d="M341 0H156v-1082h185V0zm-91-1264c-68 0-108-42-109-105 0-62 41-107 109-107s110 44 110 107-42 105-110 105" id="R"/><path d="M520 20C244 20 95-247 95-550c0-298 151-550 427-552 127 0 227 43 301 130v-564h185V0H838l-9-116C755-25 652 20 520 20zm48-965c-210 0-288 177-288 416 0 218 87 392 286 392 117 0 203-53 257-158v-497c-55-102-140-153-255-153" id="S"/><path d="M599-131c141 0 220-65 285-146l113 88C906-50 770 20 589 20 281 21 93-214 93-545c0-223 93-397 233-485 74-48 154-72 240-72 300 2 449 218 445 537v77H278c0 197 129 357 321 357zm227-509c-3-180-88-310-260-310-170 0-264 140-282 310h542" id="T"/><g id="a"><use transform="matrix(0.0087890625,0,0,0.0087890625,0,0)" xlink:href="#N"/><use transform="matrix(0.0087890625,0,0,0.0087890625,11.35546875,0)" xlink:href="#O"/><use transform="matrix(0.0087890625,0,0,0.0087890625,17.2705078125,0)" xlink:href="#P"/><use transform="matrix(0.0087890625,0,0,0.0087890625,27.404296875,0)" xlink:href="#Q"/><use transform="matrix(0.0087890625,0,0,0.0087890625,36.123046875,0)" xlink:href="#R"/><use transform="matrix(0.0087890625,0,0,0.0087890625,40.4912109375,0)" xlink:href="#S"/><use transform="matrix(0.0087890625,0,0,0.0087890625,50.642578125,0)" xlink:href="#T"/><use transform="matrix(0.0087890625,0,0,0.0087890625,60.1787109375,0)" xlink:href="#O"/></g><path d="M688-137c238 0 323-102 359-325h193c-32 297-228 482-552 482-361 0-569-299-569-680 0-197 8-360 73-497 88-186 257-317 513-319 316-2 509 195 535 488h-193c-31-212-118-330-342-330-272 0-397 224-393 523v141c-3 282 115 517 376 517" id="U"/><use transform="matrix(0.0087890625,0,0,0.0087890625,0,0)" xlink:href="#U" id="b"/><path d="M185-189c-5-48-123-54-124 2 14 75 158 14 163 119 3 78-121 87-175 55-17-10-28-26-33-46l33-7c5 56 141 63 141-1 0-78-155-14-162-118-5-82 145-84 179-34 5 7 8 16 11 25" id="V"/><path d="M126-127c33 6 58 20 58 59 0 88-139 92-164 29-3-8-5-16-6-25l32-3c6 27 21 44 54 44 32 0 52-15 52-46 0-38-36-46-79-43v-28c39 1 72-4 72-42 0-27-17-43-46-43-28 0-47 15-49 41l-32-3c6-42 35-63 81-64 48-1 79 21 79 65 0 36-21 52-52 59" id="W"/><g id="c"><use transform="matrix(0.05,0,0,0.05,0,0)" xlink:href="#V"/><use transform="matrix(0.05,0,0,0.05,12,0)" xlink:href="#W"/></g><path d="M30-248c87 1 191-15 191 75 0 78-77 80-158 76V0H30v-248zm33 125c57 0 124 11 124-50 0-59-68-47-124-48v98" id="X"/><path d="M114-163C36-179 61-72 57 0H25l-1-190h30c1 12-1 29 2 39 6-27 23-49 58-41v29" id="Y"/><path d="M100-194c62-1 85 37 85 99 1 63-27 99-86 99S16-35 15-95c0-66 28-99 85-99zM99-20c44 1 53-31 53-75 0-43-8-75-51-75s-53 32-53 75 10 74 51 75" id="Z"/><path d="M108 0H70L1-190h34L89-25l56-165h34" id="aa"/><path d="M24-231v-30h32v30H24zM24 0v-190h32V0H24" id="ab"/><path d="M85-194c31 0 48 13 60 33l-1-100h32l1 261h-30c-2-10 0-23-3-31C134-8 116 4 85 4 32 4 16-35 15-94c0-66 23-100 70-100zm9 24c-40 0-46 34-46 75 0 40 6 74 45 74 42 0 51-32 51-76 0-42-9-74-50-73" id="ac"/><path d="M100-194c63 0 86 42 84 106H49c0 40 14 67 53 68 26 1 43-12 49-29l28 8c-11 28-37 45-77 45C44 4 14-33 15-96c1-61 26-98 85-98zm52 81c6-60-76-77-97-28-3 7-6 17-6 28h103" id="ad"/><g id="d"><use transform="matrix(0.05,0,0,0.05,0,0)" xlink:href="#X"/><use transform="matrix(0.05,0,0,0.05,12,0)" xlink:href="#Y"/><use transform="matrix(0.05,0,0,0.05,17.95,0)" xlink:href="#Z"/><use transform="matrix(0.05,0,0,0.05,27.950000000000003,0)" xlink:href="#aa"/><use transform="matrix(0.05,0,0,0.05,36.95,0)" xlink:href="#ab"/><use transform="matrix(0.05,0,0,0.05,40.900000000000006,0)" xlink:href="#ac"/><use transform="matrix(0.05,0,0,0.05,50.900000000000006,0)" xlink:href="#ad"/><use transform="matrix(0.05,0,0,0.05,60.900000000000006,0)" xlink:href="#Y"/></g><path d="M160-131c35 5 61 23 61 61C221 17 115-2 30 0v-248c76 3 177-17 177 60 0 33-19 50-47 57zm-97-11c50-1 110 9 110-42 0-47-63-36-110-37v79zm0 115c55-2 124 14 124-45 0-56-70-42-124-44v89" id="ae"/><use transform="matrix(0.05,0,0,0.05,0,0)" xlink:href="#ae" id="e"/><path d="M143 4C61 4 22-44 18-125c-5-107 100-154 193-111 17 8 29 25 37 43l-32 9c-13-25-37-40-76-40-61 0-88 39-88 99 0 61 29 100 91 101 35 0 62-11 79-27v-45h-74v-28h105v86C228-13 192 4 143 4" id="af"/><path d="M24 0v-261h32V0H24" id="ag"/><path d="M115-194c53 0 69 39 70 98 0 66-23 100-70 100C84 3 66-7 56-30L54 0H23l1-261h32v101c10-23 28-34 59-34zm-8 174c40 0 45-34 45-75 0-40-5-75-45-74-42 0-51 32-51 76 0 43 10 73 51 73" id="ah"/><path d="M141-36C126-15 110 5 73 4 37 3 15-17 15-53c-1-64 63-63 125-63 3-35-9-54-41-54-24 1-41 7-42 31l-33-3c5-37 33-52 76-52 45 0 72 20 72 64v82c-1 20 7 32 28 27v20c-31 9-61-2-59-35zM48-53c0 20 12 33 32 33 41-3 63-29 60-74-43 2-92-5-92 41" id="ai"/><g id="f"><use transform="matrix(0.05,0,0,0.05,0,0)" xlink:href="#af"/><use transform="matrix(0.05,0,0,0.05,14,0)" xlink:href="#ag"/><use transform="matrix(0.05,0,0,0.05,17.95,0)" xlink:href="#Z"/><use transform="matrix(0.05,0,0,0.05,27.950000000000003,0)" xlink:href="#ah"/><use transform="matrix(0.05,0,0,0.05,37.95,0)" xlink:href="#ai"/><use transform="matrix(0.05,0,0,0.05,47.95,0)" xlink:href="#ag"/></g><path d="M30-248c118-7 216 8 213 122C240-48 200 0 122 0H30v-248zM63-27c89 8 146-16 146-99s-60-101-146-95v194" id="aj"/><path d="M190 0L58-211 59 0H30v-248h39L202-35l-2-213h31V0h-41" id="ak"/><g id="g"><use transform="matrix(0.05,0,0,0.05,0,0)" xlink:href="#aj"/><use transform="matrix(0.05,0,0,0.05,12.950000000000001,0)" xlink:href="#ak"/><use transform="matrix(0.05,0,0,0.05,25.900000000000002,0)" xlink:href="#V"/></g><path d="M212-179c-10-28-35-45-73-45-59 0-87 40-87 99 0 60 29 101 89 101 43 0 62-24 78-52l27 14C228-24 195 4 139 4 59 4 22-46 18-125c-6-104 99-153 187-111 19 9 31 26 39 46" id="al"/><path d="M84 4C-5 8 30-112 23-190h32v120c0 31 7 50 39 49 72-2 45-101 50-169h31l1 190h-30c-1-10 1-25-2-33-11 22-28 36-60 37" id="am"/><g id="h"><use transform="matrix(0.05,0,0,0.05,0,0)" xlink:href="#al"/><use transform="matrix(0.05,0,0,0.05,12.950000000000001,0)" xlink:href="#ag"/><use transform="matrix(0.05,0,0,0.05,16.900000000000002,0)" xlink:href="#Z"/><use transform="matrix(0.05,0,0,0.05,26.900000000000002,0)" xlink:href="#am"/><use transform="matrix(0.05,0,0,0.05,36.900000000000006,0)" xlink:href="#ac"/></g><path d="M59-47c-2 24 18 29 38 22v24C64 9 27 4 27-40v-127H5v-23h24l9-43h21v43h35v23H59v120" id="an"/><path d="M177-190C167-65 218 103 67 71c-23-6-38-20-44-43l32-5c15 47 100 32 89-28v-30C133-14 115 1 83 1 29 1 15-40 15-95c0-56 16-97 71-98 29-1 48 16 59 35 1-10 0-23 2-32h30zM94-22c36 0 50-32 50-73 0-42-14-75-50-75-39 0-46 34-46 75s6 73 46 73" id="ao"/><g id="i"><use transform="matrix(0.05,0,0,0.05,0,0)" xlink:href="#V"/><use transform="matrix(0.05,0,0,0.05,12,0)" xlink:href="#an"/><use transform="matrix(0.05,0,0,0.05,17,0)" xlink:href="#Z"/><use transform="matrix(0.05,0,0,0.05,27,0)" xlink:href="#Y"/><use transform="matrix(0.05,0,0,0.05,32.95,0)" xlink:href="#ai"/><use transform="matrix(0.05,0,0,0.05,42.95,0)" xlink:href="#ao"/><use transform="matrix(0.05,0,0,0.05,52.95,0)" xlink:href="#ad"/></g><path fill="#999" d="M212-179c-10-28-35-45-73-45-59 0-87 40-87 99 0 60 29 101 89 101 43 0 62-24 78-52l27 14C228-24 195 4 139 4 59 4 22-46 18-125c-6-104 99-153 187-111 19 9 31 26 39 46" id="ap"/><path fill="#999" d="M106-169C34-169 62-67 57 0H25v-261h32l-1 103c12-21 28-36 61-36 89 0 53 116 60 194h-32v-121c2-32-8-49-39-48" id="aq"/><path fill="#999" d="M114-163C36-179 61-72 57 0H25l-1-190h30c1 12-1 29 2 39 6-27 23-49 58-41v29" id="ar"/><path fill="#999" d="M24-231v-30h32v30H24zM24 0v-190h32V0H24" id="as"/><path fill="#999" d="M135-143c-3-34-86-38-87 0 15 53 115 12 119 90S17 21 10-45l28-5c4 36 97 45 98 0-10-56-113-15-118-90-4-57 82-63 122-42 12 7 21 19 24 35" id="at"/><g id="j"><use transform="matrix(0.06172839506172839,0,0,0.06172839506172839,0,0)" xlink:href="#ap"/><use transform="matrix(0.06172839506172839,0,0,0.06172839506172839,15.987654320987653,0)" xlink:href="#aq"/><use transform="matrix(0.06172839506172839,0,0,0.06172839506172839,28.333333333333332,0)" xlink:href="#ar"/><use transform="matrix(0.06172839506172839,0,0,0.06172839506172839,35.67901234567901,0)" xlink:href="#as"/><use transform="matrix(0.06172839506172839,0,0,0.06172839506172839,40.55555555555556,0)" xlink:href="#at"/></g><path fill="#999" d="M153-248C145-148 188 4 80 4 36 3 13-21 6-62l32-5c4 25 16 42 43 43 27 0 39-20 39-49v-147H72v-28h81" id="au"/><path fill="#999" d="M100-194c62-1 85 37 85 99 1 63-27 99-86 99S16-35 15-95c0-66 28-99 85-99zM99-20c44 1 53-31 53-75 0-43-8-75-51-75s-53 32-53 75 10 74 51 75" id="av"/><path fill="#999" d="M117-194c89-4 53 116 60 194h-32v-121c0-31-8-49-39-48C34-167 62-67 57 0H25l-1-190h30c1 10-1 24 2 32 11-22 29-35 61-36" id="aw"/><path fill="#999" d="M100-194c63 0 86 42 84 106H49c0 40 14 67 53 68 26 1 43-12 49-29l28 8c-11 28-37 45-77 45C44 4 14-33 15-96c1-61 26-98 85-98zm52 81c6-60-76-77-97-28-3 7-6 17-6 28h103" id="ax"/><g id="k"><use transform="matrix(0.06172839506172839,0,0,0.06172839506172839,0,0)" xlink:href="#au"/><use transform="matrix(0.06172839506172839,0,0,0.06172839506172839,11.11111111111111,0)" xlink:href="#av"/><use transform="matrix(0.06172839506172839,0,0,0.06172839506172839,23.45679012345679,0)" xlink:href="#aw"/><use transform="matrix(0.06172839506172839,0,0,0.06172839506172839,35.80246913580247,0)" xlink:href="#ax"/><use transform="matrix(0.06172839506172839,0,0,0.06172839506172839,48.148148148148145,0)" xlink:href="#at"/></g><path fill="#999" d="M63-220v92h138v28H63V0H30v-248h175v28H63" id="ay"/><path fill="#999" d="M115-194c53 0 69 39 70 98 0 66-23 100-70 100C84 3 66-7 56-30L54 0H23l1-261h32v101c10-23 28-34 59-34zm-8 174c40 0 45-34 45-75 0-40-5-75-45-74-42 0-51 32-51 76 0 43 10 73 51 73" id="az"/><path fill="#999" d="M84 4C-5 8 30-112 23-190h32v120c0 31 7 50 39 49 72-2 45-101 50-169h31l1 190h-30c-1-10 1-25-2-33-11 22-28 36-60 37" id="aA"/><path fill="#999" d="M141-36C126-15 110 5 73 4 37 3 15-17 15-53c-1-64 63-63 125-63 3-35-9-54-41-54-24 1-41 7-42 31l-33-3c5-37 33-52 76-52 45 0 72 20 72 64v82c-1 20 7 32 28 27v20c-31 9-61-2-59-35zM48-53c0 20 12 33 32 33 41-3 63-29 60-74-43 2-92-5-92 41" id="aB"/><path fill="#999" d="M179-190L93 31C79 59 56 82 12 73V49c39 6 53-20 64-50L1-190h34L92-34l54-156h33" id="aC"/><g id="l"><use transform="matrix(0.06172839506172839,0,0,0.06172839506172839,0,0)" xlink:href="#ay"/><use transform="matrix(0.06172839506172839,0,0,0.06172839506172839,13.518518518518517,0)" xlink:href="#ax"/><use transform="matrix(0.06172839506172839,0,0,0.06172839506172839,25.864197530864196,0)" xlink:href="#az"/><use transform="matrix(0.06172839506172839,0,0,0.06172839506172839,38.20987654320987,0)" xlink:href="#ar"/><use transform="matrix(0.06172839506172839,0,0,0.06172839506172839,45.55555555555555,0)" xlink:href="#aA"/><use transform="matrix(0.06172839506172839,0,0,0.06172839506172839,57.90123456790123,0)" xlink:href="#aB"/><use transform="matrix(0.06172839506172839,0,0,0.06172839506172839,70.24691358024691,0)" xlink:href="#ar"/><use transform="matrix(0.06172839506172839,0,0,0.06172839506172839,77.5925925925926,0)" xlink:href="#aC"/></g><path fill="#999" d="M101-251c82-7 93 87 43 132L82-64C71-53 59-42 53-27h129V0H18c2-99 128-94 128-182 0-28-16-43-45-43s-46 15-49 41l-32-3c6-41 34-60 81-64" id="aD"/><path fill="#999" d="M134-131c28 9 52 24 51 62-1 50-34 73-85 73S17-19 16-69c0-36 21-54 49-61-75-25-45-126 34-121 46 3 78 18 79 63 0 33-17 51-44 57zm-34-11c31 1 46-15 46-44 0-28-17-43-47-42-29 0-46 13-45 42 1 28 16 44 46 44zm1 122c35 0 51-18 51-52 0-30-18-46-53-46-33 0-51 17-51 47 0 34 19 51 53 51" id="aE"/><path fill="#999" d="M68-38c1 34 0 65-14 84H32c9-13 17-26 17-46H33v-38h35" id="aF"/><g id="m"><use transform="matrix(0.06172839506172839,0,0,0.06172839506172839,0,0)" xlink:href="#aD"/><use transform="matrix(0.06172839506172839,0,0,0.06172839506172839,12.345679012345679,0)" xlink:href="#aE"/><use transform="matrix(0.06172839506172839,0,0,0.06172839506172839,24.691358024691358,0)" xlink:href="#aF"/></g><path fill="#999" d="M101-251c68 0 85 55 85 127S166 4 100 4C33 4 14-52 14-124c0-73 17-127 87-127zm-1 229c47 0 54-49 54-102s-4-102-53-102c-51 0-55 48-55 102 0 53 5 102 54 102" id="aG"/><path fill="#999" d="M27 0v-27h64v-190l-56 39v-29l58-41h29v221h61V0H27" id="aH"/><path fill="#999" d="M64 0c3-98 48-159 88-221H18v-27h164v26C143-157 98-101 97 0H64" id="aI"/><g id="n"><use transform="matrix(0.06172839506172839,0,0,0.06172839506172839,0,0)" xlink:href="#aD"/><use transform="matrix(0.06172839506172839,0,0,0.06172839506172839,12.345679012345679,0)" xlink:href="#aG"/><use transform="matrix(0.06172839506172839,0,0,0.06172839506172839,24.691358024691358,0)" xlink:href="#aH"/><use transform="matrix(0.06172839506172839,0,0,0.06172839506172839,37.03703703703704,0)" xlink:href="#aI"/></g><path fill="#999" d="M67-125c0 54 23 88 75 88 28 0 53-7 68-21v-34h-60v-39h108v91C232-14 192 4 140 4 58 4 20-42 15-125 8-236 126-280 215-234c19 10 29 26 37 47l-47 15c-11-23-29-39-63-39-53 1-75 33-75 86" id="aJ"/><path fill="#999" d="M25 0v-261h50V0H25" id="aK"/><path fill="#999" d="M110-194c64 0 96 36 96 99 0 64-35 99-97 99-61 0-95-36-95-99 0-62 34-99 96-99zm-1 164c35 0 45-28 45-65 0-40-10-65-43-65-34 0-45 26-45 65 0 36 10 65 43 65" id="aL"/><path fill="#999" d="M135-194c52 0 70 43 70 98 0 56-19 99-73 100-30 1-46-15-58-35L72 0H24l1-261h50v104c11-23 29-37 60-37zM114-30c31 0 40-27 40-66 0-37-7-63-39-63s-41 28-41 65c0 36 8 64 40 64" id="aM"/><path fill="#999" d="M133-34C117-15 103 5 69 4 32 3 11-16 11-54c-1-60 55-63 116-61 1-26-3-47-28-47-18 1-26 9-28 27l-52-2c7-38 36-58 82-57s74 22 75 68l1 82c-1 14 12 18 25 15v27c-30 8-71 5-69-32zm-48 3c29 0 43-24 42-57-32 0-66-3-65 30 0 17 8 27 23 27" id="aN"/><g id="o"><use transform="matrix(0.06172839506172839,0,0,0.06172839506172839,0,0)" xlink:href="#aJ"/><use transform="matrix(0.06172839506172839,0,0,0.06172839506172839,17.28395061728395,0)" xlink:href="#aK"/><use transform="matrix(0.06172839506172839,0,0,0.06172839506172839,23.456790123456788,0)" xlink:href="#aL"/><use transform="matrix(0.06172839506172839,0,0,0.06172839506172839,36.9753086419753,0)" xlink:href="#aM"/><use transform="matrix(0.06172839506172839,0,0,0.06172839506172839,50.49382716049382,0)" xlink:href="#aN"/><use transform="matrix(0.06172839506172839,0,0,0.06172839506172839,62.8395061728395,0)" xlink:href="#aK"/></g><path fill="#999" d="M67-125c0 53 21 87 73 88 37 1 54-22 65-47l45 17C233-25 199 4 140 4 58 4 20-42 15-125 8-235 124-281 211-232c18 10 29 29 36 50l-46 12c-8-25-30-41-62-41-52 0-71 34-72 86" id="aO"/><path fill="#999" d="M85 4C-2 5 27-109 22-190h50c7 57-23 150 33 157 60-5 35-97 40-157h50l1 190h-47c-2-12 1-28-3-38-12 25-28 42-61 42" id="aP"/><path fill="#999" d="M88-194c31-1 46 15 58 34l-1-101h50l1 261h-48c-2-10 0-23-3-31C134-8 116 4 84 4 32 4 16-41 15-95c0-56 19-97 73-99zm17 164c33 0 40-30 41-66 1-37-9-64-41-64s-38 30-39 65c0 43 13 65 39 65" id="aQ"/><g id="p"><use transform="matrix(0.06172839506172839,0,0,0.06172839506172839,0,0)" xlink:href="#aO"/><use transform="matrix(0.06172839506172839,0,0,0.06172839506172839,15.987654320987653,0)" xlink:href="#aK"/><use transform="matrix(0.06172839506172839,0,0,0.06172839506172839,22.160493827160494,0)" xlink:href="#aL"/><use transform="matrix(0.06172839506172839,0,0,0.06172839506172839,35.67901234567901,0)" xlink:href="#aP"/><use transform="matrix(0.06172839506172839,0,0,0.06172839506172839,49.19753086419753,0)" xlink:href="#aQ"/></g><path fill="#999" d="M169-182c-1-43-94-46-97-3 18 66 151 10 154 114 3 95-165 93-204 36-6-8-10-19-12-30l50-8c3 46 112 56 116 5-17-69-150-10-154-114-4-87 153-88 188-35 5 8 8 18 10 28" id="aR"/><path fill="#999" d="M115-3C79 11 28 4 28-45v-112H4v-33h27l15-45h31v45h36v33H77v99c-1 23 16 31 38 25v30" id="aS"/><path fill="#999" d="M135-150c-39-12-60 13-60 57V0H25l-1-190h47c2 13-1 29 3 40 6-28 27-53 61-41v41" id="aT"/><path fill="#999" d="M195-6C206 82 75 100 31 46c-4-6-6-13-8-21l49-6c3 16 16 24 34 25 40 0 42-37 40-79-11 22-30 35-61 35-53 0-70-43-70-97 0-56 18-96 73-97 30 0 46 14 59 34l2-30h47zm-90-29c32 0 41-27 41-63 0-35-9-62-40-62-32 0-39 29-40 63 0 36 9 62 39 62" id="aU"/><path fill="#999" d="M185-48c-13 30-37 53-82 52C43 2 14-33 14-96s30-98 90-98c62 0 83 45 84 108H66c0 31 8 55 39 56 18 0 30-7 34-22zm-45-69c5-46-57-63-70-21-2 6-4 13-4 21h74" id="aV"/><g id="q"><use transform="matrix(0.06172839506172839,0,0,0.06172839506172839,0,0)" xlink:href="#aR"/><use transform="matrix(0.06172839506172839,0,0,0.06172839506172839,14.814814814814813,0)" xlink:href="#aS"/><use transform="matrix(0.06172839506172839,0,0,0.06172839506172839,22.160493827160494,0)" xlink:href="#aL"/><use transform="matrix(0.06172839506172839,0,0,0.06172839506172839,35.67901234567901,0)" xlink:href="#aT"/><use transform="matrix(0.06172839506172839,0,0,0.06172839506172839,44.32098765432099,0)" xlink:href="#aN"/><use transform="matrix(0.06172839506172839,0,0,0.06172839506172839,56.666666666666664,0)" xlink:href="#aU"/><use transform="matrix(0.06172839506172839,0,0,0.06172839506172839,70.18518518518518,0)" xlink:href="#aV"/></g><path d="M33-154v-36h34v36H33zM33 0v-36h34V0H33" id="aW"/><g id="r"><use transform="matrix(0.05,0,0,0.05,0,0)" xlink:href="#ak"/><use transform="matrix(0.05,0,0,0.05,12.950000000000001,0)" xlink:href="#ae"/><use transform="matrix(0.05,0,0,0.05,24.950000000000003,0)" xlink:href="#aW"/></g><path d="M127-220V0H93v-220H8v-28h204v28h-85" id="aX"/><path d="M106-169C34-169 62-67 57 0H25v-261h32l-1 103c12-21 28-36 61-36 89 0 53 116 60 194h-32v-121c2-32-8-49-39-48" id="aY"/><g id="s"><use transform="matrix(0.05,0,0,0.05,0,0)" xlink:href="#aX"/><use transform="matrix(0.05,0,0,0.05,10.950000000000001,0)" xlink:href="#aY"/><use transform="matrix(0.05,0,0,0.05,20.950000000000003,0)" xlink:href="#ad"/><use transform="matrix(0.05,0,0,0.05,30.950000000000003,0)" xlink:href="#Y"/><use transform="matrix(0.05,0,0,0.05,36.900000000000006,0)" xlink:href="#ad"/></g><g id="t"><use transform="matrix(0.05,0,0,0.05,0,0)" xlink:href="#ai"/><use transform="matrix(0.05,0,0,0.05,10,0)" xlink:href="#Y"/><use transform="matrix(0.05,0,0,0.05,15.949999999999998,0)" xlink:href="#ad"/></g><path d="M210-169c-67 3-38 105-44 169h-31v-121c0-29-5-50-35-48C34-165 62-65 56 0H25l-1-190h30c1 10-1 24 2 32 10-44 99-50 107 0 11-21 27-35 58-36 85-2 47 119 55 194h-31v-121c0-29-5-49-35-48" id="aZ"/><path d="M115-194c55 1 70 41 70 98S169 2 115 4C84 4 66-9 55-30l1 105H24l-1-265h31l2 30c10-21 28-34 59-34zm-8 174c40 0 45-34 45-75s-6-73-45-74c-42 0-51 32-51 76 0 43 10 73 51 73" id="ba"/><g id="u"><use transform="matrix(0.05,0,0,0.05,0,0)" xlink:href="#aZ"/><use transform="matrix(0.05,0,0,0.05,14.950000000000001,0)" xlink:href="#am"/><use transform="matrix(0.05,0,0,0.05,24.950000000000003,0)" xlink:href="#ag"/><use transform="matrix(0.05,0,0,0.05,28.900000000000002,0)" xlink:href="#an"/><use transform="matrix(0.05,0,0,0.05,33.900000000000006,0)" xlink:href="#ab"/><use transform="matrix(0.05,0,0,0.05,37.85000000000001,0)" xlink:href="#ba"/><use transform="matrix(0.05,0,0,0.05,47.85000000000001,0)" xlink:href="#ag"/><use transform="matrix(0.05,0,0,0.05,51.80000000000001,0)" xlink:href="#ad"/></g><path d="M206 0h-36l-40-164L89 0H53L-1-190h32L70-26l43-164h34l41 164 42-164h31" id="bb"/><path d="M179-190L93 31C79 59 56 82 12 73V49c39 6 53-20 64-50L1-190h34L92-34l54-156h33" id="bc"/><path d="M135-143c-3-34-86-38-87 0 15 53 115 12 119 90S17 21 10-45l28-5c4 36 97 45 98 0-10-56-113-15-118-90-4-57 82-63 122-42 12 7 21 19 24 35" id="bd"/><g id="v"><use transform="matrix(0.05,0,0,0.05,0,0)" xlink:href="#bb"/><use transform="matrix(0.05,0,0,0.05,12.950000000000001,0)" xlink:href="#ai"/><use transform="matrix(0.05,0,0,0.05,22.950000000000003,0)" xlink:href="#bc"/><use transform="matrix(0.05,0,0,0.05,31.950000000000003,0)" xlink:href="#bd"/></g><g id="w"><use transform="matrix(0.05,0,0,0.05,0,0)" xlink:href="#an"/><use transform="matrix(0.05,0,0,0.05,5,0)" xlink:href="#Z"/></g><path d="M96-169c-40 0-48 33-48 73s9 75 48 75c24 0 41-14 43-38l32 2c-6 37-31 61-74 61-59 0-76-41-82-99-10-93 101-131 147-64 4 7 5 14 7 22l-32 3c-4-21-16-35-41-35" id="be"/><g id="x"><use transform="matrix(0.05,0,0,0.05,0,0)" xlink:href="#ai"/><use transform="matrix(0.05,0,0,0.05,10,0)" xlink:href="#Y"/><use transform="matrix(0.05,0,0,0.05,15.949999999999998,0)" xlink:href="#be"/><use transform="matrix(0.05,0,0,0.05,24.95,0)" xlink:href="#aY"/><use transform="matrix(0.05,0,0,0.05,34.95,0)" xlink:href="#ab"/><use transform="matrix(0.05,0,0,0.05,38.900000000000006,0)" xlink:href="#an"/><use transform="matrix(0.05,0,0,0.05,43.900000000000006,0)" xlink:href="#ad"/><use transform="matrix(0.05,0,0,0.05,53.900000000000006,0)" xlink:href="#be"/><use transform="matrix(0.05,0,0,0.05,62.900000000000006,0)" xlink:href="#an"/></g><use transform="matrix(0.05,0,0,0.05,0,0)" xlink:href="#ai" id="y"/><path d="M117-194c89-4 53 116 60 194h-32v-121c0-31-8-49-39-48C34-167 62-67 57 0H25l-1-190h30c1 10-1 24 2 32 11-22 29-35 61-36" id="bf"/><g id="z"><use transform="matrix(0.05,0,0,0.05,0,0)" xlink:href="#bd"/><use transform="matrix(0.05,0,0,0.05,9,0)" xlink:href="#ab"/><use transform="matrix(0.05,0,0,0.05,12.949999999999998,0)" xlink:href="#bf"/><use transform="matrix(0.05,0,0,0.05,22.95,0)" xlink:href="#ao"/><use transform="matrix(0.05,0,0,0.05,32.95,0)" xlink:href="#ag"/><use transform="matrix(0.05,0,0,0.05,36.900000000000006,0)" xlink:href="#ad"/></g><g id="A"><use transform="matrix(0.05,0,0,0.05,0,0)" xlink:href="#ad"/><use transform="matrix(0.05,0,0,0.05,10,0)" xlink:href="#bf"/><use transform="matrix(0.05,0,0,0.05,20,0)" xlink:href="#ac"/><use transform="matrix(0.05,0,0,0.05,30,0)" xlink:href="#ba"/><use transform="matrix(0.05,0,0,0.05,40,0)" xlink:href="#Z"/><use transform="matrix(0.05,0,0,0.05,50,0)" xlink:href="#ab"/><use transform="matrix(0.05,0,0,0.05,53.95,0)" xlink:href="#bf"/><use transform="matrix(0.05,0,0,0.05,63.95,0)" xlink:href="#an"/></g><g id="B"><use transform="matrix(0.05,0,0,0.05,0,0)" xlink:href="#an"/><use transform="matrix(0.05,0,0,0.05,5,0)" xlink:href="#aY"/><use transform="matrix(0.05,0,0,0.05,15,0)" xlink:href="#ai"/><use transform="matrix(0.05,0,0,0.05,25,0)" xlink:href="#an"/></g><g id="C"><use transform="matrix(0.05,0,0,0.05,0,0)" xlink:href="#Y"/><use transform="matrix(0.05,0,0,0.05,5.95,0)" xlink:href="#Z"/><use transform="matrix(0.05,0,0,0.05,15.949999999999998,0)" xlink:href="#am"/><use transform="matrix(0.05,0,0,0.05,25.950000000000003,0)" xlink:href="#an"/><use transform="matrix(0.05,0,0,0.05,30.950000000000003,0)" xlink:href="#ad"/><use transform="matrix(0.05,0,0,0.05,40.95,0)" xlink:href="#bd"/></g><path d="M101-234c-31-9-42 10-38 44h38v23H63V0H32v-167H5v-23h27c-7-52 17-82 69-68v24" id="bg"/><g id="D"><use transform="matrix(0.05,0,0,0.05,0,0)" xlink:href="#ac"/><use transform="matrix(0.05,0,0,0.05,10,0)" xlink:href="#ab"/><use transform="matrix(0.05,0,0,0.05,13.949999999999998,0)" xlink:href="#bg"/><use transform="matrix(0.05,0,0,0.05,18.6,0)" xlink:href="#bg"/><use transform="matrix(0.05,0,0,0.05,23.6,0)" xlink:href="#ad"/><use transform="matrix(0.05,0,0,0.05,33.6,0)" xlink:href="#Y"/><use transform="matrix(0.05,0,0,0.05,39.550000000000004,0)" xlink:href="#ad"/><use transform="matrix(0.05,0,0,0.05,49.550000000000004,0)" xlink:href="#bf"/><use transform="matrix(0.05,0,0,0.05,59.550000000000004,0)" xlink:href="#an"/></g><g id="E"><use transform="matrix(0.05,0,0,0.05,0,0)" xlink:href="#al"/><use transform="matrix(0.05,0,0,0.05,12.950000000000001,0)" xlink:href="#ag"/><use transform="matrix(0.05,0,0,0.05,16.900000000000002,0)" xlink:href="#Z"/><use transform="matrix(0.05,0,0,0.05,26.900000000000002,0)" xlink:href="#am"/><use transform="matrix(0.05,0,0,0.05,36.900000000000006,0)" xlink:href="#ac"/></g><g id="F"><use transform="matrix(0.05,0,0,0.05,0,0)" xlink:href="#V"/><use transform="matrix(0.05,0,0,0.05,12,0)" xlink:href="#an"/><use transform="matrix(0.05,0,0,0.05,17,0)" xlink:href="#Z"/><use transform="matrix(0.05,0,0,0.05,27,0)" xlink:href="#Y"/><use transform="matrix(0.05,0,0,0.05,32.95,0)" xlink:href="#ai"/><use transform="matrix(0.05,0,0,0.05,42.95,0)" xlink:href="#ao"/><use transform="matrix(0.05,0,0,0.05,52.95,0)" xlink:href="#ad"/></g><path d="M33 0v-38h34V0H33" id="bh"/><g id="G"><use transform="matrix(0.05,0,0,0.05,0,0)" xlink:href="#X"/><use transform="matrix(0.05,0,0,0.05,12,0)" xlink:href="#Y"/><use transform="matrix(0.05,0,0,0.05,17.95,0)" xlink:href="#Z"/><use transform="matrix(0.05,0,0,0.05,27.950000000000003,0)" xlink:href="#aa"/><use transform="matrix(0.05,0,0,0.05,36.95,0)" xlink:href="#ab"/><use transform="matrix(0.05,0,0,0.05,40.900000000000006,0)" xlink:href="#ac"/><use transform="matrix(0.05,0,0,0.05,50.900000000000006,0)" xlink:href="#ad"/><use transform="matrix(0.05,0,0,0.05,60.900000000000006,0)" xlink:href="#Y"/><use transform="matrix(0.05,0,0,0.05,66.85000000000001,0)" xlink:href="#bd"/><use transform="matrix(0.05,0,0,0.05,75.85000000000001,0)" xlink:href="#bh"/></g><g id="H"><use transform="matrix(0.05,0,0,0.05,0,0)" xlink:href="#V"/><use transform="matrix(0.05,0,0,0.05,12,0)" xlink:href="#ad"/><use transform="matrix(0.05,0,0,0.05,22,0)" xlink:href="#ad"/></g><g id="I"><use transform="matrix(0.05,0,0,0.05,0,0)" xlink:href="#ai"/><use transform="matrix(0.05,0,0,0.05,10,0)" xlink:href="#Y"/><use transform="matrix(0.05,0,0,0.05,15.949999999999998,0)" xlink:href="#an"/><use transform="matrix(0.05,0,0,0.05,20.95,0)" xlink:href="#ab"/><use transform="matrix(0.05,0,0,0.05,24.9,0)" xlink:href="#be"/><use transform="matrix(0.05,0,0,0.05,33.9,0)" xlink:href="#ag"/><use transform="matrix(0.05,0,0,0.05,37.85,0)" xlink:href="#ad"/></g><g id="J"><use transform="matrix(0.05,0,0,0.05,0,0)" xlink:href="#bg"/><use transform="matrix(0.05,0,0,0.05,5,0)" xlink:href="#Z"/><use transform="matrix(0.05,0,0,0.05,15,0)" xlink:href="#Y"/></g><g id="K"><use transform="matrix(0.05,0,0,0.05,0,0)" xlink:href="#ac"/><use transform="matrix(0.05,0,0,0.05,10,0)" xlink:href="#ad"/><use transform="matrix(0.05,0,0,0.05,20,0)" xlink:href="#an"/><use transform="matrix(0.05,0,0,0.05,25,0)" xlink:href="#ai"/><use transform="matrix(0.05,0,0,0.05,35,0)" xlink:href="#ab"/><use transform="matrix(0.05,0,0,0.05,38.95,0)" xlink:href="#ag"/><use transform="matrix(0.05,0,0,0.05,42.900000000000006,0)" xlink:href="#bd"/><use transform="matrix(0.05,0,0,0.05,51.900000000000006,0)" xlink:href="#bh"/></g><path d="M18-100v-36l175-74v27L42-118l151 64v27" id="bi"/><g id="L"><use transform="matrix(0.05,0,0,0.05,0,0)" xlink:href="#bi"/><use transform="matrix(0.05,0,0,0.05,10.5,0)" xlink:href="#be"/><use transform="matrix(0.05,0,0,0.05,19.5,0)" xlink:href="#am"/><use transform="matrix(0.05,0,0,0.05,29.5,0)" xlink:href="#bd"/><use transform="matrix(0.05,0,0,0.05,38.5,0)" xlink:href="#an"/><use transform="matrix(0.05,0,0,0.05,43.5,0)" xlink:href="#Z"/><use transform="matrix(0.05,0,0,0.05,53.5,0)" xlink:href="#aZ"/></g><path d="M18-27v-27l151-64-151-65v-27l175 74v36" id="bj"/><g id="M"><use transform="matrix(0.05,0,0,0.05,0,0)" xlink:href="#ad"/><use transform="matrix(0.05,0,0,0.05,10,0)" xlink:href="#bf"/><use transform="matrix(0.05,0,0,0.05,20,0)" xlink:href="#ac"/><use transform="matrix(0.05,0,0,0.05,30,0)" xlink:href="#ba"/><use transform="matrix(0.05,0,0,0.05,40,0)" xlink:href="#Z"/><use transform="matrix(0.05,0,0,0.05,50,0)" xlink:href="#ab"/><use transform="matrix(0.05,0,0,0.05,53.95,0)" xlink:href="#bf"/><use transform="matrix(0.05,0,0,0.05,63.95,0)" xlink:href="#an"/><use transform="matrix(0.05,0,0,0.05,68.95,0)" xlink:href="#bj"/></g></defs></g></svg>