<svg xmlns="http://www.w3.org/2000/svg" viewBox="0 0 195 218"><circle fill="none" stroke="#010101" stroke-width="6" stroke-linecap="round" stroke-linejoin="round" stroke-miterlimit="10" cx="98.8" cy="108" r="91.2"/><circle fill="#9FCDC6" cx="97.8" cy="109" r="73.2"/><path fill="#F2F2F2" stroke="#000" stroke-width="6" stroke-linecap="round" stroke-linejoin="round" stroke-miterlimit="10" d="M79 64v14h12.1l4.3 12.3-36 62.7h18l25.2-45.4 17.3 43.5 24.9-8.8-4.9-13.3-11.9 4.8L101 64z"/><circle fill="#FFF" cx="99" cy="18" r="15"/><path fill="#9FCDC6" d="M92.4 30.7S96.5 10.1 108.9 9c0 0-11.4-11.4-21.7-.5s5.2 22.2 5.2 22.2z"/><circle fill="none" stroke="#000" stroke-width="6" stroke-linecap="round" stroke-linejoin="round" stroke-miterlimit="10" cx="99" cy="18" r="15"/><circle fill="#FFF" cx="99" cy="200" r="15"/><path fill="#94C01F" d="M92.4 212.7s4.1-20.6 16.5-21.7c0 0-11.4-11.4-21.7-.5s5.2 22.2 5.2 22.2z"/><circle fill="none" stroke="#000" stroke-width="6" stroke-linecap="round" stroke-linejoin="round" stroke-miterlimit="10" cx="99" cy="200" r="15"/><g><circle fill="#FFF" cx="177" cy="64" r="15"/><path fill="#ED741A" d="M170.4 76.7s4.1-20.6 16.5-21.7c0 0-11.4-11.4-21.7-.5-10.3 10.8 5.2 22.2 5.2 22.2z"/><circle fill="none" stroke="#000" stroke-width="6" stroke-linecap="round" stroke-linejoin="round" stroke-miterlimit="10" cx="177" cy="64" r="15"/></g><g><circle fill="#FFF" cx="177" cy="155" r="15"/><path fill="#3498D4" d="M170.4 167.7s4.1-20.6 16.5-21.7c0 0-11.4-11.4-21.7-.5-10.3 10.8 5.2 22.2 5.2 22.2z"/><circle fill="none" stroke="#000" stroke-width="6" stroke-linecap="round" stroke-linejoin="round" stroke-miterlimit="10" cx="177" cy="155" r="15"/></g><g><circle fill="#FFF" cx="18" cy="64" r="15"/><path fill="#09B5CC" d="M11.4 76.7S15.5 56.1 27.9 55c0 0-11.4-11.4-21.7-.5s5.2 22.2 5.2 22.2z"/><circle fill="none" stroke="#000" stroke-width="6" stroke-linecap="round" stroke-linejoin="round" stroke-miterlimit="10" cx="18" cy="64" r="15"/></g><g><circle fill="#FFF" cx="18" cy="155" r="15"/><path fill="#82368C" d="M11.4 167.7s4.1-20.6 16.5-21.7c0 0-11.4-11.4-21.7-.5s5.2 22.2 5.2 22.2z"/><circle fill="none" stroke="#000" stroke-width="6" stroke-linecap="round" stroke-linejoin="round" stroke-miterlimit="10" cx="18" cy="155" r="15"/></g></svg>