<svg xmlns="http://www.w3.org/2000/svg" viewBox="0 0 40 40" preserveAspectRatio="xMinYMid"><path fill="none" stroke="#020202" stroke-width="1.386" stroke-linecap="round" stroke-linejoin="round" stroke-miterlimit="10" d="M14.4 31.2h14.1l6.4 5.8-.7-5.8h3.6c.7 0 1.3-.6 1.3-1.3V16.7c0-.7-.6-1.3-1.3-1.3H14.4c-.7 0-1.3.6-1.3 1.3v13.2c-.1.7.5 1.3 1.3 1.3z"/><path fill="#FFF" d="M33.6 25.2l-19.1.2-8 8 .9-8.2H2.6c-1 0-1.7-.8-1.7-1.8V5c0-1 .8-1.8 1.7-1.8h31c1 0 1.7.8 1.7 1.8v18.5c.1.9-.7 1.7-1.7 1.7z"/><path fill="#A0CEC7" d="M26.5 3.4l-23.2 22L1.5 24 1.3 4.6l1.2-1.5"/><path fill="none" stroke="#020202" stroke-width="1.271" stroke-linecap="round" stroke-linejoin="round" stroke-miterlimit="10" d="M33.6 25.2H15l-8.5 8.2.9-8.2H2.6c-1 0-1.7-.8-1.7-1.8V5c0-1 .8-1.8 1.7-1.8h31c1 0 1.7.8 1.7 1.8v18.5c.1.9-.7 1.7-1.7 1.7z"/><circle cx="19" cy="14.1" r="1.8"/><circle cx="10.6" cy="14.1" r="1.8"/><circle cx="27.3" cy="14.1" r="1.8"/></svg>