<svg xmlns="http://www.w3.org/2000/svg" viewBox="0 0 40 40" preserveAspectRatio="xMinYMid"><path fill="#A0CEC7" d="M31.3 12.3l-4.2-.9-1.6-2.7-2.2-1.4h-5.4l-3.7 3.1-1.1 3.8-5.8 1.1L3.9 22l1.9 6.2 3.6 3.6"/><g fill="none" stroke="#020202" stroke-width="1.696" stroke-linecap="round" stroke-linejoin="round" stroke-miterlimit="10"><path d="M1.3 22.5h27.1l-5.3-4.3M23 26.8l5.4-4.3"/></g><path fill="none" stroke="#000" stroke-miterlimit="10" d="M33.6 18.7c1.8-7.4-4.9-7.5-6.4-7-.8-2.9-3-4.7-6.2-4.7-3.5 0-7.9 2.1-7.9 7.4-5.5-.8-8.9 4.1-8.9 8.9 0 5 5.1 9.8 10.2 9.8h17.5c4 0 7.2-4.2 7.2-8.1 0-3.5-2-5.8-5.5-6.3z"/></svg>