<svg xmlns="http://www.w3.org/2000/svg" viewBox="0 0 25 25" preserveAspectRatio="xMinYMid"><path fill="#A0CEC7" d="M7.6 5s.5-2.7 2.1-2.8c0 0-1.5-1.5-2.8-.1S7.6 5 7.6 5zM19.4 23.4s.5-2.7 2.1-2.8c0 0-1.5-1.5-2.8-.1-1.3 1.4.7 2.9.7 2.9zM21.9 12.1s.5-2.7 2.1-2.8c0 0-1.5-1.5-2.8-.1-1.3 1.4.7 2.9.7 2.9zM8.8 21.6s.7-3.5 2.7-3.6c0 0-1.9-1.9-3.6-.1-1.7 1.9.9 3.7.9 3.7z"/><circle fill="none" stroke="#020202" stroke-width=".8333" stroke-miterlimit="10" cx="9.8" cy="19.5" r="2.5"/><circle fill="none" stroke="#020202" stroke-width=".8333" stroke-miterlimit="10" cx="8.4" cy="3.5" r="1.9"/><circle fill="none" stroke="#020202" stroke-width=".8333" stroke-miterlimit="10" cx="20.1" cy="21.8" r="1.9"/><circle fill="none" stroke="#020202" stroke-width=".8333" stroke-miterlimit="10" cx="22.6" cy="10.4" r="1.9"/><circle fill="none" stroke="#020202" stroke-width=".8333" stroke-miterlimit="10" cx="3" cy="12.3" r="2.5"/><path fill="none" stroke="#020202" stroke-width=".5" stroke-miterlimit="10" d="M4.1 9.7l3.5-4.3M12.3 18.1l9.1-6.4M20.1 19.9l2.5-7.6M10.2 3.5l10.7 6.2M5.3 13.3l15.5-2.9"/></svg>