<svg xmlns="http://www.w3.org/2000/svg" xmlns:xlink="http://www.w3.org/1999/xlink" width="2240" height="1360"><g transform="translate(2176 0)"><path d="M-921.5 200.8c16.57 0 30 13.43 30 30V390c0 16.57-13.43 30-30 30h-745c-16.57 0-30-13.43-30-30V230.8c0-16.57 13.43-30 30-30zM-50 100c16.57 0 30 13.43 30 30v444c0 16.57-13.43 30-30 30h-320c-16.57 0-30-13.43-30-30V130c0-16.57 13.43-30 30-30z" stroke="#00987e" stroke-width="4" fill="none"/><use xlink:href="#a" transform="matrix(1,0,0,1,-400,584) translate(138.625 14.4)"/><use xlink:href="#b" transform="matrix(1,0,0,1,-400,584) translate(193.47500000000002 14.4)"/><path d="M-1615.68 507c16.57 0 30 13.43 30 30v660c0 16.57-13.43 30-30 30h-470.52c-16.57 0-30-13.43-30-30V537c0-16.57 13.43-30 30-30z" stroke="#00987e" stroke-width="4" fill="none"/><use xlink:href="#c" transform="matrix(1,0,0,1,-2116.2040905100175,1207) translate(237.525 14.4)"/><use xlink:href="#d" transform="matrix(1,0,0,1,-2116.2040905100175,1207) translate(283.475 14.4)"/><path d="M-84.1 425.6l49.1 24.6v49.2L-84.1 524l-49.1-24.6v-49.3zM-133.2 450.1l49.4 25.8M-84.1 470.1V524M-35.1 450.2L-83.8 476" stroke="#00987e" stroke-width="3" fill="#95d6cb"/><path d="M-84.1 447.4l27.7 13.9v27.8L-84.1 503l-27.7-13.9.1-27.8z" stroke="#95d6cb" stroke-width="5" fill="#5a69a4"/><path d="M-111.8 461.4l28 14.5M-56.4 461.5l-27.3 14.6M-83.7 475.8l-.4 27.8" stroke="#95d6cb" stroke-width="5" fill="#95d6cb"/><use xlink:href="#e" transform="matrix(1,0,0,1,-135,524) translate(18.025 14.4)"/><path d="M-90 224.9l48.5-24.2v-48.5L-90 176.4v48.5zM-138.5 200.5l48.5 24.3v-48.4l-48.5-24.2v48.3zM-41.8 152.2L-90 128.1l-48.2 24.1 48.2 24.1 48.2-24.1z" fill="#95d6cb"/><path d="M-90 174.8l45.4-22.6h-.1L-90 174.8zM-135.3 152.2h-.1l45.4 22.6-45.3-22.6zM-90 174.8z" fill="#95d6cb"/><path d="M-41.5 150.6L-90 126.5l-48.5 24.1-1.5.8v50.1l48.5 24.2 1.5.8 1.5-.8 48.5-24.2v-50.1l-1.5-.8zm-1.6 49.3l-45.4 22.6v-45.4l45.4-22.6v45.4zm-48.4 22.6l-45.4-22.6v-45.4l45.4 22.6v45.4zm-43.8-70.3l45.3-22.6 45.3 22.6-45.3 22.6-45.3-22.6z" fill="#444"/><path d="M-89.8 202.5l26.1-13v-26l-26.1 13.1v25.9zM-116.3 189.5l26.1 13v-25.9l-26.1-13.1v26zM-64 163.2l-26-13-26 13 26 13 26-13z" fill="#205e00"/><path d="M-90 174.8l23.4-11.6-23.4 11.6zM-113.4 163.2l23.4 11.6-23.4-11.6zM-90 174.8z" fill="#96bf3d"/><path d="M-63.5 161.6L-90 148.4l-26.5 13.2-1.5.8v28l26.5 13.2 1.5.8 1.5-.8 26.5-13.2v-28.1l-1.5-.7zm-1.6 27.2l-23.4 11.7v-23.3l23.4-11.7v23.3zm-26.4 11.7l-23.4-11.7v-23.3l23.4 11.7v23.3zm-21.9-37.3l23.4-11.7 23.4 11.6-23.4 11.7-23.4-11.6z" fill="#95d6cb"/><use xlink:href="#f" transform="matrix(1,0,0,1,-140,226.5) translate(8.049999999999997 14.4)"/><path d="M-204.1 421.6l49.1 24.6v49.2l-49.1 24.6-49.1-24.6v-49.3zM-253.2 446.1l49.4 25.8M-204.1 466.1V520M-155.1 446.2l-48.7 25.8" stroke="#00987e" stroke-width="3" fill="#95d6cb"/><path d="M-204.1 443.4l27.7 13.9v27.8l-27.7 13.9-27.7-13.9.1-27.8z" stroke="#95d6cb" stroke-width="5" fill="#ee472a"/><path d="M-231.8 457.4l28 14.5M-176.4 457.5l-27.3 14.6M-203.7 471.8l-.4 27.8" stroke="#95d6cb" stroke-width="5" fill="#95d6cb"/><use xlink:href="#g" transform="matrix(1,0,0,1,-255,520) translate(31 14.4)"/><path d="M-339.1 125.6l49.1 24.6v49.2l-49.1 24.6-49.1-24.6v-49.3zM-388.2 150.1l49.4 25.8M-339.1 170.1V224M-290.1 150.2l-48.7 25.8" stroke="#00987e" stroke-width="3" fill="#95d6cb"/><path d="M-339.1 147.4l27.7 13.9v27.8l-27.7 13.9-27.7-13.9.1-27.8z" stroke="#95d6cb" stroke-width="5" fill="#ffd44f"/><path d="M-366.8 161.4l28 14.5M-311.4 161.5l-27.3 14.6M-338.7 175.8l-.4 27.8" stroke="#95d6cb" stroke-width="5" fill="#95d6cb"/><use xlink:href="#h" transform="matrix(1,0,0,1,-390,224) translate(22 14.4)"/><path d="M-334.1 421.6l49.1 24.6v49.2l-49.1 24.6-49.1-24.6v-49.3zM-383.2 446.1l49.4 25.8M-334.1 466.1V520M-285.1 446.2l-48.7 25.8" stroke="#00987e" stroke-width="3" fill="#95d6cb"/><path d="M-334.1 443.4l27.7 13.9v27.8l-27.7 13.9-27.7-13.9.1-27.8z" stroke="#95d6cb" stroke-width="5" fill="#ae1f23"/><path d="M-361.8 457.4l28 14.5M-306.4 457.5l-27.3 14.6M-333.7 471.8l-.4 27.8" stroke="#95d6cb" stroke-width="5" fill="#95d6cb"/><use xlink:href="#i" transform="matrix(1,0,0,1,-385,520) translate(29.025 14.4)"/><path d="M-215 222.9l48.5-24.2v-48.5l-48.5 24.2v48.5zM-263.5 198.5l48.5 24.3v-48.4l-48.5-24.2v48.3zM-166.8 150.2l-48.2-24.1-48.2 24.1 48.2 24.1 48.2-24.1z" fill="#95d6cb"/><path d="M-215 172.8l45.4-22.6h-.1l-45.3 22.6zM-260.3 150.2h-.1l45.4 22.6-45.3-22.6z" fill="#95d6cb"/><path d="M-166.5 148.6l-48.5-24.1-48.5 24.1-1.5.8v50.1l48.5 24.2 1.5.8 1.5-.8 48.5-24.2v-50.1l-1.5-.8zm-1.6 49.3l-45.4 22.6v-45.4l45.4-22.6v45.4zm-48.4 22.6l-45.4-22.6v-45.4l45.4 22.6v45.4zm-43.8-70.3l45.3-22.6 45.3 22.6-45.3 22.6-45.3-22.6z" fill="#444"/><path d="M-214.8 200.5l26.1-13v-26l-26.1 13.1v25.9zM-241.3 187.5l26.1 13v-25.9l-26.1-13.1v26zM-189 161.2l-26-13-26 13 26 13 26-13z" fill="#4090d7"/><path d="M-215 172.8l23.4-11.6-23.4 11.6zM-238.4 161.2l23.4 11.6-23.4-11.6z" fill="#96bf3d"/><path d="M-188.5 159.6l-26.5-13.2-26.5 13.2-1.5.8v28l26.5 13.2 1.5.8 1.5-.8 26.5-13.2v-28.1l-1.5-.7zm-1.6 27.2l-23.4 11.7v-23.3l23.4-11.7v23.3zm-26.4 11.7l-23.4-11.7v-23.3l23.4 11.7v23.3zm-21.9-37.3l23.4-11.7 23.4 11.6-23.4 11.7-23.4-11.6z" fill="#95d6cb"/><use xlink:href="#j" transform="matrix(1,0,0,1,-265,224.5) translate(31.525 14.4)"/><path d="M-1977.9 559c0-1.66 1.34-3 3-3h247.92c1.66 0 3 1.34 3 3v33c0 1.66-1.34 3-3 3h-247.92c-1.66 0-3-1.34-3-3z" stroke="#00987e" stroke-width="4" fill="#95d6cb"/><use xlink:href="#k" transform="matrix(1,0,0,1,-1977.9011224459655,556) translate(105.055 24.15)"/><path d="M-1574.46 220c49.86 0 90.54 38.7 90.54 86.58 0 47.88-40.68 86.76-90.54 86.76-50.04 0-90.54-38.88-90.54-86.76s40.5-86.58 90.54-86.58z" fill="#95d6cb"/><path d="M-1483.92 306.76v7.38c0 47.88-40.68 86.76-90.54 86.76-50.04 0-90.54-38.88-90.54-86.76v-7.38c0 47.7 40.5 86.58 90.54 86.58 49.86 0 90.54-38.88 90.54-86.58z" fill="#608a83"/><path d="M-1488.24 333.04v7.56c-1.8 5.22-4.14 10.26-6.84 15.12v-7.56c2.7-4.68 5.04-9.9 6.84-15.12M-1495.08 348.16v7.56c-15.3 26.82-45.18 45.18-79.38 45.18-50.04 0-90.54-38.88-90.54-86.76v-7.38c0 47.7 40.5 86.58 90.54 86.58 34.2 0 64.08-18.18 79.38-45.18M-1483.92 306.76v7.38c0 4.32-.36 8.46-.9 12.42V319c.54-3.96.9-8.1.9-12.24" fill="#608a83"/><path d="M-1484.82 319v7.56c-.9 4.86-1.98 9.54-3.42 14.04v-7.56c1.44-4.5 2.52-9.18 3.42-14.04" fill="#608a83"/><path d="M-1517.22 276.34h-29.52v-5.76l-9 11.16-4.32-5.76-41.4 25.56h35.1v-6.12l19.62 7.2v-10.44h29.52v28.26h-29.52V310l-19.62 7.02v-5.94h-35.1l41.76 25.56 3.96-5.94 9 11.34v-5.76h29.52v28.44h-29.52v-11.34l-20.34-4.68 2.88-5.76-51.12-31.86v18.9h-32.76v-47.34h32.76v18.9l51.48-31.86-3.24-5.76 20.34-4.68V247.9h29.52v28.44z" fill="#fff"/><path d="M-1017.46 220c49.86 0 90.54 38.7 90.54 86.58 0 47.88-40.68 86.76-90.54 86.76-50.04 0-90.54-38.88-90.54-86.76s40.5-86.58 90.54-86.58z" fill="#95d6cb"/><path d="M-926.92 306.76v7.38c0 47.88-40.68 86.76-90.54 86.76-50.04 0-90.54-38.88-90.54-86.76v-7.38c0 47.7 40.5 86.58 90.54 86.58 49.86 0 90.54-38.88 90.54-86.58z" fill="#608a83"/><path d="M-931.24 333.04v7.56c-1.8 5.22-4.14 10.26-6.84 15.12v-7.56c2.7-4.68 5.04-9.9 6.84-15.12M-938.08 348.16v7.56c-15.3 26.82-45.18 45.18-79.38 45.18-50.04 0-90.54-38.88-90.54-86.76v-7.38c0 47.7 40.5 86.58 90.54 86.58 34.2 0 64.08-18.18 79.38-45.18M-926.92 306.76v7.38c0 4.32-.36 8.46-.9 12.42V319c.54-3.96.9-8.1.9-12.24M-927.82 319v7.56c-.9 4.86-1.98 9.54-3.42 14.04v-7.56c1.44-4.5 2.52-9.18 3.42-14.04" fill="#608a83"/><path d="M-960.22 276.34h-29.52v-5.76l-9 11.16-4.32-5.76-41.4 25.56h35.1v-6.12l19.62 7.2v-10.44h29.52v28.26h-29.52V310l-19.62 7.02v-5.94h-35.1l41.76 25.56 3.96-5.94 9 11.34v-5.76h29.52v28.44h-29.52v-11.34l-20.34-4.68 2.88-5.76-51.12-31.86v18.9h-32.76v-47.34h32.76v18.9l51.48-31.86-3.24-5.76 20.34-4.68V247.9h29.52v28.44z" fill="#fff"/><path d="M-209.6 351.05l42.3 10.08V283l-42.3 10.1v57.95z" fill="#608a83"/><path d="M-167.3 283l8.2 3.97v70.08l-8.2 4.08V283zM-191.1 296.93l-18.5-4.44v-30.25l18.5 9.12v25.56zM-209.6 382l18.5-9v-25.67l-18.5 4.56V382M-191.1 334.97l-18.5 2.28v-30.12l18.5 2.16v25.67z" fill="#95d6cb"/><path d="M-209.6 351.05l-42.3 10.08V283l42.3 10.1v57.95z" fill="#95d6cb"/><path d="M-251.9 283l-8.1 3.97v70.08l8.1 4.08V283z" fill="#608a83"/><path d="M-228 296.93l18.4-4.44v-30.25l-18.4 9.12v25.56z" fill="none"/><path d="M-209.6 382l-18.4-9v-25.67l18.4 4.56V382M-228 334.97l18.4 2.28v-30.12l-18.4 2.16v25.67zM-228 296.93l18.4-4.44v-30.25l-18.4 9.12v25.56z" fill="#608a83"/><path d="M-191.1 296.93l-18.5 3.36-18.4-3.37 18.4-4.44 18.5 4.43z" fill="#425f5a"/><path d="M-191.1 347.33l-18.5-3.36-18.4 3.36 18.4 4.56 18.5-4.57z" fill="#bbe5dd"/><use xlink:href="#l" transform="matrix(1,0,0,1,-260,382.25) translate(39 14.4)"/><path d="M-402.5 352h-238.25c-2.76 0-5-2.24-5-5v-28.57c0-2.76-2.24-5-5-5H-889" stroke="#303030" stroke-width="2" fill="none"/><path d="M-402.5 352l-14.27 4.64v-9.28zM-889 313.43l14.27-4.64v9.27z" stroke="#303030" stroke-width="2" fill="#303030"/><path d="M-1470 144c0-1.66 1.34-3 3-3h354c1.66 0 3 1.34 3 3v54c0 1.66-1.34 3-3 3h-354c-1.66 0-3-1.34-3-3z" fill="none"/><use xlink:href="#m" transform="matrix(1,0,0,1,-1470,141) translate(22.200000000000017 33.6)"/><path d="M-1977.92 623c0-1.66 1.34-3 3-3H-1727c1.66 0 3 1.34 3 3v33c0 1.66-1.34 3-3 3h-247.92c-1.66 0-3-1.34-3-3z" stroke="#00987e" stroke-width="4" fill="#95d6cb"/><use xlink:href="#n" transform="matrix(1,0,0,1,-1977.9203796613697,620) translate(106.055 24.15)"/><path d="M-1926.78 721.87l-99.74 59.7c-1.42.87-2.3.24-1.94-1.38l12.28-56.93" fill="#95d6cb"/><path d="M-1927.26 723.74l10.92 56.9c.3 1.63.56 4.3.56 5.95v27.66c0 1.66-1.34 3-3 3h-108.4v-31.13c0-1.66.26-4.32.58-5.95l10.33-53.5c.32-1.62 1.9-2.94 3.57-2.94zm.48-3.74h-88.92c-2.4 0-3.35 1.4-4.3 3.74l-10.45 56.44c-.3 1.62-.55 4.3-.55 5.95v31.13c0 2.8 2.4 3.74 4.3 3.74h112.35c3.35 0 3.35-2.33 3.35-3.74v-31.13c0-1.66-.28-4.32-.6-5.94l-11.83-56.46c-.48-2.8-.96-3.74-3.35-3.74zm0 0" fill="#020202"/><path d="M-1918.64 811.65c0 .94-.96 1.87-1.92 1.87h-101.36c-.96 0-1.9-.93-1.9-1.87V790.6c0-.93.94-1.86 1.9-1.86h101.36c.96 0 1.92.93 1.92 1.87z" stroke="#020202" stroke-width="4" fill="none"/><path d="M-2015.22 801.37c0-2.33 1.92-4.22 4.3-4.22 2.37 0 4.3 1.9 4.3 4.22s-1.93 4.2-4.3 4.2c-2.38 0-4.3-1.88-4.3-4.2z" stroke="#020202" stroke-width="4" fill="none"/><path d="M-2028.13 783.6h113.3" stroke="#00987e" stroke-width="4" fill="none"/><path d="M-2001 787c0-1.66 1.34-3 3-3h54c1.66 0 3 1.34 3 3v33c0 1.66-1.34 3-3 3h-54c-1.66 0-3-1.34-3-3z" fill="none"/><use xlink:href="#o" transform="matrix(1,0,0,1,-2001,784) translate(10.524999999999999 23.1)"/><path d="M-1686.78 721.87l-99.74 59.7c-1.42.87-2.3.24-1.94-1.38l12.28-56.93" fill="#95d6cb"/><path d="M-1687.26 723.74l10.92 56.9c.3 1.63.56 4.3.56 5.95v27.66c0 1.66-1.34 3-3 3h-108.4v-31.13c0-1.66.26-4.32.58-5.95l10.33-53.5c.32-1.62 1.9-2.94 3.57-2.94zm.48-3.74h-88.92c-2.4 0-3.35 1.4-4.3 3.74l-10.45 56.44c-.3 1.62-.55 4.3-.55 5.95v31.13c0 2.8 2.4 3.74 4.3 3.74h112.35c3.35 0 3.35-2.33 3.35-3.74v-31.13c0-1.66-.28-4.32-.6-5.94l-11.83-56.46c-.48-2.8-.96-3.74-3.35-3.74zm0 0" fill="#020202"/><path d="M-1678.64 811.65c0 .94-.96 1.87-1.92 1.87h-101.36c-.96 0-1.9-.93-1.9-1.87V790.6c0-.93.94-1.86 1.9-1.86h101.36c.96 0 1.92.93 1.92 1.87z" stroke="#020202" stroke-width="4" fill="none"/><path d="M-1775.22 801.37c0-2.33 1.92-4.22 4.3-4.22 2.37 0 4.3 1.9 4.3 4.22s-1.93 4.2-4.3 4.2c-2.38 0-4.3-1.88-4.3-4.2z" stroke="#020202" stroke-width="4" fill="none"/><path d="M-1788.13 783.6h113.3" stroke="#00987e" stroke-width="4" fill="none"/><path d="M-1751 786.5c0-1.66 1.34-3 3-3h54c1.66 0 3 1.34 3 3v33c0 1.66-1.34 3-3 3h-54c-1.66 0-3-1.34-3-3z" fill="none"/><use xlink:href="#o" transform="matrix(1,0,0,1,-1751,783.5) translate(10.524999999999999 23.1)"/><path d="M-1806.78 721.87l-99.74 59.7c-1.42.87-2.3.24-1.94-1.38l12.28-56.93" fill="#95d6cb"/><path d="M-1807.26 723.74l10.92 56.9c.3 1.63.56 4.3.56 5.95v27.66c0 1.66-1.34 3-3 3h-108.4v-31.13c0-1.66.26-4.32.58-5.95l10.33-53.5c.32-1.62 1.9-2.94 3.57-2.94zm.48-3.74h-88.92c-2.4 0-3.35 1.4-4.3 3.74l-10.45 56.44c-.3 1.62-.55 4.3-.55 5.95v31.13c0 2.8 2.4 3.74 4.3 3.74h112.35c3.35 0 3.35-2.33 3.35-3.74v-31.13c0-1.66-.28-4.32-.6-5.94l-11.83-56.46c-.48-2.8-.96-3.74-3.35-3.74zm0 0" fill="#020202"/><path d="M-1798.64 811.65c0 .94-.96 1.87-1.92 1.87h-101.36c-.96 0-1.9-.93-1.9-1.87V790.6c0-.93.94-1.86 1.9-1.86h101.36c.96 0 1.92.93 1.92 1.87z" stroke="#020202" stroke-width="4" fill="none"/><path d="M-1895.22 801.37c0-2.33 1.92-4.22 4.3-4.22 2.37 0 4.3 1.9 4.3 4.22s-1.93 4.2-4.3 4.2c-2.38 0-4.3-1.88-4.3-4.2z" stroke="#020202" stroke-width="4" fill="none"/><path d="M-1908.13 783.6h113.3" stroke="#00987e" stroke-width="4" fill="none"/><path d="M-1881 786c0-1.66 1.34-3 3-3h54c1.66 0 3 1.34 3 3v33c0 1.66-1.34 3-3 3h-54c-1.66 0-3-1.34-3-3z" fill="none"/><use xlink:href="#o" transform="matrix(1,0,0,1,-1881,783) translate(10.524999999999999 23.1)"/><path d="M-1926.78 841.87l-99.74 59.7c-1.42.87-2.3.24-1.94-1.38l12.28-56.93" fill="#95d6cb"/><path d="M-1927.26 843.74l10.92 56.9c.3 1.63.56 4.3.56 5.95v27.66c0 1.66-1.34 3-3 3h-108.4v-31.13c0-1.66.26-4.32.58-5.95l10.33-53.5c.32-1.62 1.9-2.94 3.57-2.94zm.48-3.74h-88.92c-2.4 0-3.35 1.4-4.3 3.74l-10.45 56.44c-.3 1.62-.55 4.3-.55 5.95v31.13c0 2.8 2.4 3.74 4.3 3.74h112.35c3.35 0 3.35-2.33 3.35-3.74v-31.13c0-1.66-.28-4.32-.6-5.94l-11.83-56.46c-.48-2.8-.96-3.74-3.35-3.74zm0 0" fill="#020202"/><path d="M-1918.64 931.65c0 .94-.96 1.87-1.92 1.87h-101.36c-.96 0-1.9-.93-1.9-1.87V910.6c0-.93.94-1.86 1.9-1.86h101.36c.96 0 1.92.93 1.92 1.87z" stroke="#020202" stroke-width="4" fill="none"/><path d="M-2015.22 921.37c0-2.33 1.92-4.22 4.3-4.22 2.37 0 4.3 1.9 4.3 4.22s-1.93 4.2-4.3 4.2c-2.38 0-4.3-1.88-4.3-4.2z" stroke="#020202" stroke-width="4" fill="none"/><path d="M-2028.13 903.6h113.3" stroke="#00987e" stroke-width="4" fill="none"/><path d="M-2001 907c0-1.66 1.34-3 3-3h54c1.66 0 3 1.34 3 3v33c0 1.66-1.34 3-3 3h-54c-1.66 0-3-1.34-3-3z" fill="none"/><use xlink:href="#o" transform="matrix(1,0,0,1,-2001,904) translate(10.524999999999999 23.1)"/><path d="M-1686.78 841.87l-99.74 59.7c-1.42.87-2.3.24-1.94-1.38l12.28-56.93" fill="#95d6cb"/><path d="M-1687.26 843.74l10.92 56.9c.3 1.63.56 4.3.56 5.95v27.66c0 1.66-1.34 3-3 3h-108.4v-31.13c0-1.66.26-4.32.58-5.95l10.33-53.5c.32-1.62 1.9-2.94 3.57-2.94zm.48-3.74h-88.92c-2.4 0-3.35 1.4-4.3 3.74l-10.45 56.44c-.3 1.62-.55 4.3-.55 5.95v31.13c0 2.8 2.4 3.74 4.3 3.74h112.35c3.35 0 3.35-2.33 3.35-3.74v-31.13c0-1.66-.28-4.32-.6-5.94l-11.83-56.46c-.48-2.8-.96-3.74-3.35-3.74zm0 0" fill="#020202"/><path d="M-1678.64 931.65c0 .94-.96 1.87-1.92 1.87h-101.36c-.96 0-1.9-.93-1.9-1.87V910.6c0-.93.94-1.86 1.9-1.86h101.36c.96 0 1.92.93 1.92 1.87z" stroke="#020202" stroke-width="4" fill="none"/><path d="M-1775.22 921.37c0-2.33 1.92-4.22 4.3-4.22 2.37 0 4.3 1.9 4.3 4.22s-1.93 4.2-4.3 4.2c-2.38 0-4.3-1.88-4.3-4.2z" stroke="#020202" stroke-width="4" fill="none"/><path d="M-1788.13 903.6h113.3" stroke="#00987e" stroke-width="4" fill="none"/><path d="M-1751 906.5c0-1.66 1.34-3 3-3h54c1.66 0 3 1.34 3 3v33c0 1.66-1.34 3-3 3h-54c-1.66 0-3-1.34-3-3z" fill="none"/><use xlink:href="#o" transform="matrix(1,0,0,1,-1751,903.5) translate(10.524999999999999 23.1)"/><path d="M-1806.78 841.87l-99.74 59.7c-1.42.87-2.3.24-1.94-1.38l12.28-56.93" fill="#95d6cb"/><path d="M-1807.26 843.74l10.92 56.9c.3 1.63.56 4.3.56 5.95v27.66c0 1.66-1.34 3-3 3h-108.4v-31.13c0-1.66.26-4.32.58-5.95l10.33-53.5c.32-1.62 1.9-2.94 3.57-2.94zm.48-3.74h-88.92c-2.4 0-3.35 1.4-4.3 3.74l-10.45 56.44c-.3 1.62-.55 4.3-.55 5.95v31.13c0 2.8 2.4 3.74 4.3 3.74h112.35c3.35 0 3.35-2.33 3.35-3.74v-31.13c0-1.66-.28-4.32-.6-5.94l-11.83-56.46c-.48-2.8-.96-3.74-3.35-3.74zm0 0" fill="#020202"/><path d="M-1798.64 931.65c0 .94-.96 1.87-1.92 1.87h-101.36c-.96 0-1.9-.93-1.9-1.87V910.6c0-.93.94-1.86 1.9-1.86h101.36c.96 0 1.92.93 1.92 1.87z" stroke="#020202" stroke-width="4" fill="none"/><path d="M-1895.22 921.37c0-2.33 1.92-4.22 4.3-4.22 2.37 0 4.3 1.9 4.3 4.22s-1.93 4.2-4.3 4.2c-2.38 0-4.3-1.88-4.3-4.2z" stroke="#020202" stroke-width="4" fill="none"/><path d="M-1908.13 903.6h113.3" stroke="#00987e" stroke-width="4" fill="none"/><path d="M-1881 906c0-1.66 1.34-3 3-3h54c1.66 0 3 1.34 3 3v33c0 1.66-1.34 3-3 3h-54c-1.66 0-3-1.34-3-3z" fill="none"/><use xlink:href="#o" transform="matrix(1,0,0,1,-1881,903) translate(10.524999999999999 23.1)"/><path d="M-1926.78 961.87l-99.74 59.7c-1.42.87-2.3.24-1.94-1.38l12.28-56.93" fill="#95d6cb"/><path d="M-1927.26 963.74l10.92 56.9c.3 1.63.56 4.3.56 5.95v27.66c0 1.66-1.34 3-3 3h-108.4v-31.13c0-1.66.26-4.32.58-5.95l10.33-53.5c.32-1.62 1.9-2.94 3.57-2.94zm.48-3.74h-88.92c-2.4 0-3.35 1.4-4.3 3.74l-10.45 56.44c-.3 1.62-.55 4.3-.55 5.95v31.13c0 2.8 2.4 3.74 4.3 3.74h112.35c3.35 0 3.35-2.33 3.35-3.74v-31.13c0-1.66-.28-4.32-.6-5.94l-11.83-56.46c-.48-2.8-.96-3.74-3.35-3.74zm0 0" fill="#020202"/><path d="M-1918.64 1051.65c0 .94-.96 1.87-1.92 1.87h-101.36c-.96 0-1.9-.93-1.9-1.87v-21.04c0-.93.94-1.86 1.9-1.86h101.36c.96 0 1.92.93 1.92 1.87z" stroke="#020202" stroke-width="4" fill="none"/><path d="M-2015.22 1041.37c0-2.33 1.92-4.22 4.3-4.22 2.37 0 4.3 1.9 4.3 4.22s-1.93 4.2-4.3 4.2c-2.38 0-4.3-1.88-4.3-4.2z" stroke="#020202" stroke-width="4" fill="none"/><path d="M-2028.13 1023.6h113.3" stroke="#00987e" stroke-width="4" fill="none"/><path d="M-2001 1027c0-1.66 1.34-3 3-3h54c1.66 0 3 1.34 3 3v33c0 1.66-1.34 3-3 3h-54c-1.66 0-3-1.34-3-3z" fill="none"/><use xlink:href="#o" transform="matrix(1,0,0,1,-2001,1024) translate(10.524999999999999 23.1)"/><path d="M-1686.78 961.87l-99.74 59.7c-1.42.87-2.3.24-1.94-1.38l12.28-56.93" fill="#95d6cb"/><path d="M-1687.26 963.74l10.92 56.9c.3 1.63.56 4.3.56 5.95v27.66c0 1.66-1.34 3-3 3h-108.4v-31.13c0-1.66.26-4.32.58-5.95l10.33-53.5c.32-1.62 1.9-2.94 3.57-2.94zm.48-3.74h-88.92c-2.4 0-3.35 1.4-4.3 3.74l-10.45 56.44c-.3 1.62-.55 4.3-.55 5.95v31.13c0 2.8 2.4 3.74 4.3 3.74h112.35c3.35 0 3.35-2.33 3.35-3.74v-31.13c0-1.66-.28-4.32-.6-5.94l-11.83-56.46c-.48-2.8-.96-3.74-3.35-3.74zm0 0" fill="#020202"/><path d="M-1678.64 1051.65c0 .94-.96 1.87-1.92 1.87h-101.36c-.96 0-1.9-.93-1.9-1.87v-21.04c0-.93.94-1.86 1.9-1.86h101.36c.96 0 1.92.93 1.92 1.87z" stroke="#020202" stroke-width="4" fill="none"/><path d="M-1775.22 1041.37c0-2.33 1.92-4.22 4.3-4.22 2.37 0 4.3 1.9 4.3 4.22s-1.93 4.2-4.3 4.2c-2.38 0-4.3-1.88-4.3-4.2z" stroke="#020202" stroke-width="4" fill="none"/><path d="M-1788.13 1023.6h113.3" stroke="#00987e" stroke-width="4" fill="none"/><path d="M-1751 1026.5c0-1.66 1.34-3 3-3h54c1.66 0 3 1.34 3 3v33c0 1.66-1.34 3-3 3h-54c-1.66 0-3-1.34-3-3z" fill="none"/><use xlink:href="#o" transform="matrix(1,0,0,1,-1751,1023.5) translate(10.524999999999999 23.1)"/><path d="M-1806.78 961.87l-99.74 59.7c-1.42.87-2.3.24-1.94-1.38l12.28-56.93" fill="#95d6cb"/><path d="M-1807.26 963.74l10.92 56.9c.3 1.63.56 4.3.56 5.95v27.66c0 1.66-1.34 3-3 3h-108.4v-31.13c0-1.66.26-4.32.58-5.95l10.33-53.5c.32-1.62 1.9-2.94 3.57-2.94zm.48-3.74h-88.92c-2.4 0-3.35 1.4-4.3 3.74l-10.45 56.44c-.3 1.62-.55 4.3-.55 5.95v31.13c0 2.8 2.4 3.74 4.3 3.74h112.35c3.35 0 3.35-2.33 3.35-3.74v-31.13c0-1.66-.28-4.32-.6-5.94l-11.83-56.46c-.48-2.8-.96-3.74-3.35-3.74zm0 0" fill="#020202"/><path d="M-1798.64 1051.65c0 .94-.96 1.87-1.92 1.87h-101.36c-.96 0-1.9-.93-1.9-1.87v-21.04c0-.93.94-1.86 1.9-1.86h101.36c.96 0 1.92.93 1.92 1.87z" stroke="#020202" stroke-width="4" fill="none"/><path d="M-1895.22 1041.37c0-2.33 1.92-4.22 4.3-4.22 2.37 0 4.3 1.9 4.3 4.22s-1.93 4.2-4.3 4.2c-2.38 0-4.3-1.88-4.3-4.2z" stroke="#020202" stroke-width="4" fill="none"/><path d="M-1908.13 1023.6h113.3" stroke="#00987e" stroke-width="4" fill="none"/><path d="M-1881 1026c0-1.66 1.34-3 3-3h54c1.66 0 3 1.34 3 3v33c0 1.66-1.34 3-3 3h-54c-1.66 0-3-1.34-3-3z" fill="none"/><use xlink:href="#o" transform="matrix(1,0,0,1,-1881,1023) translate(10.524999999999999 23.1)"/><path d="M-447.47 507c16.56 0 30 13.43 30 30v660c0 16.57-13.44 30-30 30H-918c-16.57 0-30-13.43-30-30V537c0-16.57 13.43-30 30-30z" stroke="#00987e" stroke-width="4" fill="none"/><use xlink:href="#c" transform="matrix(1,0,0,1,-948,1207) translate(236.05 14.4)"/><use xlink:href="#p" transform="matrix(1,0,0,1,-948,1207) translate(282 14.4)"/><path d="M-798.96 559c0-1.66 1.34-3 3-3h247.92c1.66 0 3 1.34 3 3v33c0 1.66-1.34 3-3 3h-247.92c-1.66 0-3-1.34-3-3z" stroke="#00987e" stroke-width="4" fill="#95d6cb"/><use xlink:href="#k" transform="matrix(1,0,0,1,-798.9601898306848,556) translate(105.055 24.15)"/><path d="M-798.92 623c0-1.66 1.34-3 3-3H-548c1.66 0 3 1.34 3 3v33c0 1.66-1.34 3-3 3h-247.92c-1.66 0-3-1.34-3-3z" stroke="#00987e" stroke-width="4" fill="#95d6cb"/><use xlink:href="#n" transform="matrix(1,0,0,1,-798.9203796613697,620) translate(106.055 24.15)"/><path d="M-747.78 719.87l-99.74 59.7c-1.42.87-2.3.24-1.94-1.38l12.28-56.93" fill="#95d6cb"/><path d="M-748.26 721.74l10.92 56.9c.3 1.63.56 4.3.56 5.95v27.66c0 1.66-1.34 3-3 3h-108.4v-31.13c0-1.66.26-4.32.58-5.95l10.33-53.5c.32-1.62 1.9-2.94 3.57-2.94zm.48-3.74h-88.92c-2.4 0-3.35 1.4-4.3 3.74l-10.45 56.44c-.3 1.62-.55 4.3-.55 5.95v31.13c0 2.8 2.4 3.74 4.3 3.74h112.35c3.35 0 3.35-2.33 3.35-3.74v-31.13c0-1.66-.28-4.32-.6-5.94l-11.83-56.46c-.48-2.8-.96-3.74-3.35-3.74zm0 0" fill="#020202"/><path d="M-739.64 809.65c0 .94-.96 1.87-1.92 1.87h-101.36c-.96 0-1.9-.93-1.9-1.87V788.6c0-.93.94-1.86 1.9-1.86h101.36c.96 0 1.92.93 1.92 1.87z" stroke="#020202" stroke-width="4" fill="none"/><path d="M-836.22 799.37c0-2.33 1.92-4.22 4.3-4.22 2.37 0 4.3 1.9 4.3 4.22s-1.93 4.2-4.3 4.2c-2.38 0-4.3-1.88-4.3-4.2z" stroke="#020202" stroke-width="4" fill="none"/><path d="M-849.13 781.6h113.3" stroke="#00987e" stroke-width="4" fill="none"/><path d="M-822 785c0-1.66 1.34-3 3-3h54c1.66 0 3 1.34 3 3v33c0 1.66-1.34 3-3 3h-54c-1.66 0-3-1.34-3-3z" fill="none"/><use xlink:href="#o" transform="matrix(1,0,0,1,-822,782) translate(10.524999999999999 23.1)"/><path d="M-507.78 719.87l-99.74 59.7c-1.42.87-2.3.24-1.94-1.38l12.28-56.93" fill="#95d6cb"/><path d="M-508.26 721.74l10.92 56.9c.3 1.63.56 4.3.56 5.95v27.66c0 1.66-1.34 3-3 3h-108.4v-31.13c0-1.66.26-4.32.58-5.95l10.33-53.5c.32-1.62 1.9-2.94 3.57-2.94zm.48-3.74h-88.92c-2.4 0-3.35 1.4-4.3 3.74l-10.45 56.44c-.3 1.62-.55 4.3-.55 5.95v31.13c0 2.8 2.4 3.74 4.3 3.74h112.35c3.35 0 3.35-2.33 3.35-3.74v-31.13c0-1.66-.28-4.32-.6-5.94l-11.83-56.46c-.48-2.8-.96-3.74-3.35-3.74zm0 0" fill="#020202"/><path d="M-499.64 809.65c0 .94-.96 1.87-1.92 1.87h-101.36c-.96 0-1.9-.93-1.9-1.87V788.6c0-.93.94-1.86 1.9-1.86h101.36c.96 0 1.92.93 1.92 1.87z" stroke="#020202" stroke-width="4" fill="none"/><path d="M-596.22 799.37c0-2.33 1.92-4.22 4.3-4.22 2.37 0 4.3 1.9 4.3 4.22s-1.93 4.2-4.3 4.2c-2.38 0-4.3-1.88-4.3-4.2z" stroke="#020202" stroke-width="4" fill="none"/><path d="M-609.13 781.6h113.3" stroke="#00987e" stroke-width="4" fill="none"/><path d="M-572 784.5c0-1.66 1.34-3 3-3h54c1.66 0 3 1.34 3 3v33c0 1.66-1.34 3-3 3h-54c-1.66 0-3-1.34-3-3z" fill="none"/><use xlink:href="#o" transform="matrix(1,0,0,1,-572,781.5) translate(10.524999999999999 23.1)"/><path d="M-627.78 719.87l-99.74 59.7c-1.42.87-2.3.24-1.94-1.38l12.28-56.93" fill="#95d6cb"/><path d="M-628.26 721.74l10.92 56.9c.3 1.63.56 4.3.56 5.95v27.66c0 1.66-1.34 3-3 3h-108.4v-31.13c0-1.66.26-4.32.58-5.95l10.33-53.5c.32-1.62 1.9-2.94 3.57-2.94zm.48-3.74h-88.92c-2.4 0-3.35 1.4-4.3 3.74l-10.45 56.44c-.3 1.62-.55 4.3-.55 5.95v31.13c0 2.8 2.4 3.74 4.3 3.74h112.35c3.35 0 3.35-2.33 3.35-3.74v-31.13c0-1.66-.28-4.32-.6-5.94l-11.83-56.46c-.48-2.8-.96-3.74-3.35-3.74zm0 0" fill="#020202"/><path d="M-619.64 809.65c0 .94-.96 1.87-1.92 1.87h-101.36c-.96 0-1.9-.93-1.9-1.87V788.6c0-.93.94-1.86 1.9-1.86h101.36c.96 0 1.92.93 1.92 1.87z" stroke="#020202" stroke-width="4" fill="none"/><path d="M-716.22 799.37c0-2.33 1.92-4.22 4.3-4.22 2.37 0 4.3 1.9 4.3 4.22s-1.93 4.2-4.3 4.2c-2.38 0-4.3-1.88-4.3-4.2z" stroke="#020202" stroke-width="4" fill="none"/><path d="M-729.13 781.6h113.3" stroke="#00987e" stroke-width="4" fill="none"/><path d="M-702 784c0-1.66 1.34-3 3-3h54c1.66 0 3 1.34 3 3v33c0 1.66-1.34 3-3 3h-54c-1.66 0-3-1.34-3-3z" fill="none"/><use xlink:href="#o" transform="matrix(1,0,0,1,-702,781) translate(10.524999999999999 23.1)"/><path d="M-747.78 840.87l-99.74 59.7c-1.42.87-2.3.24-1.94-1.38l12.28-56.93" fill="#95d6cb"/><path d="M-748.26 842.74l10.92 56.9c.3 1.63.56 4.3.56 5.95v27.66c0 1.66-1.34 3-3 3h-108.4v-31.13c0-1.66.26-4.32.58-5.95l10.33-53.5c.32-1.62 1.9-2.94 3.57-2.94zm.48-3.74h-88.92c-2.4 0-3.35 1.4-4.3 3.74l-10.45 56.44c-.3 1.62-.55 4.3-.55 5.95v31.13c0 2.8 2.4 3.74 4.3 3.74h112.35c3.35 0 3.35-2.33 3.35-3.74v-31.13c0-1.66-.28-4.32-.6-5.94l-11.83-56.46c-.48-2.8-.96-3.74-3.35-3.74zm0 0" fill="#020202"/><path d="M-739.64 930.65c0 .94-.96 1.87-1.92 1.87h-101.36c-.96 0-1.9-.93-1.9-1.87V909.6c0-.93.94-1.86 1.9-1.86h101.36c.96 0 1.92.93 1.92 1.87z" stroke="#020202" stroke-width="4" fill="none"/><path d="M-836.22 920.37c0-2.33 1.92-4.22 4.3-4.22 2.37 0 4.3 1.9 4.3 4.22s-1.93 4.2-4.3 4.2c-2.38 0-4.3-1.88-4.3-4.2z" stroke="#020202" stroke-width="4" fill="none"/><path d="M-849.13 902.6h113.3" stroke="#00987e" stroke-width="4" fill="none"/><path d="M-822 906c0-1.66 1.34-3 3-3h54c1.66 0 3 1.34 3 3v33c0 1.66-1.34 3-3 3h-54c-1.66 0-3-1.34-3-3z" fill="none"/><use xlink:href="#o" transform="matrix(1,0,0,1,-822,903) translate(10.524999999999999 23.1)"/><path d="M-507.78 840.87l-99.74 59.7c-1.42.87-2.3.24-1.94-1.38l12.28-56.93" fill="#95d6cb"/><path d="M-508.26 842.74l10.92 56.9c.3 1.63.56 4.3.56 5.95v27.66c0 1.66-1.34 3-3 3h-108.4v-31.13c0-1.66.26-4.32.58-5.95l10.33-53.5c.32-1.62 1.9-2.94 3.57-2.94zm.48-3.74h-88.92c-2.4 0-3.35 1.4-4.3 3.74l-10.45 56.44c-.3 1.62-.55 4.3-.55 5.95v31.13c0 2.8 2.4 3.74 4.3 3.74h112.35c3.35 0 3.35-2.33 3.35-3.74v-31.13c0-1.66-.28-4.32-.6-5.94l-11.83-56.46c-.48-2.8-.96-3.74-3.35-3.74zm0 0" fill="#020202"/><path d="M-499.64 930.65c0 .94-.96 1.87-1.92 1.87h-101.36c-.96 0-1.9-.93-1.9-1.87V909.6c0-.93.94-1.86 1.9-1.86h101.36c.96 0 1.92.93 1.92 1.87z" stroke="#020202" stroke-width="4" fill="none"/><path d="M-596.22 920.37c0-2.33 1.92-4.22 4.3-4.22 2.37 0 4.3 1.9 4.3 4.22s-1.93 4.2-4.3 4.2c-2.38 0-4.3-1.88-4.3-4.2z" stroke="#020202" stroke-width="4" fill="none"/><path d="M-609.13 902.6h113.3" stroke="#00987e" stroke-width="4" fill="none"/><path d="M-572 905.5c0-1.66 1.34-3 3-3h54c1.66 0 3 1.34 3 3v33c0 1.66-1.34 3-3 3h-54c-1.66 0-3-1.34-3-3z" fill="none"/><use xlink:href="#o" transform="matrix(1,0,0,1,-572,902.5) translate(10.524999999999999 23.1)"/><path d="M-627.78 840.87l-99.74 59.7c-1.42.87-2.3.24-1.94-1.38l12.28-56.93" fill="#95d6cb"/><path d="M-628.26 842.74l10.92 56.9c.3 1.63.56 4.3.56 5.95v27.66c0 1.66-1.34 3-3 3h-108.4v-31.13c0-1.66.26-4.32.58-5.95l10.33-53.5c.32-1.62 1.9-2.94 3.57-2.94zm.48-3.74h-88.92c-2.4 0-3.35 1.4-4.3 3.74l-10.45 56.44c-.3 1.62-.55 4.3-.55 5.95v31.13c0 2.8 2.4 3.74 4.3 3.74h112.35c3.35 0 3.35-2.33 3.35-3.74v-31.13c0-1.66-.28-4.32-.6-5.94l-11.83-56.46c-.48-2.8-.96-3.74-3.35-3.74zm0 0" fill="#020202"/><path d="M-619.64 930.65c0 .94-.96 1.87-1.92 1.87h-101.36c-.96 0-1.9-.93-1.9-1.87V909.6c0-.93.94-1.86 1.9-1.86h101.36c.96 0 1.92.93 1.92 1.87z" stroke="#020202" stroke-width="4" fill="none"/><path d="M-716.22 920.37c0-2.33 1.92-4.22 4.3-4.22 2.37 0 4.3 1.9 4.3 4.22s-1.93 4.2-4.3 4.2c-2.38 0-4.3-1.88-4.3-4.2z" stroke="#020202" stroke-width="4" fill="none"/><path d="M-729.13 902.6h113.3" stroke="#00987e" stroke-width="4" fill="none"/><path d="M-702 905c0-1.66 1.34-3 3-3h54c1.66 0 3 1.34 3 3v33c0 1.66-1.34 3-3 3h-54c-1.66 0-3-1.34-3-3z" fill="none"/><use xlink:href="#o" transform="matrix(1,0,0,1,-702,902) translate(10.524999999999999 23.1)"/><path d="M-747.78 961.87l-99.74 59.7c-1.42.87-2.3.24-1.94-1.38l12.28-56.93" fill="#95d6cb"/><path d="M-748.26 963.74l10.92 56.9c.3 1.63.56 4.3.56 5.95v27.66c0 1.66-1.34 3-3 3h-108.4v-31.13c0-1.66.26-4.32.58-5.95l10.33-53.5c.32-1.62 1.9-2.94 3.57-2.94zm.48-3.74h-88.92c-2.4 0-3.35 1.4-4.3 3.74l-10.45 56.44c-.3 1.62-.55 4.3-.55 5.95v31.13c0 2.8 2.4 3.74 4.3 3.74h112.35c3.35 0 3.35-2.33 3.35-3.74v-31.13c0-1.66-.28-4.32-.6-5.94l-11.83-56.46c-.48-2.8-.96-3.74-3.35-3.74zm0 0" fill="#020202"/><path d="M-739.64 1051.65c0 .94-.96 1.87-1.92 1.87h-101.36c-.96 0-1.9-.93-1.9-1.87v-21.04c0-.93.94-1.86 1.9-1.86h101.36c.96 0 1.92.93 1.92 1.87z" stroke="#020202" stroke-width="4" fill="none"/><path d="M-836.22 1041.37c0-2.33 1.92-4.22 4.3-4.22 2.37 0 4.3 1.9 4.3 4.22s-1.93 4.2-4.3 4.2c-2.38 0-4.3-1.88-4.3-4.2z" stroke="#020202" stroke-width="4" fill="none"/><path d="M-849.13 1023.6h113.3" stroke="#00987e" stroke-width="4" fill="none"/><path d="M-822 1027c0-1.66 1.34-3 3-3h54c1.66 0 3 1.34 3 3v33c0 1.66-1.34 3-3 3h-54c-1.66 0-3-1.34-3-3z" fill="none"/><use xlink:href="#o" transform="matrix(1,0,0,1,-822,1024) translate(10.524999999999999 23.1)"/><path d="M-507.78 961.87l-99.74 59.7c-1.42.87-2.3.24-1.94-1.38l12.28-56.93" fill="#95d6cb"/><path d="M-508.26 963.74l10.92 56.9c.3 1.63.56 4.3.56 5.95v27.66c0 1.66-1.34 3-3 3h-108.4v-31.13c0-1.66.26-4.32.58-5.95l10.33-53.5c.32-1.62 1.9-2.94 3.57-2.94zm.48-3.74h-88.92c-2.4 0-3.35 1.4-4.3 3.74l-10.45 56.44c-.3 1.62-.55 4.3-.55 5.95v31.13c0 2.8 2.4 3.74 4.3 3.74h112.35c3.35 0 3.35-2.33 3.35-3.74v-31.13c0-1.66-.28-4.32-.6-5.94l-11.83-56.46c-.48-2.8-.96-3.74-3.35-3.74zm0 0" fill="#020202"/><path d="M-499.64 1051.65c0 .94-.96 1.87-1.92 1.87h-101.36c-.96 0-1.9-.93-1.9-1.87v-21.04c0-.93.94-1.86 1.9-1.86h101.36c.96 0 1.92.93 1.92 1.87z" stroke="#020202" stroke-width="4" fill="none"/><path d="M-596.22 1041.37c0-2.33 1.92-4.22 4.3-4.22 2.37 0 4.3 1.9 4.3 4.22s-1.93 4.2-4.3 4.2c-2.38 0-4.3-1.88-4.3-4.2z" stroke="#020202" stroke-width="4" fill="none"/><path d="M-609.13 1023.6h113.3" stroke="#00987e" stroke-width="4" fill="none"/><path d="M-572 1026.5c0-1.66 1.34-3 3-3h54c1.66 0 3 1.34 3 3v33c0 1.66-1.34 3-3 3h-54c-1.66 0-3-1.34-3-3z" fill="none"/><use xlink:href="#o" transform="matrix(1,0,0,1,-572,1023.5) translate(10.524999999999999 23.1)"/><path d="M-627.78 961.87l-99.74 59.7c-1.42.87-2.3.24-1.94-1.38l12.28-56.93" fill="#95d6cb"/><path d="M-628.26 963.74l10.92 56.9c.3 1.63.56 4.3.56 5.95v27.66c0 1.66-1.34 3-3 3h-108.4v-31.13c0-1.66.26-4.32.58-5.95l10.33-53.5c.32-1.62 1.9-2.94 3.57-2.94zm.48-3.74h-88.92c-2.4 0-3.35 1.4-4.3 3.74l-10.45 56.44c-.3 1.62-.55 4.3-.55 5.95v31.13c0 2.8 2.4 3.74 4.3 3.74h112.35c3.35 0 3.35-2.33 3.35-3.74v-31.13c0-1.66-.28-4.32-.6-5.94l-11.83-56.46c-.48-2.8-.96-3.74-3.35-3.74zm0 0" fill="#020202"/><path d="M-619.64 1051.65c0 .94-.96 1.87-1.92 1.87h-101.36c-.96 0-1.9-.93-1.9-1.87v-21.04c0-.93.94-1.86 1.9-1.86h101.36c.96 0 1.92.93 1.92 1.87z" stroke="#020202" stroke-width="4" fill="none"/><path d="M-716.22 1041.37c0-2.33 1.92-4.22 4.3-4.22 2.37 0 4.3 1.9 4.3 4.22s-1.93 4.2-4.3 4.2c-2.38 0-4.3-1.88-4.3-4.2z" stroke="#020202" stroke-width="4" fill="none"/><path d="M-729.13 1023.6h113.3" stroke="#00987e" stroke-width="4" fill="none"/><path d="M-702 1026c0-1.66 1.34-3 3-3h54c1.66 0 3 1.34 3 3v33c0 1.66-1.34 3-3 3h-54c-1.66 0-3-1.34-3-3z" fill="none"/><use xlink:href="#o" transform="matrix(1,0,0,1,-702,1023) translate(10.524999999999999 23.1)"/><path d="M-1010.68 870c0 5.52-4.7 10-10.5 10s-10.5-4.48-10.5-10 4.7-10 10.5-10 10.5 4.48 10.5 10zM-955.83 870c0 5.52-4.7 10-10.5 10s-10.5-4.48-10.5-10 4.7-10 10.5-10 10.5 4.48 10.5 10zM-983.25 870c0 5.52-4.7 10-10.5 10s-10.5-4.48-10.5-10 4.7-10 10.5-10 10.5 4.48 10.5 10z" stroke="#00987e" fill="#95d6cb"/><path d="M-1069.5 507c16.57 0 30 13.43 30 30v660c0 16.57-13.43 30-30 30h-470.52c-16.57 0-30-13.43-30-30V537c0-16.57 13.43-30 30-30z" stroke="#00987e" stroke-width="4" fill="none"/><use xlink:href="#c" transform="matrix(1,0,0,1,-1570.0243626644738,1207) translate(237.525 14.4)"/><use xlink:href="#q" transform="matrix(1,0,0,1,-1570.0243626644738,1207) translate(283.475 14.4)"/><path d="M-1417.46 559c0-1.66 1.34-3 3-3h247.92c1.66 0 3 1.34 3 3v33c0 1.66-1.34 3-3 3h-247.92c-1.66 0-3-1.34-3-3z" stroke="#00987e" stroke-width="4" fill="#95d6cb"/><use xlink:href="#k" transform="matrix(1,0,0,1,-1417.4582367056848,556) translate(105.055 24.15)"/><path d="M-1416.46 623c0-1.66 1.34-3 3-3h247.92c1.66 0 3 1.34 3 3v33c0 1.66-1.34 3-3 3h-247.92c-1.66 0-3-1.34-3-3z" stroke="#00987e" stroke-width="4" fill="#95d6cb"/><use xlink:href="#n" transform="matrix(1,0,0,1,-1416.4582367056848,620) translate(106.055 24.15)"/><path d="M-1380.28 721.87l-99.74 59.7c-1.42.87-2.3.24-1.94-1.38l12.28-56.93" fill="#95d6cb"/><path d="M-1380.76 723.74l10.92 56.9c.3 1.63.57 4.3.57 5.95v27.66c0 1.66-1.35 3-3 3h-108.4v-31.13c0-1.66.25-4.32.57-5.95l10.33-53.5c.32-1.62 1.92-2.94 3.57-2.94zm.48-3.74h-88.92c-2.4 0-3.35 1.4-4.3 3.74l-10.45 56.44c-.3 1.62-.55 4.3-.55 5.95v31.13c0 2.8 2.4 3.74 4.3 3.74h112.35c3.35 0 3.35-2.33 3.35-3.74v-31.13c0-1.66-.27-4.32-.6-5.94l-11.83-56.46c-.48-2.8-.96-3.74-3.35-3.74zm0 0" fill="#020202"/><path d="M-1372.14 811.65c0 .94-.96 1.87-1.92 1.87h-101.35c-.97 0-1.92-.93-1.92-1.87V790.6c0-.93.95-1.86 1.9-1.86h101.36c.96 0 1.92.93 1.92 1.87z" stroke="#020202" stroke-width="4" fill="none"/><path d="M-1468.72 801.37c0-2.33 1.92-4.22 4.3-4.22 2.37 0 4.3 1.9 4.3 4.22s-1.93 4.2-4.3 4.2c-2.38 0-4.3-1.88-4.3-4.2z" stroke="#020202" stroke-width="4" fill="none"/><path d="M-1481.63 783.6h113.3" stroke="#00987e" stroke-width="4" fill="none"/><path d="M-1454.5 787c0-1.66 1.35-3 3-3h54c1.66 0 3 1.34 3 3v33c0 1.66-1.34 3-3 3h-54c-1.65 0-3-1.34-3-3z" fill="none"/><use xlink:href="#o" transform="matrix(1,0,0,1,-1454.498046875,784) translate(10.524999999999999 23.1)"/><path d="M-1140.28 721.87l-99.74 59.7c-1.42.87-2.3.24-1.94-1.38l12.28-56.93" fill="#95d6cb"/><path d="M-1140.76 723.74l10.92 56.9c.3 1.63.57 4.3.57 5.95v27.66c0 1.66-1.35 3-3 3h-108.4v-31.13c0-1.66.25-4.32.57-5.95l10.33-53.5c.32-1.62 1.92-2.94 3.57-2.94zm.48-3.74h-88.92c-2.4 0-3.35 1.4-4.3 3.74l-10.45 56.44c-.3 1.62-.55 4.3-.55 5.95v31.13c0 2.8 2.4 3.74 4.3 3.74h112.35c3.35 0 3.35-2.33 3.35-3.74v-31.13c0-1.66-.27-4.32-.6-5.94l-11.83-56.46c-.48-2.8-.96-3.74-3.35-3.74zm0 0" fill="#020202"/><path d="M-1132.14 811.65c0 .94-.96 1.87-1.92 1.87h-101.35c-.97 0-1.92-.93-1.92-1.87V790.6c0-.93.95-1.86 1.9-1.86h101.36c.96 0 1.92.93 1.92 1.87z" stroke="#020202" stroke-width="4" fill="none"/><path d="M-1228.72 801.37c0-2.33 1.92-4.22 4.3-4.22 2.37 0 4.3 1.9 4.3 4.22s-1.93 4.2-4.3 4.2c-2.38 0-4.3-1.88-4.3-4.2z" stroke="#020202" stroke-width="4" fill="none"/><path d="M-1241.63 783.6h113.3" stroke="#00987e" stroke-width="4" fill="none"/><path d="M-1204.5 786.5c0-1.66 1.35-3 3-3h54c1.66 0 3 1.34 3 3v33c0 1.66-1.34 3-3 3h-54c-1.65 0-3-1.34-3-3z" fill="none"/><use xlink:href="#o" transform="matrix(1,0,0,1,-1204.498046875,783.5) translate(10.524999999999999 23.1)"/><path d="M-1260.28 721.87l-99.74 59.7c-1.42.87-2.3.24-1.94-1.38l12.28-56.93" fill="#95d6cb"/><path d="M-1260.76 723.74l10.92 56.9c.3 1.63.57 4.3.57 5.95v27.66c0 1.66-1.35 3-3 3h-108.4v-31.13c0-1.66.25-4.32.57-5.95l10.33-53.5c.32-1.62 1.92-2.94 3.57-2.94zm.48-3.74h-88.92c-2.4 0-3.35 1.4-4.3 3.74l-10.45 56.44c-.3 1.62-.55 4.3-.55 5.95v31.13c0 2.8 2.4 3.74 4.3 3.74h112.35c3.35 0 3.35-2.33 3.35-3.74v-31.13c0-1.66-.27-4.32-.6-5.94l-11.83-56.46c-.48-2.8-.96-3.74-3.35-3.74zm0 0" fill="#020202"/><path d="M-1252.14 811.65c0 .94-.96 1.87-1.92 1.87h-101.35c-.97 0-1.92-.93-1.92-1.87V790.6c0-.93.95-1.86 1.9-1.86h101.36c.96 0 1.92.93 1.92 1.87z" stroke="#020202" stroke-width="4" fill="none"/><path d="M-1348.72 801.37c0-2.33 1.92-4.22 4.3-4.22 2.37 0 4.3 1.9 4.3 4.22s-1.93 4.2-4.3 4.2c-2.38 0-4.3-1.88-4.3-4.2z" stroke="#020202" stroke-width="4" fill="none"/><path d="M-1361.63 783.6h113.3" stroke="#00987e" stroke-width="4" fill="none"/><path d="M-1334.5 786c0-1.66 1.35-3 3-3h54c1.66 0 3 1.34 3 3v33c0 1.66-1.34 3-3 3h-54c-1.65 0-3-1.34-3-3z" fill="none"/><use xlink:href="#o" transform="matrix(1,0,0,1,-1334.498046875,783) translate(10.524999999999999 23.1)"/><path d="M-1380.28 841.87l-99.74 59.7c-1.42.87-2.3.24-1.94-1.38l12.28-56.93" fill="#95d6cb"/><path d="M-1380.76 843.74l10.92 56.9c.3 1.63.57 4.3.57 5.95v27.66c0 1.66-1.35 3-3 3h-108.4v-31.13c0-1.66.25-4.32.57-5.95l10.33-53.5c.32-1.62 1.92-2.94 3.57-2.94zm.48-3.74h-88.92c-2.4 0-3.35 1.4-4.3 3.74l-10.45 56.44c-.3 1.62-.55 4.3-.55 5.95v31.13c0 2.8 2.4 3.74 4.3 3.74h112.35c3.35 0 3.35-2.33 3.35-3.74v-31.13c0-1.66-.27-4.32-.6-5.94l-11.83-56.46c-.48-2.8-.96-3.74-3.35-3.74zm0 0" fill="#020202"/><path d="M-1372.14 931.65c0 .94-.96 1.87-1.92 1.87h-101.35c-.97 0-1.92-.93-1.92-1.87V910.6c0-.93.95-1.86 1.9-1.86h101.36c.96 0 1.92.93 1.92 1.87z" stroke="#020202" stroke-width="4" fill="none"/><path d="M-1468.72 921.37c0-2.33 1.92-4.22 4.3-4.22 2.37 0 4.3 1.9 4.3 4.22s-1.93 4.2-4.3 4.2c-2.38 0-4.3-1.88-4.3-4.2z" stroke="#020202" stroke-width="4" fill="none"/><path d="M-1481.63 903.6h113.3" stroke="#00987e" stroke-width="4" fill="none"/><path d="M-1454.5 907c0-1.66 1.35-3 3-3h54c1.66 0 3 1.34 3 3v33c0 1.66-1.34 3-3 3h-54c-1.65 0-3-1.34-3-3z" fill="none"/><use xlink:href="#o" transform="matrix(1,0,0,1,-1454.498046875,904) translate(10.524999999999999 23.1)"/><path d="M-1140.28 841.87l-99.74 59.7c-1.42.87-2.3.24-1.94-1.38l12.28-56.93" fill="#95d6cb"/><path d="M-1140.76 843.74l10.92 56.9c.3 1.63.57 4.3.57 5.95v27.66c0 1.66-1.35 3-3 3h-108.4v-31.13c0-1.66.25-4.32.57-5.95l10.33-53.5c.32-1.62 1.92-2.94 3.57-2.94zm.48-3.74h-88.92c-2.4 0-3.35 1.4-4.3 3.74l-10.45 56.44c-.3 1.62-.55 4.3-.55 5.95v31.13c0 2.8 2.4 3.74 4.3 3.74h112.35c3.35 0 3.35-2.33 3.35-3.74v-31.13c0-1.66-.27-4.32-.6-5.94l-11.83-56.46c-.48-2.8-.96-3.74-3.35-3.74zm0 0" fill="#020202"/><path d="M-1132.14 931.65c0 .94-.96 1.87-1.92 1.87h-101.35c-.97 0-1.92-.93-1.92-1.87V910.6c0-.93.95-1.86 1.9-1.86h101.36c.96 0 1.92.93 1.92 1.87z" stroke="#020202" stroke-width="4" fill="none"/><path d="M-1228.72 921.37c0-2.33 1.92-4.22 4.3-4.22 2.37 0 4.3 1.9 4.3 4.22s-1.93 4.2-4.3 4.2c-2.38 0-4.3-1.88-4.3-4.2z" stroke="#020202" stroke-width="4" fill="none"/><path d="M-1241.63 903.6h113.3" stroke="#00987e" stroke-width="4" fill="none"/><path d="M-1204.5 906.5c0-1.66 1.35-3 3-3h54c1.66 0 3 1.34 3 3v33c0 1.66-1.34 3-3 3h-54c-1.65 0-3-1.34-3-3z" fill="none"/><use xlink:href="#o" transform="matrix(1,0,0,1,-1204.498046875,903.5) translate(10.524999999999999 23.1)"/><path d="M-1260.28 841.87l-99.74 59.7c-1.42.87-2.3.24-1.94-1.38l12.28-56.93" fill="#95d6cb"/><path d="M-1260.76 843.74l10.92 56.9c.3 1.63.57 4.3.57 5.95v27.66c0 1.66-1.35 3-3 3h-108.4v-31.13c0-1.66.25-4.32.57-5.95l10.33-53.5c.32-1.62 1.92-2.94 3.57-2.94zm.48-3.74h-88.92c-2.4 0-3.35 1.4-4.3 3.74l-10.45 56.44c-.3 1.62-.55 4.3-.55 5.95v31.13c0 2.8 2.4 3.74 4.3 3.74h112.35c3.35 0 3.35-2.33 3.35-3.74v-31.13c0-1.66-.27-4.32-.6-5.94l-11.83-56.46c-.48-2.8-.96-3.74-3.35-3.74zm0 0" fill="#020202"/><path d="M-1252.14 931.65c0 .94-.96 1.87-1.92 1.87h-101.35c-.97 0-1.92-.93-1.92-1.87V910.6c0-.93.95-1.86 1.9-1.86h101.36c.96 0 1.92.93 1.92 1.87z" stroke="#020202" stroke-width="4" fill="none"/><path d="M-1348.72 921.37c0-2.33 1.92-4.22 4.3-4.22 2.37 0 4.3 1.9 4.3 4.22s-1.93 4.2-4.3 4.2c-2.38 0-4.3-1.88-4.3-4.2z" stroke="#020202" stroke-width="4" fill="none"/><path d="M-1361.63 903.6h113.3" stroke="#00987e" stroke-width="4" fill="none"/><path d="M-1334.5 906c0-1.66 1.35-3 3-3h54c1.66 0 3 1.34 3 3v33c0 1.66-1.34 3-3 3h-54c-1.65 0-3-1.34-3-3z" fill="none"/><use xlink:href="#o" transform="matrix(1,0,0,1,-1334.498046875,903) translate(10.524999999999999 23.1)"/><path d="M-1380.28 961.87l-99.74 59.7c-1.42.87-2.3.24-1.94-1.38l12.28-56.93" fill="#95d6cb"/><path d="M-1380.76 963.74l10.92 56.9c.3 1.63.57 4.3.57 5.95v27.66c0 1.66-1.35 3-3 3h-108.4v-31.13c0-1.66.25-4.32.57-5.95l10.33-53.5c.32-1.62 1.92-2.94 3.57-2.94zm.48-3.74h-88.92c-2.4 0-3.35 1.4-4.3 3.74l-10.45 56.44c-.3 1.62-.55 4.3-.55 5.95v31.13c0 2.8 2.4 3.74 4.3 3.74h112.35c3.35 0 3.35-2.33 3.35-3.74v-31.13c0-1.66-.27-4.32-.6-5.94l-11.83-56.46c-.48-2.8-.96-3.74-3.35-3.74zm0 0" fill="#020202"/><path d="M-1372.14 1051.65c0 .94-.96 1.87-1.92 1.87h-101.35c-.97 0-1.92-.93-1.92-1.87v-21.04c0-.93.95-1.86 1.9-1.86h101.36c.96 0 1.92.93 1.92 1.87z" stroke="#020202" stroke-width="4" fill="none"/><path d="M-1468.72 1041.37c0-2.33 1.92-4.22 4.3-4.22 2.37 0 4.3 1.9 4.3 4.22s-1.93 4.2-4.3 4.2c-2.38 0-4.3-1.88-4.3-4.2z" stroke="#020202" stroke-width="4" fill="none"/><path d="M-1481.63 1023.6h113.3" stroke="#00987e" stroke-width="4" fill="none"/><path d="M-1454.5 1027c0-1.66 1.35-3 3-3h54c1.66 0 3 1.34 3 3v33c0 1.66-1.34 3-3 3h-54c-1.65 0-3-1.34-3-3z" fill="none"/><use xlink:href="#o" transform="matrix(1,0,0,1,-1454.498046875,1024) translate(10.524999999999999 23.1)"/><path d="M-1140.28 961.87l-99.74 59.7c-1.42.87-2.3.24-1.94-1.38l12.28-56.93" fill="#95d6cb"/><path d="M-1140.76 963.74l10.92 56.9c.3 1.63.57 4.3.57 5.95v27.66c0 1.66-1.35 3-3 3h-108.4v-31.13c0-1.66.25-4.32.57-5.95l10.33-53.5c.32-1.62 1.92-2.94 3.57-2.94zm.48-3.74h-88.92c-2.4 0-3.35 1.4-4.3 3.74l-10.45 56.44c-.3 1.62-.55 4.3-.55 5.95v31.13c0 2.8 2.4 3.74 4.3 3.74h112.35c3.35 0 3.35-2.33 3.35-3.74v-31.13c0-1.66-.27-4.32-.6-5.94l-11.83-56.46c-.48-2.8-.96-3.74-3.35-3.74zm0 0" fill="#020202"/><path d="M-1132.14 1051.65c0 .94-.96 1.87-1.92 1.87h-101.35c-.97 0-1.92-.93-1.92-1.87v-21.04c0-.93.95-1.86 1.9-1.86h101.36c.96 0 1.92.93 1.92 1.87z" stroke="#020202" stroke-width="4" fill="none"/><path d="M-1228.72 1041.37c0-2.33 1.92-4.22 4.3-4.22 2.37 0 4.3 1.9 4.3 4.22s-1.93 4.2-4.3 4.2c-2.38 0-4.3-1.88-4.3-4.2z" stroke="#020202" stroke-width="4" fill="none"/><path d="M-1241.63 1023.6h113.3" stroke="#00987e" stroke-width="4" fill="none"/><path d="M-1204.5 1026.5c0-1.66 1.35-3 3-3h54c1.66 0 3 1.34 3 3v33c0 1.66-1.34 3-3 3h-54c-1.65 0-3-1.34-3-3z" fill="none"/><use xlink:href="#o" transform="matrix(1,0,0,1,-1204.498046875,1023.5) translate(10.524999999999999 23.1)"/><path d="M-1260.28 961.87l-99.74 59.7c-1.42.87-2.3.24-1.94-1.38l12.28-56.93" fill="#95d6cb"/><path d="M-1260.76 963.74l10.92 56.9c.3 1.63.57 4.3.57 5.95v27.66c0 1.66-1.35 3-3 3h-108.4v-31.13c0-1.66.25-4.32.57-5.95l10.33-53.5c.32-1.62 1.92-2.94 3.57-2.94zm.48-3.74h-88.92c-2.4 0-3.35 1.4-4.3 3.74l-10.45 56.44c-.3 1.62-.55 4.3-.55 5.95v31.13c0 2.8 2.4 3.74 4.3 3.74h112.35c3.35 0 3.35-2.33 3.35-3.74v-31.13c0-1.66-.27-4.32-.6-5.94l-11.83-56.46c-.48-2.8-.96-3.74-3.35-3.74zm0 0" fill="#020202"/><path d="M-1252.14 1051.65c0 .94-.96 1.87-1.92 1.87h-101.35c-.97 0-1.92-.93-1.92-1.87v-21.04c0-.93.95-1.86 1.9-1.86h101.36c.96 0 1.92.93 1.92 1.87z" stroke="#020202" stroke-width="4" fill="none"/><path d="M-1348.72 1041.37c0-2.33 1.92-4.22 4.3-4.22 2.37 0 4.3 1.9 4.3 4.22s-1.93 4.2-4.3 4.2c-2.38 0-4.3-1.88-4.3-4.2z" stroke="#020202" stroke-width="4" fill="none"/><path d="M-1361.63 1023.6h113.3" stroke="#00987e" stroke-width="4" fill="none"/><path d="M-1334.5 1026c0-1.66 1.35-3 3-3h54c1.66 0 3 1.34 3 3v33c0 1.66-1.34 3-3 3h-54c-1.65 0-3-1.34-3-3z" fill="none"/><use xlink:href="#o" transform="matrix(1,0,0,1,-1334.498046875,1023) translate(10.524999999999999 23.1)"/><path d="M-1414 282.6c0-2.76 2.24-5 5-5h230c2.76 0 5 2.24 5 5v54.8c0 2.76-2.24 5-5 5h-230c-2.76 0-5-2.24-5-5z" fill="none"/><use xlink:href="#r" transform="matrix(1,0,0,1,-1414,277.6) translate(68.07499999999999 14.500000000000002)"/><use xlink:href="#s" transform="matrix(1,0,0,1,-1414,277.6) translate(106.525 36.1)"/><use xlink:href="#t" transform="matrix(1,0,0,1,-1414,277.6) translate(61.074999999999996 57.7)"/><path d="M-1414 364c0-2.76 2.24-5 5-5h230c2.76 0 5 2.24 5 5v50c0 2.76-2.24 5-5 5h-230c-2.76 0-5-2.24-5-5z" fill="none"/><use xlink:href="#u" transform="matrix(1,0,0,1,-1414,359.00000000000006) translate(53.125 33.6)"/><use xlink:href="#v" transform="matrix(1,0,0,1,-1414,359.00000000000006) translate(100.975 33.6)"/><path d="M-1575 400v73c0 2.76-2.24 5-5 5h-265.94c-2.76 0-5 2.24-5 5v73M-1575 400v-3" stroke="#303030" stroke-width="2" fill="none"/><path d="M-1850.94 556l-4.64-14.27h9.27z" fill="#303030"/><path d="M-1849.9 556h-2.1l-4.95-15.27h12.02zm-4.3-13.27l3.26 10.03 3.26-10.03z" fill="#303030"/><path d="M-1575 400v73c0 2.76 2.24 5 5 5h274.5c2.76 0 5 2.24 5 5v73M-1575 400v-3" stroke="#303030" stroke-width="2" fill="none"/><path d="M-1290.5 556l-4.63-14.27h9.27z" fill="#303030"/><path d="M-1289.45 556h-2.1l-4.96-15.27h12zm-4.3-13.27l3.25 10.03 3.26-10.03z" fill="#303030"/><path d="M-1575 400v73c0 2.76 2.24 5 5 5h893c2.76 0 5 2.24 5 5v73M-1575 400v-3" stroke="#303030" stroke-width="2" fill="none"/><path d="M-672 556l-4.64-14.27h9.28z" fill="#303030"/><path d="M-670.95 556h-2.1l-4.96-15.27h12zm-4.3-13.27l3.25 10.03 3.26-10.03z" fill="#303030"/><path d="M-1018 400v73c0 2.76 2.24 5 5 5h336c2.76 0 5 2.24 5 5v73M-1018 400v-3" stroke="#303030" stroke-width="2" fill="none"/><path d="M-672 556l-4.64-14.27h9.28z" fill="#303030"/><path d="M-670.95 556h-2.1l-4.96-15.27h12zm-4.3-13.27l3.25 10.03 3.26-10.03z" fill="#303030"/><path d="M-1272 1259c0-2.76 2.24-5 5-5h230c2.76 0 5 2.24 5 5v50c0 2.76-2.24 5-5 5h-230c-2.76 0-5-2.24-5-5z" fill="none"/><g><use xlink:href="#w" transform="matrix(1,0,0,1,-1272,1254) translate(6.6499999999999915 33.6)"/><use xlink:href="#x" transform="matrix(1,0,0,1,-1272,1254) translate(88.5 33.6)"/><use xlink:href="#y" transform="matrix(1,0,0,1,-1272,1254) translate(138.5 33.6)"/><use xlink:href="#z" transform="matrix(1,0,0,1,-1272,1254) translate(185.35000000000002 33.6)"/></g><path d="M-2152 37c0-2.76 2.24-5 5-5h838c2.76 0 5 2.24 5 5v38c0 2.76-2.24 5-5 5h-838c-2.76 0-5-2.24-5-5z" fill="none"/><g><use xlink:href="#A" transform="matrix(1,0,0,1,-2152,32) translate(0 31.11111111111111)"/><use xlink:href="#B" transform="matrix(1,0,0,1,-2152,32) translate(108.44444444444446 31.11111111111111)"/><use xlink:href="#C" transform="matrix(1,0,0,1,-2152,32) translate(262.22222222222223 31.11111111111111)"/><use xlink:href="#D" transform="matrix(1,0,0,1,-2152,32) translate(393.67901234567904 31.11111111111111)"/></g><path d="M-664 37c0-2.76 2.24-5 5-5H19c2.76 0 5 2.24 5 5v38c0 2.76-2.24 5-5 5h-678c-2.76 0-5-2.24-5-5z" fill="none"/><g><use xlink:href="#E" transform="matrix(1,0,0,1,-664,32) translate(412.07407407407686 28.4444444444444)"/><use xlink:href="#F" transform="matrix(1,0,0,1,-664,32) translate(469.9135802469158 28.4444444444444)"/><use xlink:href="#G" transform="matrix(1,0,0,1,-664,32) translate(547.6913580246928 28.4444444444444)"/><use xlink:href="#H" transform="matrix(1,0,0,1,-664,32) translate(571.9506172839518 28.4444444444444)"/><use xlink:href="#I" transform="matrix(1,0,0,1,-664,32) translate(613.9259259259267 28.4444444444444)"/><use xlink:href="#J" transform="matrix(1,0,0,1,-664,32) translate(638.6172839506178 28.4444444444444)"/></g><defs><path fill="#303030" d="M67-125c0 53 21 87 73 88 37 1 54-22 65-47l45 17C233-25 199 4 140 4 58 4 20-42 15-125 8-235 124-281 211-232c18 10 29 29 36 50l-46 12c-8-25-30-41-62-41-52 0-71 34-72 86" id="K"/><path fill="#303030" d="M25 0v-261h50V0H25" id="L"/><path fill="#303030" d="M25-224v-37h50v37H25zM25 0v-190h50V0H25" id="M"/><path fill="#303030" d="M185-48c-13 30-37 53-82 52C43 2 14-33 14-96s30-98 90-98c62 0 83 45 84 108H66c0 31 8 55 39 56 18 0 30-7 34-22zm-45-69c5-46-57-63-70-21-2 6-4 13-4 21h74" id="N"/><path fill="#303030" d="M135-194c87-1 58 113 63 194h-50c-7-57 23-157-34-157-59 0-34 97-39 157H25l-1-190h47c2 12-1 28 3 38 12-26 28-41 61-42" id="O"/><path fill="#303030" d="M115-3C79 11 28 4 28-45v-112H4v-33h27l15-45h31v45h36v33H77v99c-1 23 16 31 38 25v30" id="P"/><g id="a"><use transform="matrix(0.05,0,0,0.05,0,0)" xlink:href="#K"/><use transform="matrix(0.05,0,0,0.05,12.950000000000001,0)" xlink:href="#L"/><use transform="matrix(0.05,0,0,0.05,17.950000000000003,0)" xlink:href="#M"/><use transform="matrix(0.05,0,0,0.05,22.950000000000003,0)" xlink:href="#N"/><use transform="matrix(0.05,0,0,0.05,32.95,0)" xlink:href="#O"/><use transform="matrix(0.05,0,0,0.05,43.900000000000006,0)" xlink:href="#P"/></g><path fill="#303030" d="M169-182c-1-43-94-46-97-3 18 66 151 10 154 114 3 95-165 93-204 36-6-8-10-19-12-30l50-8c3 46 112 56 116 5-17-69-150-10-154-114-4-87 153-88 188-35 5 8 8 18 10 28" id="Q"/><path fill="#303030" d="M24-248c120-7 223 5 221 122C244-46 201 0 124 0H24v-248zM76-40c74 7 117-18 117-86 0-67-45-88-117-82v168" id="R"/><path fill="#303030" d="M195 0l-88-114-31 24V0H24v-248h52v113l112-113h60L142-143 257 0h-62" id="S"/><path fill="#303030" d="M137-138c1-29-70-34-71-4 15 46 118 7 119 86 1 83-164 76-172 9l43-7c4 19 20 25 44 25 33 8 57-30 24-41C81-84 22-81 20-136c-2-80 154-74 161-7" id="T"/><g id="b"><use transform="matrix(0.05,0,0,0.05,0,0)" xlink:href="#Q"/><use transform="matrix(0.05,0,0,0.05,12,0)" xlink:href="#R"/><use transform="matrix(0.05,0,0,0.05,24.950000000000003,0)" xlink:href="#S"/><use transform="matrix(0.05,0,0,0.05,37.900000000000006,0)" xlink:href="#T"/></g><path fill="#303030" d="M233-177c-1 41-23 64-60 70L243 0h-38l-65-103H63V0H30v-248c88 3 205-21 203 71zM63-129c60-2 137 13 137-47 0-61-80-42-137-45v92" id="U"/><path fill="#303030" d="M141-36C126-15 110 5 73 4 37 3 15-17 15-53c-1-64 63-63 125-63 3-35-9-54-41-54-24 1-41 7-42 31l-33-3c5-37 33-52 76-52 45 0 72 20 72 64v82c-1 20 7 32 28 27v20c-31 9-61-2-59-35zM48-53c0 20 12 33 32 33 41-3 63-29 60-74-43 2-92-5-92 41" id="V"/><path fill="#303030" d="M96-169c-40 0-48 33-48 73s9 75 48 75c24 0 41-14 43-38l32 2c-6 37-31 61-74 61-59 0-76-41-82-99-10-93 101-131 147-64 4 7 5 14 7 22l-32 3c-4-21-16-35-41-35" id="W"/><path fill="#303030" d="M143 0L79-87 56-68V0H24v-261h32v163l83-92h37l-77 82L181 0h-38" id="X"/><g id="c"><use transform="matrix(0.05,0,0,0.05,0,0)" xlink:href="#U"/><use transform="matrix(0.05,0,0,0.05,12.950000000000001,0)" xlink:href="#V"/><use transform="matrix(0.05,0,0,0.05,22.950000000000003,0)" xlink:href="#W"/><use transform="matrix(0.05,0,0,0.05,31.950000000000003,0)" xlink:href="#X"/></g><path fill="#303030" d="M27 0v-27h64v-190l-56 39v-29l58-41h29v221h61V0H27" id="Y"/><use transform="matrix(0.05,0,0,0.05,0,0)" xlink:href="#Y" id="d"/><path fill="#303030" d="M190 0L58-211 59 0H30v-248h39L202-35l-2-213h31V0h-41" id="Z"/><path fill="#303030" d="M100-194c62-1 85 37 85 99 1 63-27 99-86 99S16-35 15-95c0-66 28-99 85-99zM99-20c44 1 53-31 53-75 0-43-8-75-51-75s-53 32-53 75 10 74 51 75" id="aa"/><path fill="#303030" d="M85-194c31 0 48 13 60 33l-1-100h32l1 261h-30c-2-10 0-23-3-31C134-8 116 4 85 4 32 4 16-35 15-94c0-66 23-100 70-100zm9 24c-40 0-46 34-46 75 0 40 6 74 45 74 42 0 51-32 51-76 0-42-9-74-50-73" id="ab"/><path fill="#303030" d="M100-194c63 0 86 42 84 106H49c0 40 14 67 53 68 26 1 43-12 49-29l28 8c-11 28-37 45-77 45C44 4 14-33 15-96c1-61 26-98 85-98zm52 81c6-60-76-77-97-28-3 7-6 17-6 28h103" id="ac"/><path fill="#303030" d="M153-248C145-148 188 4 80 4 36 3 13-21 6-62l32-5c4 25 16 42 43 43 27 0 39-20 39-49v-147H72v-28h81" id="ad"/><path fill="#303030" d="M185-189c-5-48-123-54-124 2 14 75 158 14 163 119 3 78-121 87-175 55-17-10-28-26-33-46l33-7c5 56 141 63 141-1 0-78-155-14-162-118-5-82 145-84 179-34 5 7 8 16 11 25" id="ae"/><g id="e"><use transform="matrix(0.05,0,0,0.05,0,0)" xlink:href="#Z"/><use transform="matrix(0.05,0,0,0.05,12.950000000000001,0)" xlink:href="#aa"/><use transform="matrix(0.05,0,0,0.05,22.950000000000003,0)" xlink:href="#ab"/><use transform="matrix(0.05,0,0,0.05,32.95,0)" xlink:href="#ac"/><use transform="matrix(0.05,0,0,0.05,42.95,0)" xlink:href="#ad"/><use transform="matrix(0.05,0,0,0.05,51.95,0)" xlink:href="#ae"/></g><path fill="#303030" d="M108 0H70L1-190h34L89-25l56-165h34" id="af"/><path fill="#303030" d="M114-163C36-179 61-72 57 0H25l-1-190h30c1 12-1 29 2 39 6-27 23-49 58-41v29" id="ag"/><path fill="#303030" d="M24-231v-30h32v30H24zM24 0v-190h32V0H24" id="ah"/><path fill="#303030" d="M115-194c55 1 70 41 70 98S169 2 115 4C84 4 66-9 55-30l1 105H24l-1-265h31l2 30c10-21 28-34 59-34zm-8 174c40 0 45-34 45-75s-6-73-45-74c-42 0-51 32-51 76 0 43 10 73 51 73" id="ai"/><path fill="#303030" d="M59-47c-2 24 18 29 38 22v24C64 9 27 4 27-40v-127H5v-23h24l9-43h21v43h35v23H59v120" id="aj"/><g id="f"><use transform="matrix(0.05,0,0,0.05,0,0)" xlink:href="#ad"/><use transform="matrix(0.05,0,0,0.05,9,0)" xlink:href="#V"/><use transform="matrix(0.05,0,0,0.05,19,0)" xlink:href="#af"/><use transform="matrix(0.05,0,0,0.05,28,0)" xlink:href="#V"/><use transform="matrix(0.05,0,0,0.05,38,0)" xlink:href="#ae"/><use transform="matrix(0.05,0,0,0.05,50,0)" xlink:href="#W"/><use transform="matrix(0.05,0,0,0.05,59,0)" xlink:href="#ag"/><use transform="matrix(0.05,0,0,0.05,64.95,0)" xlink:href="#ah"/><use transform="matrix(0.05,0,0,0.05,68.9,0)" xlink:href="#ai"/><use transform="matrix(0.05,0,0,0.05,78.9,0)" xlink:href="#aj"/></g><g id="g"><use transform="matrix(0.05,0,0,0.05,0,0)" xlink:href="#ad"/><use transform="matrix(0.05,0,0,0.05,9,0)" xlink:href="#V"/><use transform="matrix(0.05,0,0,0.05,19,0)" xlink:href="#af"/><use transform="matrix(0.05,0,0,0.05,28,0)" xlink:href="#V"/></g><path fill="#303030" d="M30-248c87 1 191-15 191 75 0 78-77 80-158 76V0H30v-248zm33 125c57 0 124 11 124-50 0-59-68-47-124-48v98" id="ak"/><path fill="#303030" d="M179-190L93 31C79 59 56 82 12 73V49c39 6 53-20 64-50L1-190h34L92-34l54-156h33" id="al"/><path fill="#303030" d="M106-169C34-169 62-67 57 0H25v-261h32l-1 103c12-21 28-36 61-36 89 0 53 116 60 194h-32v-121c2-32-8-49-39-48" id="am"/><path fill="#303030" d="M117-194c89-4 53 116 60 194h-32v-121c0-31-8-49-39-48C34-167 62-67 57 0H25l-1-190h30c1 10-1 24 2 32 11-22 29-35 61-36" id="an"/><g id="h"><use transform="matrix(0.05,0,0,0.05,0,0)" xlink:href="#ak"/><use transform="matrix(0.05,0,0,0.05,12,0)" xlink:href="#al"/><use transform="matrix(0.05,0,0,0.05,21,0)" xlink:href="#aj"/><use transform="matrix(0.05,0,0,0.05,26,0)" xlink:href="#am"/><use transform="matrix(0.05,0,0,0.05,36,0)" xlink:href="#aa"/><use transform="matrix(0.05,0,0,0.05,46,0)" xlink:href="#an"/></g><path fill="#303030" d="M84 4C-5 8 30-112 23-190h32v120c0 31 7 50 39 49 72-2 45-101 50-169h31l1 190h-30c-1-10 1-25-2-33-11 22-28 36-60 37" id="ao"/><path fill="#303030" d="M115-194c53 0 69 39 70 98 0 66-23 100-70 100C84 3 66-7 56-30L54 0H23l1-261h32v101c10-23 28-34 59-34zm-8 174c40 0 45-34 45-75 0-40-5-75-45-74-42 0-51 32-51 76 0 43 10 73 51 73" id="ap"/><g id="i"><use transform="matrix(0.05,0,0,0.05,0,0)" xlink:href="#U"/><use transform="matrix(0.05,0,0,0.05,12.950000000000001,0)" xlink:href="#ao"/><use transform="matrix(0.05,0,0,0.05,22.950000000000003,0)" xlink:href="#ap"/><use transform="matrix(0.05,0,0,0.05,32.95,0)" xlink:href="#al"/></g><path fill="#303030" d="M135-143c-3-34-86-38-87 0 15 53 115 12 119 90S17 21 10-45l28-5c4 36 97 45 98 0-10-56-113-15-118-90-4-57 82-63 122-42 12 7 21 19 24 35" id="aq"/><g id="j"><use transform="matrix(0.05,0,0,0.05,0,0)" xlink:href="#U"/><use transform="matrix(0.05,0,0,0.05,12.950000000000001,0)" xlink:href="#ao"/><use transform="matrix(0.05,0,0,0.05,22.950000000000003,0)" xlink:href="#aq"/><use transform="matrix(0.05,0,0,0.05,31.950000000000003,0)" xlink:href="#aj"/></g><path fill="#303030" d="M143 4C61 4 22-44 18-125c-5-107 100-154 193-111 17 8 29 25 37 43l-32 9c-13-25-37-40-76-40-61 0-88 39-88 99 0 61 29 100 91 101 35 0 62-11 79-27v-45h-74v-28h105v86C228-13 192 4 143 4" id="ar"/><path fill="#303030" d="M266 0h-40l-56-210L115 0H75L2-248h35L96-30l15-64 43-154h32l59 218 59-218h35" id="as"/><g id="k"><use transform="matrix(0.05,0,0,0.05,0,0)" xlink:href="#U"/><use transform="matrix(0.05,0,0,0.05,12.950000000000001,0)" xlink:href="#ar"/><use transform="matrix(0.05,0,0,0.05,26.950000000000003,0)" xlink:href="#as"/></g><path fill="#303030" d="M126-127c33 6 58 20 58 59 0 88-139 92-164 29-3-8-5-16-6-25l32-3c6 27 21 44 54 44 32 0 52-15 52-46 0-38-36-46-79-43v-28c39 1 72-4 72-42 0-27-17-43-46-43-28 0-47 15-49 41l-32-3c6-42 35-63 81-64 48-1 79 21 79 65 0 36-21 52-52 59" id="at"/><g id="l"><use transform="matrix(0.05,0,0,0.05,0,0)" xlink:href="#ae"/><use transform="matrix(0.05,0,0,0.05,12,0)" xlink:href="#at"/></g><path fill="#303030" d="M86-200l42-18 12 35-44 11 32 37-32 21-26-44-26 44-32-21 33-37-44-11 12-35 42 18-3-48h38" id="au"/><path fill="#303030" d="M24 0v-54h51V0H24" id="av"/><path fill="#303030" d="M128-127c34 4 56 21 59 58 7 91-148 94-172 28-4-9-6-17-7-26l51-5c1 24 16 35 40 36 23 0 39-12 38-36-1-31-31-36-65-34v-40c32 2 59-3 59-33 0-20-13-33-34-33s-33 13-35 32l-50-3c6-44 37-68 86-68 50 0 83 20 83 66 0 35-22 52-53 58" id="aw"/><path fill="#303030" d="M15-91v-56l181-69v40L49-119l147 57v40" id="ax"/><path fill="#303030" d="M231 0h-52l-39-155L100 0H48L-1-190h46L77-45c9-52 24-97 36-145h53l37 145 32-145h46" id="ay"/><path fill="#303030" d="M114-157C55-157 80-60 75 0H25v-261h50l-1 109c12-26 28-41 61-42 86-1 58 113 63 194h-50c-7-57 23-157-34-157" id="az"/><path fill="#303030" d="M133-34C117-15 103 5 69 4 32 3 11-16 11-54c-1-60 55-63 116-61 1-26-3-47-28-47-18 1-26 9-28 27l-52-2c7-38 36-58 82-57s74 22 75 68l1 82c-1 14 12 18 25 15v27c-30 8-71 5-69-32zm-48 3c29 0 43-24 42-57-32 0-66-3-65 30 0 17 8 27 23 27" id="aA"/><path fill="#303030" d="M128 0H69L1-190h53L99-40l48-150h52" id="aB"/><path fill="#303030" d="M135-150c-39-12-60 13-60 57V0H25l-1-190h47c2 13-1 29 3 40 6-28 27-53 61-41v41" id="aC"/><path fill="#303030" d="M-4 44V30h207v14H-4" id="aD"/><path fill="#303030" d="M123 10C108 53 80 86 19 72V37c35 8 53-11 59-39L3-190h52l48 148c12-52 28-100 44-148h51" id="aE"/><path fill="#303030" d="M110-194c64 0 96 36 96 99 0 64-35 99-97 99-61 0-95-36-95-99 0-62 34-99 96-99zm-1 164c35 0 45-28 45-65 0-40-10-65-43-65-34 0-45 26-45 65 0 36 10 65 43 65" id="aF"/><path fill="#303030" d="M85 4C-2 5 27-109 22-190h50c7 57-23 150 33 157 60-5 35-97 40-157h50l1 190h-47c-2-12 1-28-3-38-12 25-28 42-61 42" id="aG"/><path fill="#303030" d="M88-194c31-1 46 15 58 34l-1-101h50l1 261h-48c-2-10 0-23-3-31C134-8 116 4 84 4 32 4 16-41 15-95c0-56 19-97 73-99zm17 164c33 0 40-30 41-66 1-37-9-64-41-64s-38 30-39 65c0 43 13 65 39 65" id="aH"/><path fill="#303030" d="M220-157c-53 9-28 100-34 157h-49v-107c1-27-5-49-29-50C55-147 81-57 75 0H25l-1-190h47c2 12-1 28 3 38 10-53 101-56 108 0 13-22 24-43 59-42 82 1 51 116 57 194h-49v-107c-1-25-5-48-29-50" id="aI"/><path fill="#303030" d="M15-22v-40l146-57-146-57v-40l181 69v56" id="aJ"/><g id="m"><use transform="matrix(0.05,0,0,0.05,0,0)" xlink:href="#au"/><use transform="matrix(0.05,0,0,0.05,7,0)" xlink:href="#av"/><use transform="matrix(0.05,0,0,0.05,12,0)" xlink:href="#T"/><use transform="matrix(0.05,0,0,0.05,22,0)" xlink:href="#aw"/><use transform="matrix(0.05,0,0,0.05,32,0)" xlink:href="#av"/><use transform="matrix(0.05,0,0,0.05,37,0)" xlink:href="#ax"/><use transform="matrix(0.05,0,0,0.05,47.5,0)" xlink:href="#ay"/><use transform="matrix(0.05,0,0,0.05,61.5,0)" xlink:href="#az"/><use transform="matrix(0.05,0,0,0.05,72.45,0)" xlink:href="#aA"/><use transform="matrix(0.05,0,0,0.05,82.45,0)" xlink:href="#P"/><use transform="matrix(0.05,0,0,0.05,88.4,0)" xlink:href="#N"/><use transform="matrix(0.05,0,0,0.05,98.4,0)" xlink:href="#aB"/><use transform="matrix(0.05,0,0,0.05,108.4,0)" xlink:href="#N"/><use transform="matrix(0.05,0,0,0.05,118.4,0)" xlink:href="#aC"/><use transform="matrix(0.05,0,0,0.05,125.4,0)" xlink:href="#aD"/><use transform="matrix(0.05,0,0,0.05,135.4,0)" xlink:href="#aE"/><use transform="matrix(0.05,0,0,0.05,145.4,0)" xlink:href="#aF"/><use transform="matrix(0.05,0,0,0.05,156.35,0)" xlink:href="#aG"/><use transform="matrix(0.05,0,0,0.05,167.29999999999998,0)" xlink:href="#aC"/><use transform="matrix(0.05,0,0,0.05,174.29999999999998,0)" xlink:href="#aD"/><use transform="matrix(0.05,0,0,0.05,184.29999999999998,0)" xlink:href="#aH"/><use transform="matrix(0.05,0,0,0.05,195.24999999999997,0)" xlink:href="#aF"/><use transform="matrix(0.05,0,0,0.05,206.19999999999996,0)" xlink:href="#aI"/><use transform="matrix(0.05,0,0,0.05,222.19999999999996,0)" xlink:href="#aA"/><use transform="matrix(0.05,0,0,0.05,232.19999999999996,0)" xlink:href="#M"/><use transform="matrix(0.05,0,0,0.05,237.19999999999996,0)" xlink:href="#O"/><use transform="matrix(0.05,0,0,0.05,248.14999999999998,0)" xlink:href="#aD"/><use transform="matrix(0.05,0,0,0.05,258.15,0)" xlink:href="#O"/><use transform="matrix(0.05,0,0,0.05,269.09999999999997,0)" xlink:href="#aA"/><use transform="matrix(0.05,0,0,0.05,279.09999999999997,0)" xlink:href="#aI"/><use transform="matrix(0.05,0,0,0.05,295.09999999999997,0)" xlink:href="#N"/><use transform="matrix(0.05,0,0,0.05,305.09999999999997,0)" xlink:href="#aJ"/></g><path fill="#303030" d="M240 0l2-218c-23 76-54 145-80 218h-23L58-218 59 0H30v-248h44l77 211c21-75 51-140 76-211h43V0h-30" id="aK"/><path fill="#303030" d="M140-251c81 0 123 46 123 126C263-46 219 4 140 4 59 4 17-45 17-125s42-126 123-126zm0 227c63 0 89-41 89-101s-29-99-89-99c-61 0-89 39-89 99S79-25 140-24" id="aL"/><g id="n"><use transform="matrix(0.05,0,0,0.05,0,0)" xlink:href="#aK"/><use transform="matrix(0.05,0,0,0.05,14.950000000000001,0)" xlink:href="#aL"/><use transform="matrix(0.05,0,0,0.05,28.950000000000003,0)" xlink:href="#Z"/></g><path fill="#303030" d="M30-248c118-7 216 8 213 122C240-48 200 0 122 0H30v-248zM63-27c89 8 146-16 146-99s-60-101-146-95v194" id="aM"/><g id="o"><use transform="matrix(0.05,0,0,0.05,0,0)" xlink:href="#aL"/><use transform="matrix(0.05,0,0,0.05,14,0)" xlink:href="#ae"/><use transform="matrix(0.05,0,0,0.05,26,0)" xlink:href="#aM"/></g><use transform="matrix(0.05,0,0,0.05,0,0)" xlink:href="#Z" id="p"/><path fill="#303030" d="M101-251c82-7 93 87 43 132L82-64C71-53 59-42 53-27h129V0H18c2-99 128-94 128-182 0-28-16-43-45-43s-46 15-49 41l-32-3c6-41 34-60 81-64" id="aN"/><use transform="matrix(0.05,0,0,0.05,0,0)" xlink:href="#aN" id="q"/><path fill="#303030" d="M205 0l-28-72H64L36 0H1l101-248h38L239 0h-34zm-38-99l-47-123c-12 45-31 82-46 123h93" id="aO"/><path fill="#303030" d="M16-82v-28h88v28H16" id="aP"/><g id="r"><use transform="matrix(0.05,0,0,0.05,0,0)" xlink:href="#aO"/><use transform="matrix(0.05,0,0,0.05,12,0)" xlink:href="#W"/><use transform="matrix(0.05,0,0,0.05,21,0)" xlink:href="#aj"/><use transform="matrix(0.05,0,0,0.05,26,0)" xlink:href="#ah"/><use transform="matrix(0.05,0,0,0.05,29.950000000000003,0)" xlink:href="#af"/><use transform="matrix(0.05,0,0,0.05,38.95,0)" xlink:href="#ac"/><use transform="matrix(0.05,0,0,0.05,48.95,0)" xlink:href="#aP"/><use transform="matrix(0.05,0,0,0.05,54.900000000000006,0)" xlink:href="#aO"/><use transform="matrix(0.05,0,0,0.05,66.9,0)" xlink:href="#W"/><use transform="matrix(0.05,0,0,0.05,75.9,0)" xlink:href="#aj"/><use transform="matrix(0.05,0,0,0.05,80.9,0)" xlink:href="#ah"/><use transform="matrix(0.05,0,0,0.05,84.85000000000001,0)" xlink:href="#af"/><use transform="matrix(0.05,0,0,0.05,93.85000000000001,0)" xlink:href="#ac"/></g><g id="s"><use transform="matrix(0.05,0,0,0.05,0,0)" xlink:href="#aL"/><use transform="matrix(0.05,0,0,0.05,14,0)" xlink:href="#U"/></g><g id="t"><use transform="matrix(0.05,0,0,0.05,0,0)" xlink:href="#aO"/><use transform="matrix(0.05,0,0,0.05,12,0)" xlink:href="#W"/><use transform="matrix(0.05,0,0,0.05,21,0)" xlink:href="#aj"/><use transform="matrix(0.05,0,0,0.05,26,0)" xlink:href="#ah"/><use transform="matrix(0.05,0,0,0.05,29.950000000000003,0)" xlink:href="#af"/><use transform="matrix(0.05,0,0,0.05,38.95,0)" xlink:href="#ac"/><use transform="matrix(0.05,0,0,0.05,48.95,0)" xlink:href="#aP"/><use transform="matrix(0.05,0,0,0.05,54.900000000000006,0)" xlink:href="#ak"/><use transform="matrix(0.05,0,0,0.05,66.9,0)" xlink:href="#V"/><use transform="matrix(0.05,0,0,0.05,76.9,0)" xlink:href="#aq"/><use transform="matrix(0.05,0,0,0.05,85.9,0)" xlink:href="#aq"/><use transform="matrix(0.05,0,0,0.05,94.9,0)" xlink:href="#ah"/><use transform="matrix(0.05,0,0,0.05,98.85000000000001,0)" xlink:href="#af"/><use transform="matrix(0.05,0,0,0.05,107.85000000000001,0)" xlink:href="#ac"/></g><path fill="#303030" d="M24 0v-248h52v208h133V0H24" id="aQ"/><g id="u"><use transform="matrix(0.05,0,0,0.05,0,0)" xlink:href="#aQ"/><use transform="matrix(0.05,0,0,0.05,10.950000000000001,0)" xlink:href="#aF"/><use transform="matrix(0.05,0,0,0.05,21.900000000000002,0)" xlink:href="#aA"/><use transform="matrix(0.05,0,0,0.05,31.900000000000002,0)" xlink:href="#aH"/></g><path fill="#303030" d="M182-130c37 4 62 22 62 59C244 23 116-4 24 0v-248c84 5 203-23 205 63 0 31-19 50-47 55zM76-148c40-3 101 13 101-30 0-44-60-28-101-31v61zm0 110c48-3 116 14 116-37 0-48-69-32-116-35v72" id="aR"/><path fill="#303030" d="M190-63c-7 42-38 67-86 67-59 0-84-38-90-98-12-110 154-137 174-36l-49 2c-2-19-15-32-35-32-30 0-35 28-38 64-6 74 65 87 74 30" id="aS"/><g id="v"><use transform="matrix(0.05,0,0,0.05,0,0)" xlink:href="#aR"/><use transform="matrix(0.05,0,0,0.05,12.950000000000001,0)" xlink:href="#aA"/><use transform="matrix(0.05,0,0,0.05,22.950000000000003,0)" xlink:href="#L"/><use transform="matrix(0.05,0,0,0.05,27.950000000000003,0)" xlink:href="#aA"/><use transform="matrix(0.05,0,0,0.05,37.95,0)" xlink:href="#O"/><use transform="matrix(0.05,0,0,0.05,48.900000000000006,0)" xlink:href="#aS"/><use transform="matrix(0.05,0,0,0.05,58.900000000000006,0)" xlink:href="#N"/><use transform="matrix(0.05,0,0,0.05,68.9,0)" xlink:href="#aC"/><use transform="matrix(0.05,0,0,0.05,75.9,0)" xlink:href="#T"/></g><path fill="#303030" d="M212-179c-10-28-35-45-73-45-59 0-87 40-87 99 0 60 29 101 89 101 43 0 62-24 78-52l27 14C228-24 195 4 139 4 59 4 22-46 18-125c-6-104 99-153 187-111 19 9 31 26 39 46" id="aT"/><path fill="#303030" d="M177-190C167-65 218 103 67 71c-23-6-38-20-44-43l32-5c15 47 100 32 89-28v-30C133-14 115 1 83 1 29 1 15-40 15-95c0-56 16-97 71-98 29-1 48 16 59 35 1-10 0-23 2-32h30zM94-22c36 0 50-32 50-73 0-42-14-75-50-75-39 0-46 34-46 75s6 73 46 73" id="aU"/><g id="w"><use transform="matrix(0.05,0,0,0.05,0,0)" xlink:href="#aT"/><use transform="matrix(0.05,0,0,0.05,12.950000000000001,0)" xlink:href="#aa"/><use transform="matrix(0.05,0,0,0.05,22.950000000000003,0)" xlink:href="#ai"/><use transform="matrix(0.05,0,0,0.05,32.95,0)" xlink:href="#al"/><use transform="matrix(0.05,0,0,0.05,41.95,0)" xlink:href="#ag"/><use transform="matrix(0.05,0,0,0.05,47.900000000000006,0)" xlink:href="#ah"/><use transform="matrix(0.05,0,0,0.05,51.85,0)" xlink:href="#aU"/><use transform="matrix(0.05,0,0,0.05,61.85,0)" xlink:href="#am"/><use transform="matrix(0.05,0,0,0.05,71.85000000000001,0)" xlink:href="#aj"/></g><path fill="#303030" d="M101-251c68 0 85 55 85 127S166 4 100 4C33 4 14-52 14-124c0-73 17-127 87-127zm-1 229c47 0 54-49 54-102s-4-102-53-102c-51 0-55 48-55 102 0 53 5 102 54 102" id="aV"/><path fill="#303030" d="M64 0c3-98 48-159 88-221H18v-27h164v26C143-157 98-101 97 0H64" id="aW"/><path fill="#303030" d="M68-38c1 34 0 65-14 84H32c9-13 17-26 17-46H33v-38h35" id="aX"/><g id="x"><use transform="matrix(0.05,0,0,0.05,0,0)" xlink:href="#aN"/><use transform="matrix(0.05,0,0,0.05,10,0)" xlink:href="#aV"/><use transform="matrix(0.05,0,0,0.05,20,0)" xlink:href="#Y"/><use transform="matrix(0.05,0,0,0.05,30,0)" xlink:href="#aW"/><use transform="matrix(0.05,0,0,0.05,40,0)" xlink:href="#aX"/></g><g id="y"><use transform="matrix(0.05,0,0,0.05,0,0)" xlink:href="#aT"/><use transform="matrix(0.05,0,0,0.05,12.950000000000001,0)" xlink:href="#am"/><use transform="matrix(0.05,0,0,0.05,22.950000000000003,0)" xlink:href="#ag"/><use transform="matrix(0.05,0,0,0.05,28.900000000000002,0)" xlink:href="#ah"/><use transform="matrix(0.05,0,0,0.05,32.85,0)" xlink:href="#aq"/></g><g id="z"><use transform="matrix(0.05,0,0,0.05,0,0)" xlink:href="#ad"/><use transform="matrix(0.05,0,0,0.05,9,0)" xlink:href="#aa"/><use transform="matrix(0.05,0,0,0.05,19,0)" xlink:href="#an"/><use transform="matrix(0.05,0,0,0.05,29,0)" xlink:href="#ac"/><use transform="matrix(0.05,0,0,0.05,39,0)" xlink:href="#aq"/></g><path fill="#999" d="M67-125c0 53 21 87 73 88 37 1 54-22 65-47l45 17C233-25 199 4 140 4 58 4 20-42 15-125 8-235 124-281 211-232c18 10 29 29 36 50l-46 12c-8-25-30-41-62-41-52 0-71 34-72 86" id="aY"/><path fill="#999" d="M24 0v-248h195v40H76v63h132v40H76v65h150V0H24" id="aZ"/><path fill="#999" d="M24-248c93 1 206-16 204 79-1 75-69 88-152 82V0H24v-248zm52 121c47 0 100 7 100-41 0-47-54-39-100-39v80" id="ba"/><path fill="#999" d="M186 0v-106H76V0H24v-248h52v99h110v-99h50V0h-50" id="bb"/><g id="A"><use transform="matrix(0.09876543209876544,0,0,0.09876543209876544,0,0)" xlink:href="#aY"/><use transform="matrix(0.09876543209876544,0,0,0.09876543209876544,25.58024691358025,0)" xlink:href="#aZ"/><use transform="matrix(0.09876543209876544,0,0,0.09876543209876544,49.283950617283956,0)" xlink:href="#ba"/><use transform="matrix(0.09876543209876544,0,0,0.09876543209876544,72.98765432098766,0)" xlink:href="#bb"/></g><path fill="#999" d="M140-251c80 0 125 45 125 126S219 4 139 4C58 4 15-44 15-125s44-126 125-126zm-1 214c52 0 73-35 73-88 0-50-21-86-72-86-52 0-73 35-73 86s22 88 72 88" id="bc"/><path fill="#999" d="M182-130c37 4 62 22 62 59C244 23 116-4 24 0v-248c84 5 203-23 205 63 0 31-19 50-47 55zM76-148c40-3 101 13 101-30 0-44-60-28-101-31v61zm0 110c48-3 116 14 116-37 0-48-69-32-116-35v72" id="bd"/><path fill="#999" d="M176-78C186 10 51 31 16-35c-5-9-9-19-11-32l52-8c4 21 12 37 35 38 23 0 32-16 32-40v-130H75v-41h101v170" id="be"/><path fill="#999" d="M136-208V0H84v-208H4v-40h212v40h-80" id="bf"/><g id="B"><use transform="matrix(0.09876543209876544,0,0,0.09876543209876544,0,0)" xlink:href="#bc"/><use transform="matrix(0.09876543209876544,0,0,0.09876543209876544,27.654320987654323,0)" xlink:href="#bd"/><use transform="matrix(0.09876543209876544,0,0,0.09876543209876544,53.23456790123457,0)" xlink:href="#be"/><use transform="matrix(0.09876543209876544,0,0,0.09876543209876544,72.98765432098766,0)" xlink:href="#aZ"/><use transform="matrix(0.09876543209876544,0,0,0.09876543209876544,96.69135802469137,0)" xlink:href="#aY"/><use transform="matrix(0.09876543209876544,0,0,0.09876543209876544,122.27160493827162,0)" xlink:href="#bf"/></g><path fill="#999" d="M169-182c-1-43-94-46-97-3 18 66 151 10 154 114 3 95-165 93-204 36-6-8-10-19-12-30l50-8c3 46 112 56 116 5-17-69-150-10-154-114-4-87 153-88 188-35 5 8 8 18 10 28" id="bg"/><path fill="#999" d="M240-174c0 40-23 61-54 70L253 0h-59l-57-94H76V0H24v-248c93 4 217-23 216 74zM76-134c48-2 112 12 112-38 0-48-66-32-112-35v73" id="bh"/><g id="C"><use transform="matrix(0.09876543209876544,0,0,0.09876543209876544,0,0)" xlink:href="#bg"/><use transform="matrix(0.09876543209876544,0,0,0.09876543209876544,23.703703703703706,0)" xlink:href="#bf"/><use transform="matrix(0.09876543209876544,0,0,0.09876543209876544,44.641975308641975,0)" xlink:href="#bc"/><use transform="matrix(0.09876543209876544,0,0,0.09876543209876544,72.2962962962963,0)" xlink:href="#bh"/><use transform="matrix(0.09876543209876544,0,0,0.09876543209876544,97.87654320987656,0)" xlink:href="#aZ"/></g><path fill="#999" d="M199 0l-22-63H83L61 0H9l90-248h61L250 0h-51zm-33-102l-36-108c-10 38-24 72-36 108h72" id="bi"/><path fill="#999" d="M24 0v-248h52V0H24" id="bj"/><path fill="#999" d="M238-95c0 69-44 99-111 99C63 4 22-25 22-93v-155h51v151c-1 38 19 59 55 60 90 1 49-130 58-211h52v153" id="bk"/><g id="D"><use transform="matrix(0.09876543209876544,0,0,0.09876543209876544,0,0)" xlink:href="#bi"/><use transform="matrix(0.09876543209876544,0,0,0.09876543209876544,25.58024691358025,0)" xlink:href="#bh"/><use transform="matrix(0.09876543209876544,0,0,0.09876543209876544,51.1604938271605,0)" xlink:href="#aY"/><use transform="matrix(0.09876543209876544,0,0,0.09876543209876544,76.74074074074075,0)" xlink:href="#bb"/><use transform="matrix(0.09876543209876544,0,0,0.09876543209876544,102.320987654321,0)" xlink:href="#bj"/><use transform="matrix(0.09876543209876544,0,0,0.09876543209876544,112.19753086419755,0)" xlink:href="#bf"/><use transform="matrix(0.09876543209876544,0,0,0.09876543209876544,133.82716049382717,0)" xlink:href="#aZ"/><use transform="matrix(0.09876543209876544,0,0,0.09876543209876544,157.53086419753086,0)" xlink:href="#aY"/><use transform="matrix(0.09876543209876544,0,0,0.09876543209876544,183.11111111111111,0)" xlink:href="#bf"/><use transform="matrix(0.09876543209876544,0,0,0.09876543209876544,204.7407407407407,0)" xlink:href="#bk"/><use transform="matrix(0.09876543209876544,0,0,0.09876543209876544,230.32098765432102,0)" xlink:href="#bh"/><use transform="matrix(0.09876543209876544,0,0,0.09876543209876544,255.90123456790127,0)" xlink:href="#aZ"/></g><path fill="#999" d="M212-179c-10-28-35-45-73-45-59 0-87 40-87 99 0 60 29 101 89 101 43 0 62-24 78-52l27 14C228-24 195 4 139 4 59 4 22-46 18-125c-6-104 99-153 187-111 19 9 31 26 39 46" id="bl"/><path fill="#999" d="M106-169C34-169 62-67 57 0H25v-261h32l-1 103c12-21 28-36 61-36 89 0 53 116 60 194h-32v-121c2-32-8-49-39-48" id="bm"/><path fill="#999" d="M114-163C36-179 61-72 57 0H25l-1-190h30c1 12-1 29 2 39 6-27 23-49 58-41v29" id="bn"/><path fill="#999" d="M24-231v-30h32v30H24zM24 0v-190h32V0H24" id="bo"/><path fill="#999" d="M135-143c-3-34-86-38-87 0 15 53 115 12 119 90S17 21 10-45l28-5c4 36 97 45 98 0-10-56-113-15-118-90-4-57 82-63 122-42 12 7 21 19 24 35" id="bp"/><g id="E"><use transform="matrix(0.06172839506172778,0,0,0.06172839506172778,0,0)" xlink:href="#bl"/><use transform="matrix(0.06172839506172778,0,0,0.06172839506172778,15.987654320987495,0)" xlink:href="#bm"/><use transform="matrix(0.06172839506172778,0,0,0.06172839506172778,28.33333333333305,0)" xlink:href="#bn"/><use transform="matrix(0.06172839506172778,0,0,0.06172839506172778,35.67901234567866,0)" xlink:href="#bo"/><use transform="matrix(0.06172839506172778,0,0,0.06172839506172778,40.55555555555515,0)" xlink:href="#bp"/></g><path fill="#999" d="M153-248C145-148 188 4 80 4 36 3 13-21 6-62l32-5c4 25 16 42 43 43 27 0 39-20 39-49v-147H72v-28h81" id="bq"/><path fill="#999" d="M100-194c62-1 85 37 85 99 1 63-27 99-86 99S16-35 15-95c0-66 28-99 85-99zM99-20c44 1 53-31 53-75 0-43-8-75-51-75s-53 32-53 75 10 74 51 75" id="br"/><path fill="#999" d="M117-194c89-4 53 116 60 194h-32v-121c0-31-8-49-39-48C34-167 62-67 57 0H25l-1-190h30c1 10-1 24 2 32 11-22 29-35 61-36" id="bs"/><path fill="#999" d="M100-194c63 0 86 42 84 106H49c0 40 14 67 53 68 26 1 43-12 49-29l28 8c-11 28-37 45-77 45C44 4 14-33 15-96c1-61 26-98 85-98zm52 81c6-60-76-77-97-28-3 7-6 17-6 28h103" id="bt"/><g id="F"><use transform="matrix(0.06172839506172778,0,0,0.06172839506172778,0,0)" xlink:href="#bq"/><use transform="matrix(0.06172839506172778,0,0,0.06172839506172778,11.111111111111,0)" xlink:href="#br"/><use transform="matrix(0.06172839506172778,0,0,0.06172839506172778,23.456790123456557,0)" xlink:href="#bs"/><use transform="matrix(0.06172839506172778,0,0,0.06172839506172778,35.80246913580211,0)" xlink:href="#bt"/><use transform="matrix(0.06172839506172778,0,0,0.06172839506172778,48.14814814814767,0)" xlink:href="#bp"/></g><path fill="#999" d="M32 76v-337h29V76H32" id="bu"/><use transform="matrix(0.06172839506172778,0,0,0.06172839506172778,0,0)" xlink:href="#bu" id="G"/><path fill="#999" d="M141-36C126-15 110 5 73 4 37 3 15-17 15-53c-1-64 63-63 125-63 3-35-9-54-41-54-24 1-41 7-42 31l-33-3c5-37 33-52 76-52 45 0 72 20 72 64v82c-1 20 7 32 28 27v20c-31 9-61-2-59-35zM48-53c0 20 12 33 32 33 41-3 63-29 60-74-43 2-92-5-92 41" id="bv"/><g id="H"><use transform="matrix(0.06172839506172778,0,0,0.06172839506172778,0,0)" xlink:href="#bq"/><use transform="matrix(0.06172839506172778,0,0,0.06172839506172778,11.111111111111,0)" xlink:href="#bv"/><use transform="matrix(0.06172839506172778,0,0,0.06172839506172778,23.456790123456557,0)" xlink:href="#bs"/></g><path fill="#999" d="M27 0v-27h64v-190l-56 39v-29l58-41h29v221h61V0H27" id="bw"/><path fill="#999" d="M68-38c1 34 0 65-14 84H32c9-13 17-26 17-46H33v-38h35" id="bx"/><g id="I"><use transform="matrix(0.06172839506172778,0,0,0.06172839506172778,0,0)" xlink:href="#bw"/><use transform="matrix(0.06172839506172778,0,0,0.06172839506172778,12.345679012345556,0)" xlink:href="#bx"/></g><path fill="#999" d="M101-251c82-7 93 87 43 132L82-64C71-53 59-42 53-27h129V0H18c2-99 128-94 128-182 0-28-16-43-45-43s-46 15-49 41l-32-3c6-41 34-60 81-64" id="by"/><path fill="#999" d="M101-251c68 0 85 55 85 127S166 4 100 4C33 4 14-52 14-124c0-73 17-127 87-127zm-1 229c47 0 54-49 54-102s-4-102-53-102c-51 0-55 48-55 102 0 53 5 102 54 102" id="bz"/><path fill="#999" d="M64 0c3-98 48-159 88-221H18v-27h164v26C143-157 98-101 97 0H64" id="bA"/><g id="J"><use transform="matrix(0.06172839506172778,0,0,0.06172839506172778,0,0)" xlink:href="#by"/><use transform="matrix(0.06172839506172778,0,0,0.06172839506172778,12.345679012345556,0)" xlink:href="#bz"/><use transform="matrix(0.06172839506172778,0,0,0.06172839506172778,24.691358024691112,0)" xlink:href="#bw"/><use transform="matrix(0.06172839506172778,0,0,0.06172839506172778,37.03703703703667,0)" xlink:href="#bA"/></g></defs></g></svg>